M48
;Layer_Color=9474304
;FILE_FORMAT=2:4
INCH,LZ
;TYPE=PLATED
T1F00S00C0.0200
T2F00S00C0.0310
T3F00S00C0.0315
T4F00S00C0.0354
T5F00S00C0.0380
T6F00S00C0.0390
T7F00S00C0.0394
T8F00S00C0.0550
T9F00S00C0.0984
T10F00S00C0.1260
%
T01
X05265Y026308
X053618
X054585
X05535Y0239
X05575Y02335
X04395Y027
X04345Y02755
X04595Y03155
Y03205
X04645Y03595
X042816Y034116
X04935Y03355
Y03305
Y03255
X0549Y0346
T02
X05285Y031
X05585
Y032
Y033
Y034
X05285
Y033
Y032
T03
X0583Y031025
Y031775
T04
X0669Y02555
Y02655
Y02755
T05
X0399Y04305
X0409
X0419
X0429
X0439
X0449
X0459
X0469
X0479
X0489
X0499
X0509
X0519
X0529
X0539
X0549
T06
X0476Y0208
X0486
X0496
X0506
X0516
X0526
X0536
X0546
X0466
X0456
X044
X043
X042
X041
X04
X039
X038
X037
Y0398
X038
X039
X04
X041
X042
X044
X045
X046
X047
X048
X049
X05
X051
X0579Y03735
X0659
T07
X0402Y02475
Y02775
T08
X0644Y01985
Y02185
X0594
Y01985
X055025Y0199
Y0219
X050025
Y0199
X04565Y01985
Y02185
X04065
Y01985
T09
X067262Y030845
X037735
Y04305
X067262
T10
X0674Y0182
X0378
M30
