G04*
G04 #@! TF.GenerationSoftware,Altium Limited,Altium Designer,21.3.2 (30)*
G04*
G04 Layer_Color=65535*
%FSTAX24Y24*%
%MOIN*%
G70*
G04*
G04 #@! TF.SameCoordinates,A58ECD2F-0E49-4CC9-AAE6-1995A15C2F52*
G04*
G04*
G04 #@! TF.FilePolarity,Positive*
G04*
G01*
G75*
%ADD10C,0.0060*%
%ADD11C,0.0100*%
%ADD12C,0.0080*%
%ADD13C,0.0050*%
%ADD14C,0.0079*%
%ADD15C,0.0039*%
%ADD16R,0.2362X0.0984*%
%ADD17R,0.0729X0.0099*%
%ADD18R,0.0431X0.0032*%
%ADD19R,0.0220X0.0670*%
G36*
X043062Y032993D02*
X042836Y033181D01*
X042607Y032993D01*
X043062D01*
D02*
G37*
G36*
X067829Y025012D02*
X067791Y024996D01*
X067541D01*
X067502Y025012D01*
X067487Y02505D01*
Y02605D01*
X067502Y026088D01*
X067541Y026104D01*
X067791D01*
X067829Y026088D01*
X067845Y02605D01*
Y02505D01*
X067829Y025012D01*
D02*
G37*
G36*
Y027012D02*
X067791Y026996D01*
X067541D01*
X067502Y027012D01*
X067487Y02705D01*
Y02805D01*
X067502Y028088D01*
X067541Y028104D01*
X067791D01*
X067829Y028088D01*
X067845Y02805D01*
Y02705D01*
X067829Y027012D01*
D02*
G37*
D10*
X04692Y03073D02*
G03*
X04668Y03073I-00012J0D01*
G01*
X0483D02*
Y03082D01*
X04692Y03073D02*
X0483D01*
X04668D02*
X04692D01*
X0453D02*
X04668D01*
X0453Y03478D02*
Y03487D01*
X0483D01*
Y03478D02*
Y03487D01*
X0453Y03073D02*
Y03082D01*
X042791Y028141D02*
X043056D01*
X042791D02*
Y029154D01*
X044109Y028141D02*
Y029154D01*
X043844Y028141D02*
X044109D01*
D11*
X044518Y02086D02*
G03*
X044518Y02086I-001378J0D01*
G01*
X063268D02*
G03*
X063268Y02086I-001378J0D01*
G01*
X0402Y024D02*
G03*
X0402Y0285I000014J00225D01*
G01*
D02*
G03*
X0402Y024I0J-00225D01*
G01*
X053893Y02091D02*
G03*
X053893Y02091I-001378J0D01*
G01*
X067134Y037349D02*
G03*
X067134Y037342I-00405J-000007D01*
G01*
X03675Y029861D02*
Y044034D01*
Y029861D02*
X068246D01*
Y044034D01*
X03675D02*
X068246D01*
X04015Y0267D02*
X0407D01*
Y02625D02*
Y0267D01*
Y02625D02*
X0412Y02575D01*
X0392D02*
X0412D01*
X0392D02*
X0397Y02625D01*
Y0267D01*
X04015D01*
X065561Y024566D02*
Y028534D01*
X067806Y024566D02*
Y028534D01*
X065561Y024566D02*
X067806D01*
X065561Y028534D02*
X067806D01*
X05765Y03585D02*
Y03685D01*
Y03885D02*
X0593D01*
X05765Y03785D02*
Y03885D01*
Y03585D02*
X0593D01*
X03765Y04175D02*
Y04115D01*
X03805D01*
X03865Y04165D02*
X03855Y04175D01*
X03835D01*
X03825Y04165D01*
Y04125D01*
X03835Y04115D01*
X03855D01*
X03865Y04125D01*
X03885Y04175D02*
Y04115D01*
X03915D01*
X03925Y04125D01*
Y04165D01*
X03915Y04175D01*
X03885D01*
X0594Y03265D02*
Y03255D01*
X0596Y03235D01*
X0598Y03255D01*
Y03265D01*
X0596Y03235D02*
Y03205D01*
X06D02*
X0602D01*
X0601D01*
Y03265D01*
X06Y03255D01*
X04455Y029D02*
Y0286D01*
X04475Y0284D01*
X04495Y0286D01*
Y029D01*
X04515Y0284D02*
Y029D01*
X04545D01*
X04555Y0289D01*
Y0287D01*
X04545Y0286D01*
X04515D01*
X04535D02*
X04555Y0284D01*
X04575D02*
X04595D01*
X04585D01*
Y029D01*
X04575Y0289D01*
X04462Y0358D02*
Y0353D01*
X04472Y0352D01*
X04492D01*
X04502Y0353D01*
Y0358D01*
X04522Y0357D02*
X04532Y0358D01*
X04552D01*
X04562Y0357D01*
Y0356D01*
X04552Y0355D01*
X04542D01*
X04552D01*
X04562Y0354D01*
Y0353D01*
X04552Y0352D01*
X04532D01*
X04522Y0353D01*
X0538Y03255D02*
Y03205D01*
X0539Y03195D01*
X0541D01*
X0542Y03205D01*
Y03255D01*
X0548Y03195D02*
X0544D01*
X0548Y03235D01*
Y03245D01*
X0547Y03255D01*
X0545D01*
X0544Y03245D01*
X06145Y024D02*
X06135Y0241D01*
X06115D01*
X06105Y024D01*
Y0239D01*
X06115Y0238D01*
X06135D01*
X06145Y0237D01*
Y0236D01*
X06135Y0235D01*
X06115D01*
X06105Y0236D01*
X06165Y0241D02*
Y0235D01*
X06185Y0237D01*
X06205Y0235D01*
Y0241D01*
X06265Y0235D02*
X06225D01*
X06265Y0239D01*
Y024D01*
X06255Y0241D01*
X06235D01*
X06225Y024D01*
X0521D02*
X052Y0241D01*
X0518D01*
X0517Y024D01*
Y0239D01*
X0518Y0238D01*
X052D01*
X0521Y0237D01*
Y0236D01*
X052Y0235D01*
X0518D01*
X0517Y0236D01*
X0523Y0241D02*
Y0235D01*
X0525Y0237D01*
X0527Y0235D01*
Y0241D01*
X0529Y0235D02*
X0531D01*
X053D01*
Y0241D01*
X0529Y024D01*
X0427Y02415D02*
X0426Y02425D01*
X0424D01*
X0423Y02415D01*
Y02405D01*
X0424Y02395D01*
X0426D01*
X0427Y02385D01*
Y02375D01*
X0426Y02365D01*
X0424D01*
X0423Y02375D01*
X0429Y02425D02*
Y02365D01*
X0431Y02385D01*
X0433Y02365D01*
Y02425D01*
X0435Y02415D02*
X0436Y02425D01*
X0438D01*
X0439Y02415D01*
Y02375D01*
X0438Y02365D01*
X0436D01*
X0435Y02375D01*
Y02415D01*
X06431Y02846D02*
Y02906D01*
X06461D01*
X06471Y02896D01*
Y02876D01*
X06461Y02866D01*
X06431D01*
X06451D02*
X06471Y02846D01*
X06491D02*
X06511D01*
X06501D01*
Y02906D01*
X06491Y02896D01*
X06571Y02846D02*
Y02906D01*
X06541Y02876D01*
X06581D01*
X05034Y03589D02*
Y03629D01*
X05024Y03639D01*
X05004D01*
X04994Y03629D01*
Y03589D01*
X05004Y03579D01*
X05024D01*
X05014Y03599D02*
X05034Y03579D01*
X05024D02*
X05034Y03589D01*
X05054Y03579D02*
X05074D01*
X05064D01*
Y03639D01*
X05054Y03629D01*
X06685Y0289D02*
Y0295D01*
X06715D01*
X06725Y0294D01*
Y0292D01*
X06715Y0291D01*
X06685D01*
X06745Y0289D02*
X06765D01*
X06755D01*
Y0295D01*
X06745Y0294D01*
X04951Y02859D02*
Y02799D01*
X04981D01*
X04991Y02809D01*
Y02849D01*
X04981Y02859D01*
X04951D01*
X05051Y02799D02*
X05011D01*
X05051Y02839D01*
Y02849D01*
X05041Y02859D01*
X05021D01*
X05011Y02849D01*
X038451Y0295D02*
Y0289D01*
X03875D01*
X03885Y029D01*
Y0291D01*
X03875Y0292D01*
X038451D01*
X03875D01*
X03885Y0293D01*
Y0294D01*
X03875Y0295D01*
X038451D01*
X03905D02*
Y029D01*
X03915Y0289D01*
X03935D01*
X03945Y029D01*
Y0295D01*
X03965D02*
X04005D01*
Y0294D01*
X03965Y029D01*
Y0289D01*
X04005D01*
X04025Y0295D02*
X04065D01*
Y0294D01*
X04025Y029D01*
Y0289D01*
X04065D01*
X04125Y0295D02*
X04085D01*
Y0289D01*
X04125D01*
X04085Y0292D02*
X04105D01*
X04145Y0289D02*
Y0295D01*
X041749D01*
X041849Y0294D01*
Y0292D01*
X041749Y0291D01*
X04145D01*
X04165D02*
X041849Y0289D01*
X05668Y04273D02*
Y04213D01*
X05698D01*
X05708Y04223D01*
Y04233D01*
X05698Y04243D01*
X05668D01*
X05698D01*
X05708Y04253D01*
Y04263D01*
X05698Y04273D01*
X05668D01*
X05728D02*
X05768D01*
X05748D01*
Y04213D01*
X05788D02*
X05808D01*
X05798D01*
Y04273D01*
X05788Y04263D01*
D12*
X0588Y031025D02*
X061154D01*
Y031775D01*
X0588D02*
X061154D01*
X0588Y031025D02*
Y031775D01*
X04078Y02323D02*
X04551D01*
X04078Y01849D02*
Y02323D01*
Y01849D02*
X04551D01*
Y02323D01*
X05953D02*
X06426D01*
X05953Y01849D02*
Y02323D01*
Y01849D02*
X06426D01*
Y02323D01*
X050155Y02328D02*
X054885D01*
X050155Y01854D02*
Y02328D01*
Y01854D02*
X054885D01*
Y02328D01*
X05485Y0305D02*
Y03075D01*
X05385D02*
X05485D01*
X05385Y0305D02*
Y03075D01*
X05335Y0305D02*
X05535D01*
Y0345D01*
X05335D02*
X05535D01*
X05335Y0305D02*
Y0345D01*
D13*
X064236Y026761D02*
Y028139D01*
X064964Y026761D02*
Y028139D01*
X064236Y026761D02*
X064964D01*
X064236Y028139D02*
X064964D01*
X052761Y035614D02*
X054139D01*
X052761Y034886D02*
X054139D01*
X052761D02*
Y035614D01*
X054139Y034886D02*
Y035614D01*
X054611Y034886D02*
X055989D01*
X054611Y035614D02*
X055989D01*
Y034886D02*
Y035614D01*
X054611Y034886D02*
Y035614D01*
X044178Y032415D02*
Y033793D01*
X04345Y032415D02*
Y033793D01*
X044178D01*
X04345Y032415D02*
X044178D01*
X04345Y030781D02*
Y032159D01*
X044178Y030781D02*
Y032159D01*
X04345Y030781D02*
X044178D01*
X04345Y032159D02*
X044178D01*
X049865Y033123D02*
X051243D01*
X049865Y033852D02*
X051243D01*
Y033123D02*
Y033852D01*
X049865Y033123D02*
Y033852D01*
Y030488D02*
X051243D01*
X049865Y031216D02*
X051243D01*
Y030488D02*
Y031216D01*
X049865Y030488D02*
Y031216D01*
Y031366D02*
X051243D01*
X049865Y032095D02*
X051243D01*
Y031366D02*
Y032095D01*
X049865Y031366D02*
Y032095D01*
Y032245D02*
X051243D01*
X049865Y032973D02*
X051243D01*
Y032245D02*
Y032973D01*
X049865Y032245D02*
Y032973D01*
X042462Y030765D02*
Y032143D01*
X04319Y030765D02*
Y032143D01*
X042462Y030765D02*
X04319D01*
X042462Y032143D02*
X04319D01*
X049586Y024532D02*
X050314D01*
X049586Y02591D02*
X050314D01*
X049586Y024532D02*
Y02591D01*
X050314Y024532D02*
Y02591D01*
X054221Y026711D02*
X05495D01*
X054221Y028089D02*
X05495D01*
X054221Y026711D02*
Y028089D01*
X05495Y026711D02*
Y028089D01*
X053254Y026711D02*
X053982D01*
X053254Y028089D02*
X053982D01*
X053254Y026711D02*
Y028089D01*
X053982Y026711D02*
Y028089D01*
X052286Y026711D02*
X053014D01*
X052286Y028089D02*
X053014D01*
X052286Y026711D02*
Y028089D01*
X053014Y026711D02*
Y028089D01*
X04247Y033793D02*
X043198D01*
X04247Y032415D02*
X043198D01*
Y033793D01*
X04247Y032415D02*
Y033793D01*
D14*
X05082Y03501D02*
X051135D01*
Y034813D02*
Y03501D01*
X049954D02*
X050269D01*
X049954Y034813D02*
Y03501D01*
X050659Y025329D02*
Y025526D01*
X050974D01*
X051841Y025329D02*
Y025526D01*
X051526D02*
X051841D01*
X04945Y02675D02*
X05165D01*
X04945D02*
Y02765D01*
X05165D01*
Y02675D02*
Y02765D01*
D15*
X052286Y024527D02*
Y025905D01*
X053014Y024527D02*
Y025905D01*
X052286Y024527D02*
X053014D01*
X052286Y025905D02*
X053014D01*
X0524Y025216D02*
X0529D01*
X053254Y024527D02*
Y025905D01*
X053982Y024527D02*
Y025905D01*
X053254Y024527D02*
X053982D01*
X053254Y025905D02*
X053982D01*
X053368Y025216D02*
X053868D01*
X054221Y024527D02*
Y025905D01*
X05495Y024527D02*
Y025905D01*
X054221Y024527D02*
X05495D01*
X054221Y025905D02*
X05495D01*
X054335Y025216D02*
X054835D01*
X041626Y031454D02*
X042126D01*
X041512Y032143D02*
X04224D01*
X041512Y030765D02*
X04224D01*
Y032143D01*
X041512Y030765D02*
Y032143D01*
D16*
X059973Y0314D02*
D03*
D17*
X042833Y033743D02*
D03*
D18*
X042833Y033198D02*
D03*
D19*
X05034Y027195D02*
D03*
M02*
