G04*
G04 #@! TF.GenerationSoftware,Altium Limited,Altium Designer,21.3.2 (30)*
G04*
G04 Layer_Physical_Order=1*
G04 Layer_Color=255*
%FSTAX24Y24*%
%MOIN*%
G70*
G04*
G04 #@! TF.SameCoordinates,A58ECD2F-0E49-4CC9-AAE6-1995A15C2F52*
G04*
G04*
G04 #@! TF.FilePolarity,Positive*
G04*
G01*
G75*
%ADD11C,0.0100*%
%ADD20R,0.0710X0.0210*%
G04:AMPARAMS|DCode=21|XSize=63mil|YSize=41.3mil|CornerRadius=10.3mil|HoleSize=0mil|Usage=FLASHONLY|Rotation=0.000|XOffset=0mil|YOffset=0mil|HoleType=Round|Shape=RoundedRectangle|*
%AMROUNDEDRECTD21*
21,1,0.0630,0.0207,0,0,0.0*
21,1,0.0423,0.0413,0,0,0.0*
1,1,0.0207,0.0212,-0.0103*
1,1,0.0207,-0.0212,-0.0103*
1,1,0.0207,-0.0212,0.0103*
1,1,0.0207,0.0212,0.0103*
%
%ADD21ROUNDEDRECTD21*%
%ADD22R,0.0236X0.0394*%
G04:AMPARAMS|DCode=23|XSize=63mil|YSize=41.3mil|CornerRadius=10.3mil|HoleSize=0mil|Usage=FLASHONLY|Rotation=270.000|XOffset=0mil|YOffset=0mil|HoleType=Round|Shape=RoundedRectangle|*
%AMROUNDEDRECTD23*
21,1,0.0630,0.0207,0,0,270.0*
21,1,0.0423,0.0413,0,0,270.0*
1,1,0.0207,-0.0103,-0.0212*
1,1,0.0207,-0.0103,0.0212*
1,1,0.0207,0.0103,0.0212*
1,1,0.0207,0.0103,-0.0212*
%
%ADD23ROUNDEDRECTD23*%
%ADD24R,0.0472X0.0472*%
%ADD25R,0.0551X0.0591*%
G04:AMPARAMS|DCode=26|XSize=55.1mil|YSize=63mil|CornerRadius=13.8mil|HoleSize=0mil|Usage=FLASHONLY|Rotation=180.000|XOffset=0mil|YOffset=0mil|HoleType=Round|Shape=RoundedRectangle|*
%AMROUNDEDRECTD26*
21,1,0.0551,0.0354,0,0,180.0*
21,1,0.0276,0.0630,0,0,180.0*
1,1,0.0276,-0.0138,0.0177*
1,1,0.0276,0.0138,0.0177*
1,1,0.0276,0.0138,-0.0177*
1,1,0.0276,-0.0138,-0.0177*
%
%ADD26ROUNDEDRECTD26*%
%ADD51C,0.0200*%
%ADD52R,0.0600X0.0350*%
%ADD53C,0.0984*%
%ADD54O,0.0600X0.0800*%
%ADD55R,0.0600X0.0800*%
%ADD56O,0.0600X0.0700*%
%ADD57R,0.0600X0.0700*%
%ADD58C,0.0512*%
%ADD59C,0.1260*%
%ADD60C,0.0900*%
G04:AMPARAMS|DCode=61|XSize=70.9mil|YSize=70.9mil|CornerRadius=17.7mil|HoleSize=0mil|Usage=FLASHONLY|Rotation=270.000|XOffset=0mil|YOffset=0mil|HoleType=Round|Shape=RoundedRectangle|*
%AMROUNDEDRECTD61*
21,1,0.0709,0.0354,0,0,270.0*
21,1,0.0354,0.0709,0,0,270.0*
1,1,0.0354,-0.0177,-0.0177*
1,1,0.0354,-0.0177,0.0177*
1,1,0.0354,0.0177,0.0177*
1,1,0.0354,0.0177,-0.0177*
%
%ADD61ROUNDEDRECTD61*%
%ADD62C,0.0709*%
%ADD63R,0.0600X0.0600*%
%ADD64C,0.0600*%
%ADD65C,0.0591*%
G04:AMPARAMS|DCode=66|XSize=59.1mil|YSize=59.1mil|CornerRadius=14.8mil|HoleSize=0mil|Usage=FLASHONLY|Rotation=270.000|XOffset=0mil|YOffset=0mil|HoleType=Round|Shape=RoundedRectangle|*
%AMROUNDEDRECTD66*
21,1,0.0591,0.0295,0,0,270.0*
21,1,0.0295,0.0591,0,0,270.0*
1,1,0.0295,-0.0148,-0.0148*
1,1,0.0295,-0.0148,0.0148*
1,1,0.0295,0.0148,0.0148*
1,1,0.0295,0.0148,-0.0148*
%
%ADD66ROUNDEDRECTD66*%
%ADD67C,0.0800*%
%ADD68R,0.0800X0.0800*%
%ADD69C,0.0250*%
G36*
X067941Y044233D02*
X068179Y044186D01*
X068408Y044108D01*
X068624Y044001D01*
X068826Y043867D01*
X069007Y043707D01*
X069167Y043526D01*
X069301Y043324D01*
X069408Y043108D01*
X069486Y042879D01*
X069533Y042641D01*
X069548Y042407D01*
X069547Y0424D01*
Y01805D01*
X069548Y018043D01*
X069533Y017809D01*
X069486Y017571D01*
X069408Y017342D01*
X069301Y017126D01*
X069167Y016924D01*
X069007Y016743D01*
X068826Y016583D01*
X068624Y016449D01*
X068408Y016342D01*
X068179Y016264D01*
X067941Y016217D01*
X067707Y016202D01*
X0677Y016203D01*
X037545D01*
X037538Y016202D01*
X037304Y016217D01*
X037066Y016264D01*
X036837Y016342D01*
X036621Y016449D01*
X036419Y016583D01*
X036238Y016743D01*
X036078Y016924D01*
X035944Y017126D01*
X035837Y017342D01*
X035759Y017571D01*
X035712Y017809D01*
X035697Y018043D01*
X035698Y01805D01*
Y0424D01*
X035697Y042407D01*
X035712Y042641D01*
X035759Y042879D01*
X035837Y043108D01*
X035944Y043324D01*
X036078Y043526D01*
X036238Y043707D01*
X036419Y043867D01*
X036621Y044001D01*
X036837Y044108D01*
X037066Y044186D01*
X037304Y044233D01*
X037538Y044248D01*
X037545Y044247D01*
X0677D01*
X067707Y044248D01*
X067941Y044233D01*
D02*
G37*
%LPC*%
G36*
X05495Y043547D02*
Y0431D01*
X055303D01*
Y04315D01*
X05529Y043254D01*
X055249Y043352D01*
X055185Y043435D01*
X055102Y043499D01*
X055004Y04354D01*
X05495Y043547D01*
D02*
G37*
G36*
X05485D02*
X054796Y04354D01*
X054698Y043499D01*
X054615Y043435D01*
X054551Y043352D01*
X05451Y043254D01*
X054497Y04315D01*
Y0431D01*
X05485D01*
Y043547D01*
D02*
G37*
G36*
X0403Y04355D02*
X03995D01*
Y0431D01*
X0403D01*
Y04355D01*
D02*
G37*
G36*
X03985D02*
X0395D01*
Y0431D01*
X03985D01*
Y04355D01*
D02*
G37*
G36*
X0539Y043553D02*
X053796Y04354D01*
X053698Y043499D01*
X053615Y043435D01*
X053551Y043352D01*
X05351Y043254D01*
X053497Y04315D01*
Y04295D01*
X053498Y042938D01*
X053485Y042921D01*
X053456Y042903D01*
X053399Y042921D01*
X053303Y042995D01*
Y04315D01*
X05329Y043254D01*
X053249Y043352D01*
X053185Y043435D01*
X053102Y043499D01*
X053004Y04354D01*
X0529Y043553D01*
X052796Y04354D01*
X052698Y043499D01*
X052615Y043435D01*
X052551Y043352D01*
X05251Y043254D01*
X052497Y04315D01*
Y042995D01*
X052401Y042921D01*
X052344Y042903D01*
X052315Y042921D01*
X052302Y042938D01*
X052303Y04295D01*
Y04315D01*
X05229Y043254D01*
X052249Y043352D01*
X052185Y043435D01*
X052102Y043499D01*
X052004Y04354D01*
X0519Y043553D01*
X051796Y04354D01*
X051698Y043499D01*
X051615Y043435D01*
X051551Y043352D01*
X05151Y043254D01*
X051497Y04315D01*
Y04295D01*
X05151Y042846D01*
X051551Y042748D01*
X051615Y042665D01*
X051685Y04261D01*
X051686Y042593D01*
X051581Y042453D01*
X05131D01*
X051245Y042527D01*
X051185Y042665D01*
X051249Y042748D01*
X05129Y042846D01*
X051303Y04295D01*
Y04315D01*
X05129Y043254D01*
X051249Y043352D01*
X051185Y043435D01*
X051102Y043499D01*
X051004Y04354D01*
X0509Y043553D01*
X050796Y04354D01*
X050698Y043499D01*
X050615Y043435D01*
X050551Y043352D01*
X05051Y043254D01*
X050497Y04315D01*
Y04295D01*
X05051Y042846D01*
X050551Y042748D01*
X050615Y042665D01*
X050698Y042601D01*
X050747Y04258D01*
Y0425D01*
X050759Y042441D01*
X050792Y042392D01*
X050835Y042348D01*
X050775Y042203D01*
X050413D01*
X050161Y042455D01*
X050154Y042473D01*
X050179Y04266D01*
X050185Y042665D01*
X050249Y042748D01*
X05029Y042846D01*
X050303Y04295D01*
Y04315D01*
X05029Y043254D01*
X050249Y043352D01*
X050185Y043435D01*
X050102Y043499D01*
X050004Y04354D01*
X0499Y043553D01*
X049796Y04354D01*
X049698Y043499D01*
X049615Y043435D01*
X049551Y043352D01*
X04951Y043254D01*
X049497Y04315D01*
Y04295D01*
X04951Y042846D01*
X049551Y042748D01*
X049615Y042665D01*
X049698Y042601D01*
X049747Y04258D01*
Y0425D01*
X049759Y042441D01*
X049792Y042392D01*
X050242Y041942D01*
X050291Y041909D01*
X05035Y041897D01*
X051947D01*
Y039774D01*
X051276Y039103D01*
X048237D01*
X048157Y039218D01*
X048145Y03926D01*
X048153Y0393D01*
Y03938D01*
X048202Y039401D01*
X048285Y039465D01*
X048349Y039548D01*
X04839Y039646D01*
X048403Y03975D01*
Y03985D01*
X04839Y039954D01*
X048349Y040052D01*
X048285Y040135D01*
X048202Y040199D01*
X048104Y04024D01*
X048Y040253D01*
X047896Y04024D01*
X047798Y040199D01*
X047715Y040135D01*
X047651Y040052D01*
X04761Y039954D01*
X047597Y03985D01*
Y03975D01*
X04761Y039646D01*
X047651Y039548D01*
X047715Y039465D01*
X047721Y03946D01*
X04774Y039424D01*
X047744Y039274D01*
X047737Y039256D01*
X046342Y037862D01*
X046309Y037812D01*
X046297Y037754D01*
Y036115D01*
X046259Y036077D01*
X046225Y035995D01*
Y035905D01*
X046259Y035823D01*
X046323Y035759D01*
X046405Y035725D01*
X046495D01*
X046577Y035759D01*
X04659Y035771D01*
X046747Y035706D01*
Y034757D01*
X046746Y034756D01*
X046727Y034743D01*
X046687Y034703D01*
X045375D01*
Y034755D01*
X044465D01*
Y034345D01*
X044465D01*
Y034255D01*
X044465D01*
Y033845D01*
X044465D01*
Y033755D01*
X044465D01*
Y033345D01*
X044465D01*
Y033255D01*
X044465D01*
Y032912D01*
X044465Y032755D01*
X044465Y032688D01*
Y03262D01*
X044353Y032562D01*
X044313Y032554D01*
X044233Y032627D01*
Y032823D01*
X044217Y032902D01*
X044172Y03297D01*
X044105Y033015D01*
X044061Y033023D01*
Y033184D01*
X044105Y033193D01*
X044172Y033238D01*
X044217Y033305D01*
X044233Y033384D01*
Y033591D01*
X044217Y03367D01*
X044172Y033737D01*
X044105Y033782D01*
X044026Y033798D01*
X044018D01*
Y03488D01*
X044284Y035146D01*
X04515D01*
X045228Y035162D01*
X045294Y035206D01*
X045844Y035756D01*
X045844Y035756D01*
X045888Y035822D01*
X045904Y0359D01*
Y037866D01*
X047144Y039106D01*
X047188Y039172D01*
X047204Y03925D01*
X047204Y03925D01*
Y039402D01*
X047285Y039465D01*
X047349Y039548D01*
X04739Y039646D01*
X047403Y03975D01*
Y03985D01*
X04739Y039954D01*
X047349Y040052D01*
X047285Y040135D01*
X047204Y040198D01*
Y04155D01*
X047188Y041628D01*
X047144Y041694D01*
X046644Y042194D01*
X046578Y042238D01*
X0465Y042254D01*
X041284D01*
X041104Y042434D01*
Y042602D01*
X041185Y042665D01*
X041249Y042748D01*
X04129Y042846D01*
X041303Y04295D01*
Y04315D01*
X04129Y043254D01*
X041249Y043352D01*
X041185Y043435D01*
X041102Y043499D01*
X041004Y04354D01*
X0409Y043553D01*
X040796Y04354D01*
X040698Y043499D01*
X040615Y043435D01*
X040551Y043352D01*
X04051Y043254D01*
X040497Y04315D01*
Y04295D01*
X04051Y042846D01*
X040551Y042748D01*
X040615Y042665D01*
X040696Y042602D01*
Y04235D01*
X040712Y042272D01*
X040756Y042206D01*
X041056Y041906D01*
X041122Y041862D01*
X0412Y041846D01*
X046416D01*
X046796Y041466D01*
Y040198D01*
X046715Y040135D01*
X046651Y040052D01*
X04661Y039954D01*
X046597Y03985D01*
Y03975D01*
X04661Y039646D01*
X046651Y039548D01*
X046715Y039465D01*
X04672Y039461D01*
X046731Y039269D01*
X045556Y038094D01*
X045512Y038028D01*
X045496Y03795D01*
Y035984D01*
X045066Y035554D01*
X04125D01*
X041172Y035538D01*
X041106Y035494D01*
X041106Y035494D01*
X040556Y034944D01*
X040512Y034878D01*
X040496Y0348D01*
Y03145D01*
X040512Y031372D01*
X040556Y031306D01*
X040936Y030926D01*
X041002Y030881D01*
X04108Y030866D01*
X041487D01*
X041518Y03082D01*
X041585Y030775D01*
X041664Y030759D01*
X042088D01*
X042167Y030775D01*
X042234Y03082D01*
X042255Y030851D01*
X042447D01*
X042468Y03082D01*
X042535Y030775D01*
X042614Y030759D01*
X043038D01*
X043117Y030775D01*
X043184Y03082D01*
X043205Y030851D01*
X043446D01*
X043456Y030836D01*
X043523Y030791D01*
X043603Y030775D01*
X04361D01*
Y029946D01*
X043499Y029835D01*
X04332Y029835D01*
X043136D01*
Y029499D01*
X043086D01*
Y029449D01*
X04275D01*
Y029163D01*
X042921D01*
X04294Y029152D01*
X043047Y02905D01*
X043047Y029005D01*
Y028731D01*
X043047Y0287D01*
X043056Y028652D01*
X043074Y028509D01*
X043074Y027794D01*
X043154D01*
X043188Y027756D01*
X043243Y027637D01*
X043225Y027595D01*
Y027505D01*
X043259Y027423D01*
X043323Y027359D01*
X043405Y027325D01*
X043495D01*
X043577Y027359D01*
X043641Y027423D01*
X043675Y027505D01*
Y027595D01*
X043657Y027637D01*
X043712Y027756D01*
X043746Y027794D01*
X043826D01*
X043826Y028509D01*
X043842Y028644D01*
X043851Y0287D01*
X043851Y028732D01*
Y029005D01*
X043851Y02905D01*
X043959Y029152D01*
X043977Y029163D01*
X04415D01*
Y029295D01*
X050599D01*
X050677Y02931D01*
X050743Y029355D01*
X051082Y029694D01*
X051127Y02976D01*
X051142Y029838D01*
X051142Y029838D01*
Y030463D01*
X051188Y030494D01*
X051233Y030561D01*
X051249Y030641D01*
Y030796D01*
X052506D01*
X05253Y030754D01*
X052604Y03068D01*
X052696Y030627D01*
X052797Y0306D01*
X052903D01*
X053004Y030627D01*
X053096Y03068D01*
X05317Y030754D01*
X053223Y030846D01*
X05325Y030947D01*
Y031053D01*
X053223Y031154D01*
X05317Y031246D01*
X053096Y03132D01*
X053004Y031373D01*
X052903Y0314D01*
X052797D01*
X052696Y031373D01*
X052604Y03132D01*
X05253Y031246D01*
X052506Y031204D01*
X051192D01*
X051188Y03121D01*
Y031372D01*
X051233Y03144D01*
X051249Y031519D01*
Y031942D01*
X051233Y032022D01*
X051188Y032089D01*
Y032251D01*
X051233Y032318D01*
X051249Y032397D01*
Y032821D01*
X051233Y0329D01*
X051188Y032967D01*
Y033129D01*
X051233Y033197D01*
X051249Y033276D01*
Y033284D01*
X051783D01*
X051861Y033299D01*
X051927Y033343D01*
X052044Y03346D01*
X052044Y03346D01*
X052088Y033527D01*
X052104Y033605D01*
Y034916D01*
X052234Y035046D01*
X052755D01*
Y035038D01*
X052771Y034959D01*
X052816Y034892D01*
X052883Y034847D01*
X052963Y034831D01*
X053169D01*
X053249Y034847D01*
X053316Y034892D01*
X053361Y034959D01*
X05337Y035003D01*
X05353D01*
X053539Y034959D01*
X053584Y034892D01*
X053651Y034847D01*
X053681Y034841D01*
Y034247D01*
X053587Y034153D01*
X053223D01*
X053223Y034154D01*
X05317Y034246D01*
X053096Y03432D01*
X053004Y034373D01*
X052903Y0344D01*
X052797D01*
X052696Y034373D01*
X052604Y03432D01*
X05253Y034246D01*
X052477Y034154D01*
X05245Y034053D01*
Y033947D01*
X052477Y033846D01*
X05253Y033754D01*
X052604Y03368D01*
X052696Y033627D01*
X052797Y0336D01*
X052903D01*
X053004Y033627D01*
X053096Y03368D01*
X05317Y033754D01*
X053223Y033846D01*
X053223Y033847D01*
X05365D01*
X053709Y033859D01*
X053758Y033892D01*
X053942Y034076D01*
X053975Y034125D01*
X053987Y034184D01*
Y034841D01*
X054017Y034847D01*
X054084Y034892D01*
X054129Y034959D01*
X054145Y035038D01*
Y035462D01*
X054129Y035541D01*
X054084Y035608D01*
X054017Y035653D01*
X053937Y035669D01*
X053731D01*
X053651Y035653D01*
X053584Y035608D01*
X053539Y035541D01*
X05353Y035497D01*
X05337D01*
X053361Y035541D01*
X053316Y035608D01*
X053249Y035653D01*
X053169Y035669D01*
X052963D01*
X052883Y035653D01*
X052816Y035608D01*
X052771Y035541D01*
X052755Y035462D01*
Y035454D01*
X05215D01*
X052072Y035438D01*
X052006Y035394D01*
X051756Y035144D01*
X051712Y035078D01*
X051696Y035D01*
Y033691D01*
X051249D01*
Y033699D01*
X051233Y033778D01*
X051188Y033846D01*
X051127Y033887D01*
X051123Y033908D01*
X051137Y034044D01*
X051137D01*
Y034291D01*
X050918D01*
X0507D01*
Y034044D01*
X050714D01*
X050752Y033898D01*
X050749Y033887D01*
X050688Y033846D01*
X050643Y033778D01*
X050635Y033735D01*
X050474D01*
X050465Y033778D01*
X05042Y033846D01*
X050359Y033887D01*
X050357Y033898D01*
X050389Y034044D01*
X050389D01*
Y034638D01*
X049952D01*
Y034494D01*
X049791D01*
X049732Y034482D01*
X049683Y034449D01*
X049437Y034203D01*
X049172D01*
X049135Y034345D01*
X049135Y034412D01*
Y0345D01*
X04868D01*
X048225D01*
Y034412D01*
X048225Y034255D01*
X048225Y034188D01*
Y033912D01*
X048225Y033755D01*
X048225Y033688D01*
Y033412D01*
X048225Y033255D01*
X048225Y033188D01*
Y032912D01*
X048225Y032755D01*
X048225Y032688D01*
Y032412D01*
X048225Y032255D01*
X048225Y032188D01*
Y031912D01*
X048225Y031755D01*
X048225Y031688D01*
Y031412D01*
X048225Y031255D01*
X048225Y031188D01*
Y030845D01*
X049135D01*
Y030897D01*
X04986D01*
Y030641D01*
X049876Y030561D01*
X049921Y030494D01*
X049988Y030449D01*
X050067Y030433D01*
X050274D01*
X050353Y030449D01*
X05042Y030494D01*
X050465Y030561D01*
X050474Y030605D01*
X050635D01*
X050643Y030561D01*
X050688Y030494D01*
X050734Y030463D01*
Y029923D01*
X050514Y029703D01*
X04415D01*
Y029835D01*
X044018D01*
Y030775D01*
X044026D01*
X044105Y030791D01*
X044172Y030836D01*
X044183Y030851D01*
X044465D01*
Y030845D01*
X045375D01*
Y031188D01*
X045375Y031255D01*
X045412Y031397D01*
X045785D01*
X045823Y031359D01*
X045905Y031325D01*
X045995D01*
X046077Y031359D01*
X046141Y031423D01*
X046175Y031505D01*
Y031595D01*
X046141Y031677D01*
X046114Y031704D01*
X046091Y0318D01*
X046114Y031896D01*
X046141Y031923D01*
X046175Y032005D01*
Y032095D01*
X046141Y032177D01*
X046077Y032241D01*
X045995Y032275D01*
X045905D01*
X045823Y032241D01*
X045785Y032203D01*
X045412D01*
X045375Y032345D01*
X045375Y032345D01*
X045375D01*
X045375Y032345D01*
Y032688D01*
X045375Y032755D01*
X045412Y032897D01*
X04695D01*
X047009Y032909D01*
X047058Y032942D01*
X047758Y033642D01*
X047791Y033691D01*
X047803Y03375D01*
Y037476D01*
X048374Y038047D01*
X050475D01*
X050535Y037902D01*
X050436Y037803D01*
X050403Y037753D01*
X050392Y037694D01*
Y035425D01*
X050326D01*
Y034831D01*
X050763D01*
Y035425D01*
X050697D01*
Y037631D01*
X050863Y037797D01*
X051754D01*
X051812Y037809D01*
X051862Y037842D01*
X053258Y039238D01*
X053291Y039288D01*
X053303Y039346D01*
Y042237D01*
X053681Y042614D01*
X053698Y042601D01*
X053796Y04256D01*
X0539Y042547D01*
X054004Y04256D01*
X054102Y042601D01*
X054185Y042665D01*
X054249Y042748D01*
X05429Y042846D01*
X054303Y04295D01*
Y04315D01*
X05429Y043254D01*
X054249Y043352D01*
X054185Y043435D01*
X054102Y043499D01*
X054004Y04354D01*
X0539Y043553D01*
D02*
G37*
G36*
X055303Y043D02*
X05495D01*
Y042553D01*
X055004Y04256D01*
X055102Y042601D01*
X055185Y042665D01*
X055249Y042748D01*
X05529Y042846D01*
X055303Y04295D01*
Y043D01*
D02*
G37*
G36*
X05485D02*
X054497D01*
Y04295D01*
X05451Y042846D01*
X054551Y042748D01*
X054615Y042665D01*
X054698Y042601D01*
X054796Y04256D01*
X05485Y042553D01*
Y043D01*
D02*
G37*
G36*
X0403D02*
X03995D01*
Y04255D01*
X0403D01*
Y043D01*
D02*
G37*
G36*
X03985D02*
X0395D01*
Y04255D01*
X03985D01*
Y043D01*
D02*
G37*
G36*
X0489Y043553D02*
X048796Y04354D01*
X048698Y043499D01*
X048615Y043435D01*
X048551Y043352D01*
X04851Y043254D01*
X048497Y04315D01*
Y04295D01*
X04851Y042846D01*
X048551Y042748D01*
X048615Y042665D01*
X048698Y042601D01*
X048796Y04256D01*
X0489Y042547D01*
X049004Y04256D01*
X049102Y042601D01*
X049185Y042665D01*
X049249Y042748D01*
X04929Y042846D01*
X049303Y04295D01*
Y04315D01*
X04929Y043254D01*
X049249Y043352D01*
X049185Y043435D01*
X049102Y043499D01*
X049004Y04354D01*
X0489Y043553D01*
D02*
G37*
G36*
X0479D02*
X047796Y04354D01*
X047698Y043499D01*
X047615Y043435D01*
X047551Y043352D01*
X04751Y043254D01*
X047497Y04315D01*
Y04295D01*
X04751Y042846D01*
X047551Y042748D01*
X047615Y042665D01*
X047698Y042601D01*
X047796Y04256D01*
X0479Y042547D01*
X048004Y04256D01*
X048102Y042601D01*
X048185Y042665D01*
X048249Y042748D01*
X04829Y042846D01*
X048303Y04295D01*
Y04315D01*
X04829Y043254D01*
X048249Y043352D01*
X048185Y043435D01*
X048102Y043499D01*
X048004Y04354D01*
X0479Y043553D01*
D02*
G37*
G36*
X0469D02*
X046796Y04354D01*
X046698Y043499D01*
X046615Y043435D01*
X046551Y043352D01*
X04651Y043254D01*
X046497Y04315D01*
Y04295D01*
X04651Y042846D01*
X046551Y042748D01*
X046615Y042665D01*
X046698Y042601D01*
X046796Y04256D01*
X0469Y042547D01*
X047004Y04256D01*
X047102Y042601D01*
X047185Y042665D01*
X047249Y042748D01*
X04729Y042846D01*
X047303Y04295D01*
Y04315D01*
X04729Y043254D01*
X047249Y043352D01*
X047185Y043435D01*
X047102Y043499D01*
X047004Y04354D01*
X0469Y043553D01*
D02*
G37*
G36*
X0459D02*
X045796Y04354D01*
X045698Y043499D01*
X045615Y043435D01*
X045551Y043352D01*
X04551Y043254D01*
X045497Y04315D01*
Y04295D01*
X04551Y042846D01*
X045551Y042748D01*
X045615Y042665D01*
X045698Y042601D01*
X045796Y04256D01*
X0459Y042547D01*
X046004Y04256D01*
X046102Y042601D01*
X046185Y042665D01*
X046249Y042748D01*
X04629Y042846D01*
X046303Y04295D01*
Y04315D01*
X04629Y043254D01*
X046249Y043352D01*
X046185Y043435D01*
X046102Y043499D01*
X046004Y04354D01*
X0459Y043553D01*
D02*
G37*
G36*
X0449D02*
X044796Y04354D01*
X044698Y043499D01*
X044615Y043435D01*
X044551Y043352D01*
X04451Y043254D01*
X044497Y04315D01*
Y04295D01*
X04451Y042846D01*
X044551Y042748D01*
X044615Y042665D01*
X044698Y042601D01*
X044796Y04256D01*
X0449Y042547D01*
X045004Y04256D01*
X045102Y042601D01*
X045185Y042665D01*
X045249Y042748D01*
X04529Y042846D01*
X045303Y04295D01*
Y04315D01*
X04529Y043254D01*
X045249Y043352D01*
X045185Y043435D01*
X045102Y043499D01*
X045004Y04354D01*
X0449Y043553D01*
D02*
G37*
G36*
X0439D02*
X043796Y04354D01*
X043698Y043499D01*
X043615Y043435D01*
X043551Y043352D01*
X04351Y043254D01*
X043497Y04315D01*
Y04295D01*
X04351Y042846D01*
X043551Y042748D01*
X043615Y042665D01*
X043698Y042601D01*
X043796Y04256D01*
X0439Y042547D01*
X044004Y04256D01*
X044102Y042601D01*
X044185Y042665D01*
X044249Y042748D01*
X04429Y042846D01*
X044303Y04295D01*
Y04315D01*
X04429Y043254D01*
X044249Y043352D01*
X044185Y043435D01*
X044102Y043499D01*
X044004Y04354D01*
X0439Y043553D01*
D02*
G37*
G36*
X0429D02*
X042796Y04354D01*
X042698Y043499D01*
X042615Y043435D01*
X042551Y043352D01*
X04251Y043254D01*
X042497Y04315D01*
Y04295D01*
X04251Y042846D01*
X042551Y042748D01*
X042615Y042665D01*
X042698Y042601D01*
X042796Y04256D01*
X0429Y042547D01*
X043004Y04256D01*
X043102Y042601D01*
X043185Y042665D01*
X043249Y042748D01*
X04329Y042846D01*
X043303Y04295D01*
Y04315D01*
X04329Y043254D01*
X043249Y043352D01*
X043185Y043435D01*
X043102Y043499D01*
X043004Y04354D01*
X0429Y043553D01*
D02*
G37*
G36*
X0419D02*
X041796Y04354D01*
X041698Y043499D01*
X041615Y043435D01*
X041551Y043352D01*
X04151Y043254D01*
X041497Y04315D01*
Y04295D01*
X04151Y042846D01*
X041551Y042748D01*
X041615Y042665D01*
X041698Y042601D01*
X041796Y04256D01*
X0419Y042547D01*
X042004Y04256D01*
X042102Y042601D01*
X042185Y042665D01*
X042249Y042748D01*
X04229Y042846D01*
X042303Y04295D01*
Y04315D01*
X04229Y043254D01*
X042249Y043352D01*
X042185Y043435D01*
X042102Y043499D01*
X042004Y04354D01*
X0419Y043553D01*
D02*
G37*
G36*
X067321Y043642D02*
X067204D01*
X067089Y043619D01*
X066982Y043575D01*
X066885Y04351D01*
X066802Y043427D01*
X066737Y04333D01*
X066693Y043223D01*
X06667Y043108D01*
Y042992D01*
X066693Y042877D01*
X066737Y04277D01*
X066802Y042673D01*
X066885Y04259D01*
X066982Y042525D01*
X067089Y042481D01*
X067204Y042458D01*
X067321D01*
X067435Y042481D01*
X067543Y042525D01*
X06764Y04259D01*
X067722Y042673D01*
X067787Y04277D01*
X067832Y042877D01*
X067854Y042992D01*
Y043108D01*
X067832Y043223D01*
X067787Y04333D01*
X067722Y043427D01*
X06764Y04351D01*
X067543Y043575D01*
X067435Y043619D01*
X067321Y043642D01*
D02*
G37*
G36*
X037793D02*
X037676D01*
X037562Y043619D01*
X037454Y043575D01*
X037357Y04351D01*
X037275Y043427D01*
X03721Y04333D01*
X037165Y043223D01*
X037143Y043108D01*
Y042992D01*
X037165Y042877D01*
X03721Y04277D01*
X037275Y042673D01*
X037357Y04259D01*
X037454Y042525D01*
X037562Y042481D01*
X037676Y042458D01*
X037793D01*
X037907Y042481D01*
X038015Y042525D01*
X038112Y04259D01*
X038195Y042673D01*
X038259Y04277D01*
X038304Y042877D01*
X038327Y042992D01*
Y043108D01*
X038304Y043223D01*
X038259Y04333D01*
X038195Y043427D01*
X038112Y04351D01*
X038015Y043575D01*
X037907Y043619D01*
X037793Y043642D01*
D02*
G37*
G36*
X04605Y040247D02*
Y03985D01*
X046403D01*
X04639Y039954D01*
X046349Y040052D01*
X046285Y040135D01*
X046202Y040199D01*
X046104Y04024D01*
X04605Y040247D01*
D02*
G37*
G36*
X04505D02*
Y03985D01*
X045403D01*
X04539Y039954D01*
X045349Y040052D01*
X045285Y040135D01*
X045202Y040199D01*
X045104Y04024D01*
X04505Y040247D01*
D02*
G37*
G36*
X04595D02*
X045896Y04024D01*
X045798Y040199D01*
X045715Y040135D01*
X045651Y040052D01*
X04561Y039954D01*
X045597Y03985D01*
D01*
X04595D01*
Y040247D01*
D02*
G37*
G36*
X04495D02*
X044896Y04024D01*
X044798Y040199D01*
X044715Y040135D01*
X044651Y040052D01*
X04461Y039954D01*
X044597Y03985D01*
D01*
X04495D01*
Y040247D01*
D02*
G37*
G36*
X046403Y03975D02*
X04605D01*
Y039353D01*
X046104Y03936D01*
X046202Y039401D01*
X046285Y039465D01*
X046349Y039548D01*
X04639Y039646D01*
X046403Y03975D01*
D01*
D02*
G37*
G36*
X045403D02*
X04505D01*
Y039353D01*
X045104Y03936D01*
X045202Y039401D01*
X045285Y039465D01*
X045349Y039548D01*
X04539Y039646D01*
X045403Y03975D01*
D01*
D02*
G37*
G36*
X04595D02*
X045597D01*
X04561Y039646D01*
X045651Y039548D01*
X045715Y039465D01*
X045798Y039401D01*
X045896Y03936D01*
X04595Y039353D01*
Y03975D01*
D02*
G37*
G36*
X04495D02*
X044597D01*
X04461Y039646D01*
X044651Y039548D01*
X044715Y039465D01*
X044798Y039401D01*
X044896Y03936D01*
X04495Y039353D01*
Y03975D01*
D02*
G37*
G36*
X0494Y04025D02*
X0486D01*
Y03935D01*
X0494D01*
Y04025D01*
D02*
G37*
G36*
X0424D02*
X0416D01*
Y03935D01*
X0424D01*
Y04025D01*
D02*
G37*
G36*
X051Y040253D02*
X050896Y04024D01*
X050798Y040199D01*
X050715Y040135D01*
X050651Y040052D01*
X05061Y039954D01*
X050597Y03985D01*
Y03975D01*
X05061Y039646D01*
X050651Y039548D01*
X050715Y039465D01*
X050798Y039401D01*
X050896Y03936D01*
X051Y039347D01*
X051104Y03936D01*
X051202Y039401D01*
X051285Y039465D01*
X051349Y039548D01*
X05139Y039646D01*
X051403Y03975D01*
Y03985D01*
X05139Y039954D01*
X051349Y040052D01*
X051285Y040135D01*
X051202Y040199D01*
X051104Y04024D01*
X051Y040253D01*
D02*
G37*
G36*
X05D02*
X049896Y04024D01*
X049798Y040199D01*
X049715Y040135D01*
X049651Y040052D01*
X04961Y039954D01*
X049597Y03985D01*
Y03975D01*
X04961Y039646D01*
X049651Y039548D01*
X049715Y039465D01*
X049798Y039401D01*
X049896Y03936D01*
X05Y039347D01*
X050104Y03936D01*
X050202Y039401D01*
X050285Y039465D01*
X050349Y039548D01*
X05039Y039646D01*
X050403Y03975D01*
Y03985D01*
X05039Y039954D01*
X050349Y040052D01*
X050285Y040135D01*
X050202Y040199D01*
X050104Y04024D01*
X05Y040253D01*
D02*
G37*
G36*
X044D02*
X043896Y04024D01*
X043798Y040199D01*
X043715Y040135D01*
X043651Y040052D01*
X04361Y039954D01*
X043597Y03985D01*
Y03975D01*
X04361Y039646D01*
X043651Y039548D01*
X043715Y039465D01*
X043798Y039401D01*
X043896Y03936D01*
X044Y039347D01*
X044104Y03936D01*
X044202Y039401D01*
X044285Y039465D01*
X044349Y039548D01*
X04439Y039646D01*
X044403Y03975D01*
Y03985D01*
X04439Y039954D01*
X044349Y040052D01*
X044285Y040135D01*
X044202Y040199D01*
X044104Y04024D01*
X044Y040253D01*
D02*
G37*
G36*
X041D02*
X040896Y04024D01*
X040798Y040199D01*
X040715Y040135D01*
X040651Y040052D01*
X04061Y039954D01*
X040597Y03985D01*
Y03975D01*
X04061Y039646D01*
X040651Y039548D01*
X040715Y039465D01*
X040798Y039401D01*
X040896Y03936D01*
X041Y039347D01*
X041104Y03936D01*
X041202Y039401D01*
X041285Y039465D01*
X041349Y039548D01*
X04139Y039646D01*
X041403Y03975D01*
Y03985D01*
X04139Y039954D01*
X041349Y040052D01*
X041285Y040135D01*
X041202Y040199D01*
X041104Y04024D01*
X041Y040253D01*
D02*
G37*
G36*
X04D02*
X039896Y04024D01*
X039798Y040199D01*
X039715Y040135D01*
X039651Y040052D01*
X03961Y039954D01*
X039597Y03985D01*
Y03975D01*
X03961Y039646D01*
X039651Y039548D01*
X039715Y039465D01*
X039798Y039401D01*
X039896Y03936D01*
X04Y039347D01*
X040104Y03936D01*
X040202Y039401D01*
X040285Y039465D01*
X040349Y039548D01*
X04039Y039646D01*
X040403Y03975D01*
Y03985D01*
X04039Y039954D01*
X040349Y040052D01*
X040285Y040135D01*
X040202Y040199D01*
X040104Y04024D01*
X04Y040253D01*
D02*
G37*
G36*
X039D02*
X038896Y04024D01*
X038798Y040199D01*
X038715Y040135D01*
X038651Y040052D01*
X03861Y039954D01*
X038597Y03985D01*
Y03975D01*
X03861Y039646D01*
X038651Y039548D01*
X038715Y039465D01*
X038798Y039401D01*
X038896Y03936D01*
X039Y039347D01*
X039104Y03936D01*
X039202Y039401D01*
X039285Y039465D01*
X039349Y039548D01*
X03939Y039646D01*
X039403Y03975D01*
Y03985D01*
X03939Y039954D01*
X039349Y040052D01*
X039285Y040135D01*
X039202Y040199D01*
X039104Y04024D01*
X039Y040253D01*
D02*
G37*
G36*
X038D02*
X037896Y04024D01*
X037798Y040199D01*
X037715Y040135D01*
X037651Y040052D01*
X03761Y039954D01*
X037597Y03985D01*
Y03975D01*
X03761Y039646D01*
X037651Y039548D01*
X037715Y039465D01*
X037798Y039401D01*
X037896Y03936D01*
X038Y039347D01*
X038104Y03936D01*
X038202Y039401D01*
X038285Y039465D01*
X038349Y039548D01*
X03839Y039646D01*
X038403Y03975D01*
Y03985D01*
X03839Y039954D01*
X038349Y040052D01*
X038285Y040135D01*
X038202Y040199D01*
X038104Y04024D01*
X038Y040253D01*
D02*
G37*
G36*
X037D02*
X036896Y04024D01*
X036798Y040199D01*
X036715Y040135D01*
X036651Y040052D01*
X03661Y039954D01*
X036597Y03985D01*
Y03975D01*
X03661Y039646D01*
X036651Y039548D01*
X036715Y039465D01*
X036798Y039401D01*
X036896Y03936D01*
X037Y039347D01*
X037104Y03936D01*
X037202Y039401D01*
X037285Y039465D01*
X037349Y039548D01*
X03739Y039646D01*
X037403Y03975D01*
Y03985D01*
X03739Y039954D01*
X037349Y040052D01*
X037285Y040135D01*
X037202Y040199D01*
X037104Y04024D01*
X037Y040253D01*
D02*
G37*
G36*
X065966Y03785D02*
X06595D01*
Y0374D01*
X0664D01*
Y037416D01*
X066366Y037543D01*
X0663Y037657D01*
X066207Y03775D01*
X066093Y037816D01*
X065966Y03785D01*
D02*
G37*
G36*
X06585D02*
X065834D01*
X065707Y037816D01*
X065593Y03775D01*
X0655Y037657D01*
X065434Y037543D01*
X0654Y037416D01*
Y0374D01*
X06585D01*
Y03785D01*
D02*
G37*
G36*
X0664Y0373D02*
X06595D01*
Y03685D01*
X065966D01*
X066093Y036884D01*
X066207Y03695D01*
X0663Y037043D01*
X066366Y037157D01*
X0664Y037284D01*
Y0373D01*
D02*
G37*
G36*
X06585D02*
X0654D01*
Y037284D01*
X065434Y037157D01*
X0655Y037043D01*
X065593Y03695D01*
X065707Y036884D01*
X065834Y03685D01*
X06585D01*
Y0373D01*
D02*
G37*
G36*
X055787Y035669D02*
X055581D01*
X055501Y035653D01*
X055434Y035608D01*
X055389Y035541D01*
X05538Y035497D01*
X05522D01*
X055211Y035541D01*
X055166Y035608D01*
X055099Y035653D01*
X055019Y035669D01*
X054813D01*
X054733Y035653D01*
X054666Y035608D01*
X054621Y035541D01*
X054605Y035462D01*
Y035038D01*
X054621Y034959D01*
X054666Y034892D01*
X054707Y034738D01*
X054696Y034697D01*
X054675Y034645D01*
Y034555D01*
X054709Y034473D01*
X054763Y034419D01*
Y033329D01*
X054587Y033153D01*
X053223D01*
X053223Y033154D01*
X05317Y033246D01*
X053096Y03332D01*
X053004Y033373D01*
X052903Y0334D01*
X052797D01*
X052696Y033373D01*
X052604Y03332D01*
X05253Y033246D01*
X052477Y033154D01*
X05245Y033053D01*
Y032947D01*
X052477Y032846D01*
X05253Y032754D01*
X052604Y03268D01*
X052696Y032627D01*
X052797Y0326D01*
X052903D01*
X053004Y032627D01*
X053096Y03268D01*
X05317Y032754D01*
X053223Y032846D01*
X053223Y032847D01*
X05465D01*
X054709Y032859D01*
X054758Y032892D01*
X055024Y033158D01*
X055057Y033208D01*
X055069Y033266D01*
Y034451D01*
X055091Y034473D01*
X055125Y034555D01*
Y034645D01*
X055107Y034688D01*
X055103Y034761D01*
X055147Y034879D01*
X055166Y034892D01*
X055211Y034959D01*
X05522Y035003D01*
X05538D01*
X055389Y034959D01*
X055434Y034892D01*
X055501Y034847D01*
X055581Y034831D01*
X055787D01*
X055867Y034847D01*
X055934Y034892D01*
X055979Y034959D01*
X055995Y035038D01*
Y035462D01*
X055979Y035541D01*
X055934Y035608D01*
X055867Y035653D01*
X055787Y035669D01*
D02*
G37*
G36*
X049135Y034755D02*
X04873D01*
Y0346D01*
X049135D01*
Y034755D01*
D02*
G37*
G36*
X04863D02*
X048225D01*
Y0346D01*
X04863D01*
Y034755D01*
D02*
G37*
G36*
X051137Y034638D02*
X050968D01*
Y034391D01*
X051137D01*
Y034638D01*
D02*
G37*
G36*
X050869D02*
X0507D01*
Y034391D01*
X050869D01*
Y034638D01*
D02*
G37*
G36*
X055903Y0344D02*
X0559D01*
Y03405D01*
X05625D01*
Y034053D01*
X056223Y034154D01*
X05617Y034246D01*
X056096Y03432D01*
X056004Y034373D01*
X055903Y0344D01*
D02*
G37*
G36*
X0558D02*
X055797D01*
X055696Y034373D01*
X055604Y03432D01*
X05553Y034246D01*
X055477Y034154D01*
X05545Y034053D01*
Y03405D01*
X0558D01*
Y0344D01*
D02*
G37*
G36*
X05625Y03395D02*
X0559D01*
Y0336D01*
X055903D01*
X056004Y033627D01*
X056096Y03368D01*
X05617Y033754D01*
X056223Y033846D01*
X05625Y033947D01*
Y03395D01*
D02*
G37*
G36*
X0558D02*
X05545D01*
Y033947D01*
X055477Y033846D01*
X05553Y033754D01*
X055604Y03368D01*
X055696Y033627D01*
X055797Y0336D01*
X0558D01*
Y03395D01*
D02*
G37*
G36*
X0584Y03785D02*
X0574D01*
Y03685D01*
X057747D01*
Y033413D01*
X057487Y033153D01*
X056223D01*
X056223Y033154D01*
X05617Y033246D01*
X056096Y03332D01*
X056004Y033373D01*
X055903Y0334D01*
X055797D01*
X055696Y033373D01*
X055604Y03332D01*
X05553Y033246D01*
X055477Y033154D01*
X05545Y033053D01*
Y032947D01*
X055477Y032846D01*
X05553Y032754D01*
X055604Y03268D01*
X055696Y032627D01*
X055797Y0326D01*
X055903D01*
X056004Y032627D01*
X056096Y03268D01*
X05617Y032754D01*
X056223Y032846D01*
X056223Y032847D01*
X05755D01*
X057609Y032859D01*
X057658Y032892D01*
X058008Y033242D01*
X058041Y033291D01*
X058053Y03335D01*
Y03685D01*
X0584D01*
Y03785D01*
D02*
G37*
G36*
X052903Y0324D02*
X052797D01*
X052696Y032373D01*
X052604Y03232D01*
X05253Y032246D01*
X052477Y032154D01*
X05245Y032053D01*
Y031947D01*
X052477Y031846D01*
X05253Y031754D01*
X052604Y03168D01*
X052696Y031627D01*
X052797Y0316D01*
X052903D01*
X053004Y031627D01*
X053096Y03168D01*
X05317Y031754D01*
X053223Y031846D01*
X05325Y031947D01*
Y032053D01*
X053223Y032154D01*
X05317Y032246D01*
X053096Y03232D01*
X053004Y032373D01*
X052903Y0324D01*
D02*
G37*
G36*
X055903D02*
X055797D01*
X055696Y032373D01*
X055604Y03232D01*
X05553Y032246D01*
X055477Y032154D01*
X05545Y032053D01*
Y031947D01*
X055477Y031846D01*
X05553Y031754D01*
X055604Y03168D01*
X055696Y031627D01*
X055797Y0316D01*
X055903D01*
X056004Y031627D01*
X056096Y03168D01*
X05617Y031754D01*
X056223Y031846D01*
X056223Y031847D01*
X0579D01*
X057944Y031803D01*
Y031728D01*
X057968Y031638D01*
X058015Y031556D01*
X058081Y03149D01*
X058081Y03131D01*
X058015Y031244D01*
X057977Y031178D01*
X05625D01*
Y0314D01*
X05545D01*
Y0306D01*
X05625D01*
Y030872D01*
X057977D01*
X058015Y030806D01*
X058081Y03074D01*
X058163Y030693D01*
X058253Y030669D01*
X058347D01*
X058437Y030693D01*
X058519Y03074D01*
X058585Y030806D01*
X058632Y030888D01*
X058656Y030978D01*
Y031072D01*
X058632Y031162D01*
X058585Y031244D01*
X058519Y03131D01*
Y03149D01*
X058585Y031556D01*
X058632Y031638D01*
X058656Y031728D01*
Y031822D01*
X058632Y031912D01*
X058585Y031994D01*
X058519Y03206D01*
X058437Y032107D01*
X058347Y032131D01*
X058253D01*
X058163Y032107D01*
X058106Y032074D01*
X058072Y032108D01*
X058022Y032141D01*
X057964Y032153D01*
X056223D01*
X056223Y032154D01*
X05617Y032246D01*
X056096Y03232D01*
X056004Y032373D01*
X055903Y0324D01*
D02*
G37*
G36*
X067321Y031437D02*
X067204D01*
X067089Y031415D01*
X066982Y03137D01*
X066885Y031305D01*
X066802Y031223D01*
X066737Y031126D01*
X066693Y031018D01*
X06667Y030904D01*
Y030787D01*
X066693Y030673D01*
X066737Y030565D01*
X066802Y030468D01*
X066885Y030385D01*
X066982Y030321D01*
X067089Y030276D01*
X067204Y030253D01*
X067321D01*
X067435Y030276D01*
X067543Y030321D01*
X06764Y030385D01*
X067722Y030468D01*
X067787Y030565D01*
X067832Y030673D01*
X067854Y030787D01*
Y030904D01*
X067832Y031018D01*
X067787Y031126D01*
X067722Y031223D01*
X06764Y031305D01*
X067543Y03137D01*
X067435Y031415D01*
X067321Y031437D01*
D02*
G37*
G36*
X037793D02*
X037676D01*
X037562Y031415D01*
X037454Y03137D01*
X037357Y031305D01*
X037275Y031223D01*
X03721Y031126D01*
X037165Y031018D01*
X037143Y030904D01*
Y030787D01*
X037165Y030673D01*
X03721Y030565D01*
X037275Y030468D01*
X037357Y030385D01*
X037454Y030321D01*
X037562Y030276D01*
X037676Y030253D01*
X037793D01*
X037907Y030276D01*
X038015Y030321D01*
X038112Y030385D01*
X038195Y030468D01*
X038259Y030565D01*
X038304Y030673D01*
X038327Y030787D01*
Y030904D01*
X038304Y031018D01*
X038259Y031126D01*
X038195Y031223D01*
X038112Y031305D01*
X038015Y03137D01*
X037907Y031415D01*
X037793Y031437D01*
D02*
G37*
G36*
X043036Y029835D02*
X04275D01*
Y029549D01*
X043036D01*
Y029835D01*
D02*
G37*
G36*
X040377Y028207D02*
X040023D01*
X03995Y028197D01*
X039883Y028169D01*
X039825Y028125D01*
X039781Y028067D01*
X039753Y028D01*
X039743Y027927D01*
Y027573D01*
X039753Y0275D01*
X039781Y027433D01*
X039825Y027375D01*
X039883Y027331D01*
X03995Y027303D01*
X040023Y027293D01*
X040069D01*
Y027278D01*
X040081Y02722D01*
X040114Y02717D01*
X040392Y026892D01*
X040441Y026859D01*
X0405Y026847D01*
X043785D01*
X043823Y026809D01*
X043905Y026775D01*
X043995D01*
X044077Y026809D01*
X044115Y026847D01*
X049539D01*
X049611Y026799D01*
X049704Y02678D01*
X049979D01*
X050072Y026799D01*
X050151Y026851D01*
X050203Y02693D01*
X050222Y027023D01*
Y027377D01*
X050203Y02747D01*
X050196Y027481D01*
X050278Y027638D01*
X050822D01*
X050904Y027481D01*
X050897Y02747D01*
X050878Y027377D01*
Y027023D01*
X050897Y02693D01*
X050949Y026851D01*
X051028Y026799D01*
X051101Y026784D01*
Y026592D01*
X051Y026457D01*
X040454D01*
X040396Y026446D01*
X040346Y026412D01*
X040092Y026158D01*
X040059Y026109D01*
X040047Y02605D01*
Y025179D01*
X040025Y025173D01*
X039921Y025114D01*
X039836Y025029D01*
X039777Y024925D01*
X039746Y02481D01*
Y02469D01*
X039777Y024575D01*
X039836Y024471D01*
X039921Y024386D01*
X040025Y024327D01*
X04014Y024296D01*
X04026D01*
X040375Y024327D01*
X040479Y024386D01*
X040564Y024471D01*
X040623Y024575D01*
X040654Y02469D01*
Y02481D01*
X040623Y024925D01*
X040564Y025029D01*
X040479Y025114D01*
X040375Y025173D01*
X040353Y025179D01*
Y025987D01*
X040518Y026151D01*
X050937D01*
X051002Y026086D01*
X051032Y025941D01*
X051032D01*
Y025507D01*
X050874Y025442D01*
X050603Y025713D01*
X050553Y025747D01*
X050495Y025758D01*
X050359D01*
X050353Y025788D01*
X050308Y025855D01*
X050241Y0259D01*
X050162Y025916D01*
X049738D01*
X049659Y0259D01*
X049592Y025855D01*
X049547Y025788D01*
X049531Y025709D01*
Y025502D01*
X049547Y025423D01*
X049592Y025355D01*
X049659Y02531D01*
X049703Y025302D01*
Y025141D01*
X049659Y025132D01*
X049592Y025088D01*
X049547Y02502D01*
X049531Y024941D01*
Y024734D01*
X049547Y024655D01*
X049592Y024588D01*
X049659Y024543D01*
X049738Y024527D01*
X049797D01*
Y023313D01*
X048942Y022458D01*
X048909Y022409D01*
X048897Y02235D01*
Y0214D01*
X048909Y021341D01*
X048942Y021292D01*
X048945Y021282D01*
X048844Y021167D01*
X048802Y021199D01*
X048704Y02124D01*
X0486Y021253D01*
X048496Y02124D01*
X048398Y021199D01*
X048315Y021135D01*
X048251Y021052D01*
X04821Y020954D01*
X048197Y02085D01*
Y02075D01*
X04821Y020646D01*
X048251Y020548D01*
X048315Y020465D01*
X048398Y020401D01*
X048496Y02036D01*
X0486Y020347D01*
X048704Y02036D01*
X048802Y020401D01*
X048885Y020465D01*
X048949Y020548D01*
X04899Y020646D01*
X049003Y02075D01*
Y02085D01*
X04899Y020954D01*
X048949Y021052D01*
X048917Y021094D01*
X049035Y021198D01*
X04923Y021003D01*
X04921Y020954D01*
X049197Y02085D01*
Y02075D01*
X04921Y020646D01*
X049251Y020548D01*
X049315Y020465D01*
X049398Y020401D01*
X049496Y02036D01*
X049511Y020339D01*
X049559Y020193D01*
X049513Y020112D01*
X049475Y019972D01*
Y01995D01*
X050025D01*
Y0199D01*
D01*
Y01995D01*
X050575D01*
Y019972D01*
X050538Y020112D01*
X050485Y020203D01*
X050533Y020307D01*
X050576Y02035D01*
X0506Y020347D01*
X050704Y02036D01*
X050802Y020401D01*
X050885Y020465D01*
X050949Y020548D01*
X05099Y020646D01*
X051003Y02075D01*
Y02085D01*
X05099Y020954D01*
X050949Y021052D01*
X050885Y021135D01*
X050802Y021199D01*
X050704Y02124D01*
X0506Y021253D01*
X050496Y02124D01*
X050398Y021199D01*
X050315Y021135D01*
X050251Y021052D01*
X05021Y020954D01*
X050197Y02085D01*
Y02075D01*
X05021Y020646D01*
X050198Y020614D01*
X050098Y020511D01*
X050086Y020513D01*
X04999Y020646D01*
X050003Y02075D01*
Y02085D01*
X04999Y020954D01*
X049949Y021052D01*
X049885Y021135D01*
X049802Y021199D01*
X049704Y02124D01*
X0496Y021253D01*
X049496Y02124D01*
X049447Y021219D01*
X049203Y021463D01*
Y022287D01*
X050058Y023142D01*
X050091Y023191D01*
X050103Y02325D01*
Y024527D01*
X050162D01*
X050241Y024543D01*
X050308Y024588D01*
X050353Y024655D01*
X050369Y024734D01*
Y024941D01*
X050353Y02502D01*
X050308Y025088D01*
X050241Y025132D01*
X050197Y025141D01*
Y025302D01*
X050241Y02531D01*
X050308Y025355D01*
X050312Y025361D01*
X050484Y025387D01*
X050501Y025382D01*
X050598Y025286D01*
X050658Y025153D01*
Y024559D01*
X051094D01*
Y025153D01*
X051094D01*
X051108Y025305D01*
X051146Y025344D01*
X051153Y025347D01*
X051468D01*
Y025941D01*
X051407D01*
Y02605D01*
Y026783D01*
X051489Y026799D01*
X051568Y026851D01*
X05162Y02693D01*
X051639Y027023D01*
Y027377D01*
X05162Y02747D01*
X051613Y027481D01*
X051695Y027638D01*
X052239D01*
X052247Y027601D01*
X052292Y027534D01*
X052359Y027489D01*
X052403Y02748D01*
Y02732D01*
X052359Y027311D01*
X052292Y027266D01*
X052247Y027199D01*
X052231Y027119D01*
Y026913D01*
X052247Y026833D01*
X052292Y026766D01*
X052359Y026721D01*
X052438Y026705D01*
X052497D01*
Y026473D01*
X052459Y026436D01*
X052425Y026353D01*
Y026263D01*
X052459Y026181D01*
X052497Y026143D01*
Y025911D01*
X052438D01*
X052359Y025895D01*
X052292Y02585D01*
X052247Y025783D01*
X052231Y025703D01*
Y025497D01*
X052247Y025417D01*
X052292Y02535D01*
X052359Y025305D01*
X052403Y025296D01*
Y025136D01*
X052359Y025127D01*
X052292Y025082D01*
X052247Y025015D01*
X052231Y024936D01*
Y024882D01*
X05265D01*
Y024832D01*
X0527D01*
Y024522D01*
X052862D01*
X052941Y024537D01*
X053008Y024582D01*
X053053Y02465D01*
X053054Y024652D01*
X053214D01*
X053215Y02465D01*
X05326Y024582D01*
X053327Y024537D01*
X053406Y024522D01*
X053568D01*
Y024832D01*
X053668D01*
Y024522D01*
X053829D01*
X053909Y024537D01*
X053976Y024582D01*
X054021Y02465D01*
X054021Y024652D01*
X054182D01*
X054182Y02465D01*
X054227Y024582D01*
X054294Y024537D01*
X054374Y024522D01*
X054535D01*
Y024832D01*
X054585D01*
Y024882D01*
X055004D01*
Y024936D01*
X054989Y025015D01*
X054944Y025082D01*
X054876Y025127D01*
X054833Y025136D01*
Y025296D01*
X054876Y025305D01*
X054944Y02535D01*
X054989Y025417D01*
X055004Y025497D01*
Y025703D01*
X054989Y025783D01*
X054944Y02585D01*
X054876Y025895D01*
X054797Y025911D01*
X054738D01*
Y026143D01*
X054776Y026181D01*
X05481Y026263D01*
Y026353D01*
X054776Y026436D01*
X054738Y026473D01*
Y026705D01*
X054797D01*
X054876Y026721D01*
X054944Y026766D01*
X054989Y026833D01*
X055004Y026913D01*
Y027119D01*
X054989Y027199D01*
X054944Y027266D01*
X054876Y027311D01*
X054833Y02732D01*
Y02748D01*
X054876Y027489D01*
X054944Y027534D01*
X054989Y027601D01*
X054995Y027631D01*
X06421D01*
X064242Y027584D01*
X064309Y027539D01*
X064353Y02753D01*
Y02737D01*
X064309Y027361D01*
X064242Y027316D01*
X064197Y027249D01*
X064191Y027219D01*
X057666D01*
X057608Y027207D01*
X057558Y027174D01*
X056942Y026558D01*
X056909Y026509D01*
X056897Y02645D01*
Y019513D01*
X056387Y019003D01*
X042963D01*
X041652Y020315D01*
X041756Y020433D01*
X041798Y020401D01*
X041896Y02036D01*
X042Y020347D01*
X042104Y02036D01*
X042202Y020401D01*
X042285Y020465D01*
X042349Y020548D01*
X04239Y020646D01*
X042403Y02075D01*
Y02085D01*
X04239Y020954D01*
X042349Y021052D01*
X042285Y021135D01*
X042202Y021199D01*
X042104Y02124D01*
X042Y021253D01*
X041896Y02124D01*
X041798Y021199D01*
X041715Y021135D01*
X041651Y021052D01*
X04161Y020954D01*
X041597Y02085D01*
Y02075D01*
X04161Y020646D01*
X041651Y020548D01*
X041683Y020506D01*
X041565Y020402D01*
X04137Y020597D01*
X04139Y020646D01*
X041403Y02075D01*
Y02085D01*
X04139Y020954D01*
X041349Y021052D01*
X041285Y021135D01*
X041202Y021199D01*
X041104Y02124D01*
X041026Y02125D01*
X040994Y021318D01*
X040985Y021408D01*
X040988Y02141D01*
X04109Y021512D01*
X041163Y021638D01*
X0412Y021778D01*
Y021922D01*
X041163Y022062D01*
X04109Y022188D01*
X040988Y02229D01*
X040862Y022363D01*
X040722Y0224D01*
X040578D01*
X040438Y022363D01*
X040312Y02229D01*
X04021Y022188D01*
X040137Y022062D01*
X0401Y021922D01*
Y021778D01*
X040137Y021638D01*
X04021Y021512D01*
X040312Y02141D01*
X040438Y021337D01*
X040578Y0213D01*
X040671D01*
X040726Y021144D01*
X040715Y021135D01*
X040651Y021052D01*
X04061Y020954D01*
X040597Y02085D01*
Y02075D01*
X04061Y020646D01*
X040651Y020548D01*
X040578Y0204D01*
X040438Y020363D01*
X040427Y020357D01*
X040284Y020456D01*
X040285Y020465D01*
X040315Y020504D01*
X040349Y020548D01*
X04039Y020646D01*
X040403Y02075D01*
Y02085D01*
X04039Y020954D01*
X040349Y021052D01*
X040285Y021135D01*
X040202Y021199D01*
X040104Y02124D01*
X04Y021253D01*
X039896Y02124D01*
X039798Y021199D01*
X039715Y021135D01*
X039651Y021052D01*
X03961Y020954D01*
X039597Y02085D01*
Y02075D01*
X03961Y020646D01*
X039651Y020548D01*
X039715Y020465D01*
X039798Y020401D01*
X039896Y02036D01*
X04Y020347D01*
X040104Y02036D01*
X040202Y020401D01*
X040202D01*
X040128Y02037D01*
X04022Y020378D01*
X040264Y020321D01*
X04025Y020228D01*
X04021Y020188D01*
X040137Y020062D01*
X0401Y019922D01*
Y0199D01*
X04065D01*
X0412D01*
Y019922D01*
X041163Y020062D01*
X04115Y020084D01*
X0412Y020264D01*
X041213Y020277D01*
X04126Y020274D01*
X042792Y018742D01*
X042841Y018709D01*
X0429Y018697D01*
X05645D01*
X056509Y018709D01*
X056558Y018742D01*
X057158Y019342D01*
X057191Y019391D01*
X057203Y01945D01*
Y026387D01*
X057729Y026913D01*
X064191D01*
X064197Y026883D01*
X064242Y026816D01*
X064309Y026771D01*
X064388Y026755D01*
X064812D01*
X064891Y026771D01*
X064958Y026816D01*
X064961Y02682D01*
X065137Y02684D01*
X065147Y026837D01*
X065542Y026442D01*
X065591Y026409D01*
X06565Y026397D01*
X066532D01*
X066584Y026307D01*
X066657Y026234D01*
X066747Y026182D01*
X066848Y026155D01*
X066952D01*
X067053Y026182D01*
X067143Y026234D01*
X067216Y026307D01*
X067268Y026397D01*
X067295Y026498D01*
Y026602D01*
X067268Y026703D01*
X067216Y026793D01*
X067143Y026866D01*
X067053Y026918D01*
X066952Y026945D01*
X066848D01*
X066747Y026918D01*
X066657Y026866D01*
X066584Y026793D01*
X066532Y026703D01*
X065713D01*
X065258Y027158D01*
X065209Y027191D01*
X06515Y027203D01*
X065012D01*
X065003Y027249D01*
X064958Y027316D01*
X064891Y027361D01*
X064847Y02737D01*
Y02753D01*
X064891Y027539D01*
X064958Y027584D01*
X06499Y027631D01*
X065303D01*
X065492Y027442D01*
X065541Y027409D01*
X0656Y027397D01*
X066501D01*
X066519Y027306D01*
X066574Y027224D01*
X066656Y027169D01*
X066752Y02715D01*
X067048D01*
X067144Y027169D01*
X067226Y027224D01*
X067281Y027306D01*
X0673Y027402D01*
Y027698D01*
X067281Y027794D01*
X067226Y027876D01*
X067144Y027931D01*
X067048Y02795D01*
X066752D01*
X066656Y027931D01*
X066574Y027876D01*
X066519Y027794D01*
X066501Y027703D01*
X065663D01*
X065474Y027892D01*
X065425Y027925D01*
X065366Y027937D01*
X065019D01*
Y027937D01*
X065003Y028017D01*
X064958Y028084D01*
X064891Y028129D01*
X064812Y028145D01*
X064388D01*
X064309Y028129D01*
X064242Y028084D01*
X064197Y028017D01*
X064181Y027937D01*
Y027937D01*
X054995D01*
X054989Y027967D01*
X054944Y028034D01*
X054876Y028079D01*
X054797Y028095D01*
X054374D01*
X054294Y028079D01*
X054227Y028034D01*
X054182Y027967D01*
X054176Y027937D01*
X054027D01*
X054021Y027967D01*
X053976Y028034D01*
X053909Y028079D01*
X053829Y028095D01*
X053406D01*
X053327Y028079D01*
X05326Y028034D01*
X053215Y027967D01*
X053209Y027937D01*
X053059D01*
X053053Y027967D01*
X053008Y028034D01*
X052941Y028079D01*
X052862Y028095D01*
X052438D01*
X052359Y028079D01*
X052292Y028034D01*
X052247Y027967D01*
X052242Y027944D01*
X050041D01*
X049983Y027933D01*
X049933Y027899D01*
X049748Y027715D01*
X049715Y027665D01*
X049706Y02762D01*
X049704D01*
X049611Y027601D01*
X049532Y027549D01*
X04948Y02747D01*
X049461Y027377D01*
Y027153D01*
X044115D01*
X044077Y027191D01*
X043995Y027225D01*
X043905D01*
X043823Y027191D01*
X043785Y027153D01*
X040673D01*
X040556Y027308D01*
X040569Y02737D01*
X040575Y027375D01*
X040619Y027433D01*
X040647Y0275D01*
X040657Y027573D01*
Y027927D01*
X040647Y028D01*
X040619Y028067D01*
X040575Y028125D01*
X040517Y028169D01*
X04045Y028197D01*
X040377Y028207D01*
D02*
G37*
G36*
X066952Y025945D02*
X06695D01*
Y0256D01*
X067295D01*
Y025602D01*
X067268Y025703D01*
X067216Y025793D01*
X067143Y025866D01*
X067053Y025918D01*
X066952Y025945D01*
D02*
G37*
G36*
X06685D02*
X066848D01*
X066747Y025918D01*
X066657Y025866D01*
X066584Y025793D01*
X066532Y025703D01*
X066505Y025602D01*
Y0256D01*
X06685D01*
Y025945D01*
D02*
G37*
G36*
X067295Y0255D02*
X06695D01*
Y025155D01*
X066952D01*
X067053Y025182D01*
X067143Y025234D01*
X067216Y025307D01*
X067268Y025397D01*
X067295Y025498D01*
Y0255D01*
D02*
G37*
G36*
X06685D02*
X066505D01*
Y025498D01*
X066532Y025397D01*
X066584Y025307D01*
X066657Y025234D01*
X066747Y025182D01*
X066848Y025155D01*
X06685D01*
Y0255D01*
D02*
G37*
G36*
X051842Y025153D02*
X051674D01*
Y024906D01*
X051842D01*
Y025153D01*
D02*
G37*
G36*
X051574D02*
X051406D01*
Y024906D01*
X051574D01*
Y025153D01*
D02*
G37*
G36*
X051842Y024806D02*
X051674D01*
Y024559D01*
X051842D01*
Y024806D01*
D02*
G37*
G36*
X051574D02*
X051406D01*
Y024559D01*
X051574D01*
Y024806D01*
D02*
G37*
G36*
X055004Y024782D02*
X054635D01*
Y024522D01*
X054797D01*
X054876Y024537D01*
X054944Y024582D01*
X054989Y02465D01*
X055004Y024729D01*
Y024782D01*
D02*
G37*
G36*
X0526D02*
X052231D01*
Y024729D01*
X052247Y02465D01*
X052292Y024582D01*
X052359Y024537D01*
X052438Y024522D01*
X0526D01*
Y024782D01*
D02*
G37*
G36*
X055395Y024125D02*
X055305D01*
X055223Y024091D01*
X055185Y024053D01*
X05405D01*
X053991Y024041D01*
X053942Y024008D01*
X052992Y023058D01*
X052959Y023009D01*
X052947Y02295D01*
Y02135D01*
X052959Y021291D01*
X05296Y021277D01*
X052814Y02119D01*
X052802Y021199D01*
X052704Y02124D01*
X0526Y021253D01*
X052496Y02124D01*
X052398Y021199D01*
X052315Y021135D01*
X052251Y021052D01*
X05221Y020954D01*
X052197Y02085D01*
Y02075D01*
X05221Y020646D01*
X052251Y020548D01*
X052315Y020465D01*
X052398Y020401D01*
X052496Y02036D01*
X0526Y020347D01*
X052704Y02036D01*
X052802Y020401D01*
X052885Y020465D01*
X052949Y020548D01*
X05299Y020646D01*
X053003Y02075D01*
Y02085D01*
X05299Y020954D01*
X052949Y021052D01*
X052949Y021062D01*
X053103Y021131D01*
X053231Y021003D01*
X05321Y020954D01*
X053197Y02085D01*
Y02075D01*
X05321Y020646D01*
X053251Y020548D01*
X053315Y020465D01*
X053398Y020401D01*
X053496Y02036D01*
X0536Y020347D01*
X053704Y02036D01*
X053802Y020401D01*
X053885Y020465D01*
X053949Y020548D01*
X05399Y020646D01*
X054003Y02075D01*
Y02085D01*
X05399Y020954D01*
X053949Y021052D01*
X053917Y021094D01*
X054035Y021198D01*
X05423Y021003D01*
X05421Y020954D01*
X054197Y02085D01*
Y02075D01*
X05421Y020646D01*
X054251Y020548D01*
X054315Y020465D01*
X054398Y020401D01*
X054496Y02036D01*
X054511Y020339D01*
X054559Y020193D01*
X054513Y020112D01*
X054475Y019972D01*
Y01995D01*
X055025D01*
X055575D01*
Y019972D01*
X055538Y020112D01*
X055465Y020238D01*
X055363Y02034D01*
X055237Y020413D01*
X055098Y02045D01*
X055072D01*
X055046Y020472D01*
X054974Y020607D01*
X05499Y020646D01*
X055003Y02075D01*
Y02085D01*
X05499Y020954D01*
X054949Y021052D01*
X054885Y021135D01*
X054802Y021199D01*
X054704Y02124D01*
X0546Y021253D01*
X054496Y02124D01*
X054447Y021219D01*
X054003Y021663D01*
Y022537D01*
X054663Y023197D01*
X055585D01*
X055623Y023159D01*
X055705Y023125D01*
X055795D01*
X055877Y023159D01*
X055941Y023223D01*
X055975Y023305D01*
Y023395D01*
X055941Y023477D01*
X055877Y023541D01*
X055795Y023575D01*
X055705D01*
X055623Y023541D01*
X055585Y023503D01*
X0546D01*
X054541Y023491D01*
X054492Y023458D01*
X053742Y022708D01*
X053709Y022659D01*
X053697Y0226D01*
Y0216D01*
X053709Y021541D01*
X053742Y021492D01*
X053948Y021285D01*
X053844Y021167D01*
X053802Y021199D01*
X053704Y02124D01*
X0536Y021253D01*
X053496Y02124D01*
X053447Y021219D01*
X053253Y021413D01*
Y022887D01*
X054113Y023747D01*
X055185D01*
X055223Y023709D01*
X055305Y023675D01*
X055395D01*
X055477Y023709D01*
X055541Y023773D01*
X055575Y023855D01*
Y023945D01*
X055541Y024027D01*
X055477Y024091D01*
X055395Y024125D01*
D02*
G37*
G36*
X055098Y02245D02*
X054953D01*
X054813Y022413D01*
X054687Y02234D01*
X054585Y022238D01*
X054513Y022112D01*
X054475Y021972D01*
Y021828D01*
X054513Y021688D01*
X054585Y021562D01*
X054687Y02146D01*
X054813Y021387D01*
X054953Y02135D01*
X055098D01*
X055237Y021387D01*
X055363Y02146D01*
X055465Y021562D01*
X055538Y021688D01*
X055575Y021828D01*
Y021972D01*
X055538Y022112D01*
X055465Y022238D01*
X055363Y02234D01*
X055237Y022413D01*
X055098Y02245D01*
D02*
G37*
G36*
X050098D02*
X049953D01*
X049813Y022413D01*
X049687Y02234D01*
X049585Y022238D01*
X049513Y022112D01*
X049475Y021972D01*
Y021828D01*
X049513Y021688D01*
X049585Y021562D01*
X049687Y02146D01*
X049813Y021387D01*
X049953Y02135D01*
X050098D01*
X050237Y021387D01*
X050363Y02146D01*
X050465Y021562D01*
X050538Y021688D01*
X050575Y021828D01*
Y021972D01*
X050538Y022112D01*
X050465Y022238D01*
X050363Y02234D01*
X050237Y022413D01*
X050098Y02245D01*
D02*
G37*
G36*
X064472Y0224D02*
X064328D01*
X064188Y022363D01*
X064062Y02229D01*
X06396Y022188D01*
X063887Y022062D01*
X06385Y021922D01*
Y021778D01*
X063887Y021638D01*
X06396Y021512D01*
X064062Y02141D01*
X064188Y021337D01*
X064328Y0213D01*
X064472D01*
X064612Y021337D01*
X064738Y02141D01*
X06484Y021512D01*
X064913Y021638D01*
X06495Y021778D01*
Y021922D01*
X064913Y022062D01*
X06484Y022188D01*
X064738Y02229D01*
X064612Y022363D01*
X064472Y0224D01*
D02*
G37*
G36*
X059472D02*
X059328D01*
X059188Y022363D01*
X059062Y02229D01*
X05896Y022188D01*
X058887Y022062D01*
X05885Y021922D01*
Y021778D01*
X058887Y021638D01*
X05896Y021512D01*
X059062Y02141D01*
X059188Y021337D01*
X059328Y0213D01*
X059472D01*
X059612Y021337D01*
X059738Y02141D01*
X05984Y021512D01*
X059913Y021638D01*
X05995Y021778D01*
Y021922D01*
X059913Y022062D01*
X05984Y022188D01*
X059738Y02229D01*
X059612Y022363D01*
X059472Y0224D01*
D02*
G37*
G36*
X05165Y021247D02*
Y02085D01*
X052003D01*
X05199Y020954D01*
X051949Y021052D01*
X051885Y021135D01*
X051802Y021199D01*
X051704Y02124D01*
X05165Y021247D01*
D02*
G37*
G36*
X05155D02*
X051496Y02124D01*
X051398Y021199D01*
X051315Y021135D01*
X051251Y021052D01*
X05121Y020954D01*
X051197Y02085D01*
D01*
X05155D01*
Y021247D01*
D02*
G37*
G36*
X052003Y02075D02*
X05165D01*
Y020353D01*
X051704Y02036D01*
X051802Y020401D01*
X051885Y020465D01*
X051949Y020548D01*
X05199Y020646D01*
X052003Y02075D01*
D01*
D02*
G37*
G36*
X05155D02*
X051197D01*
X05121Y020646D01*
X051251Y020548D01*
X051315Y020465D01*
X051398Y020401D01*
X051496Y02036D01*
X05155Y020353D01*
Y02075D01*
D02*
G37*
G36*
X045722Y0224D02*
X045578D01*
X045438Y022363D01*
X045312Y02229D01*
X04521Y022188D01*
X045137Y022062D01*
X0451Y021922D01*
Y021778D01*
X045137Y021638D01*
X04521Y021512D01*
X045312Y02141D01*
X045316Y021407D01*
X045274Y02125D01*
X0452D01*
Y02035D01*
X0452D01*
X045215Y020193D01*
X04521Y020188D01*
X045137Y020062D01*
X0451Y019922D01*
Y0199D01*
X04565D01*
X0462D01*
Y019922D01*
X046163Y020062D01*
X04609Y020188D01*
X04606Y020217D01*
X046Y02035D01*
Y021235D01*
X046Y02125D01*
X045984Y021407D01*
X045988Y02141D01*
X04609Y021512D01*
X046163Y021638D01*
X0462Y021778D01*
Y021922D01*
X046163Y022062D01*
X04609Y022188D01*
X045988Y02229D01*
X045862Y022363D01*
X045722Y0224D01*
D02*
G37*
G36*
X0374Y02125D02*
X0366D01*
Y02035D01*
X0374D01*
Y02125D01*
D02*
G37*
G36*
X0476Y021253D02*
X047496Y02124D01*
X047398Y021199D01*
X047315Y021135D01*
X047251Y021052D01*
X04721Y020954D01*
X047197Y02085D01*
Y02075D01*
X04721Y020646D01*
X047251Y020548D01*
X047315Y020465D01*
X047398Y020401D01*
X047496Y02036D01*
X0476Y020347D01*
X047704Y02036D01*
X047802Y020401D01*
X047885Y020465D01*
X047949Y020548D01*
X04799Y020646D01*
X048003Y02075D01*
Y02085D01*
X04799Y020954D01*
X047949Y021052D01*
X047885Y021135D01*
X047802Y021199D01*
X047704Y02124D01*
X0476Y021253D01*
D02*
G37*
G36*
X0466D02*
X046496Y02124D01*
X046398Y021199D01*
X046315Y021135D01*
X046251Y021052D01*
X04621Y020954D01*
X046197Y02085D01*
Y02075D01*
X04621Y020646D01*
X046251Y020548D01*
X046315Y020465D01*
X046398Y020401D01*
X046496Y02036D01*
X0466Y020347D01*
X046704Y02036D01*
X046802Y020401D01*
X046885Y020465D01*
X046949Y020548D01*
X04699Y020646D01*
X047003Y02075D01*
Y02085D01*
X04699Y020954D01*
X046949Y021052D01*
X046885Y021135D01*
X046802Y021199D01*
X046704Y02124D01*
X0466Y021253D01*
D02*
G37*
G36*
X044D02*
X043896Y02124D01*
X043798Y021199D01*
X043715Y021135D01*
X043651Y021052D01*
X04361Y020954D01*
X043597Y02085D01*
Y02075D01*
X04361Y020646D01*
X043651Y020548D01*
X043715Y020465D01*
X043798Y020401D01*
X043896Y02036D01*
X044Y020347D01*
X044104Y02036D01*
X044202Y020401D01*
X044285Y020465D01*
X044349Y020548D01*
X04439Y020646D01*
X044403Y02075D01*
Y02085D01*
X04439Y020954D01*
X044349Y021052D01*
X044285Y021135D01*
X044202Y021199D01*
X044104Y02124D01*
X044Y021253D01*
D02*
G37*
G36*
X043D02*
X042896Y02124D01*
X042798Y021199D01*
X042715Y021135D01*
X042651Y021052D01*
X04261Y020954D01*
X042597Y02085D01*
Y02075D01*
X04261Y020646D01*
X042651Y020548D01*
X042715Y020465D01*
X042798Y020401D01*
X042896Y02036D01*
X043Y020347D01*
X043104Y02036D01*
X043202Y020401D01*
X043285Y020465D01*
X043349Y020548D01*
X04339Y020646D01*
X043403Y02075D01*
Y02085D01*
X04339Y020954D01*
X043349Y021052D01*
X043285Y021135D01*
X043202Y021199D01*
X043104Y02124D01*
X043Y021253D01*
D02*
G37*
G36*
X039D02*
X038896Y02124D01*
X038798Y021199D01*
X038715Y021135D01*
X038651Y021052D01*
X03861Y020954D01*
X038597Y02085D01*
Y02075D01*
X03861Y020646D01*
X038651Y020548D01*
X038715Y020465D01*
X038798Y020401D01*
X038896Y02036D01*
X039Y020347D01*
X039104Y02036D01*
X039202Y020401D01*
X039285Y020465D01*
X039349Y020548D01*
X03939Y020646D01*
X039403Y02075D01*
Y02085D01*
X03939Y020954D01*
X039349Y021052D01*
X039285Y021135D01*
X039202Y021199D01*
X039104Y02124D01*
X039Y021253D01*
D02*
G37*
G36*
X038D02*
X037896Y02124D01*
X037798Y021199D01*
X037715Y021135D01*
X037651Y021052D01*
X03761Y020954D01*
X037597Y02085D01*
Y02075D01*
X03761Y020646D01*
X037651Y020548D01*
X037715Y020465D01*
X037798Y020401D01*
X037896Y02036D01*
X038Y020347D01*
X038104Y02036D01*
X038202Y020401D01*
X038285Y020465D01*
X038349Y020548D01*
X03839Y020646D01*
X038403Y02075D01*
Y02085D01*
X03839Y020954D01*
X038349Y021052D01*
X038285Y021135D01*
X038202Y021199D01*
X038104Y02124D01*
X038Y021253D01*
D02*
G37*
G36*
X064472Y0204D02*
X06445D01*
Y0199D01*
X06495D01*
Y019922D01*
X064913Y020062D01*
X06484Y020188D01*
X064738Y02029D01*
X064612Y020363D01*
X064472Y0204D01*
D02*
G37*
G36*
X059472D02*
X05945D01*
Y0199D01*
X05995D01*
Y019922D01*
X059913Y020062D01*
X05984Y020188D01*
X059738Y02029D01*
X059612Y020363D01*
X059472Y0204D01*
D02*
G37*
G36*
X05935D02*
X059328D01*
X059188Y020363D01*
X059062Y02029D01*
X05896Y020188D01*
X058887Y020062D01*
X05885Y019922D01*
Y0199D01*
X05935D01*
Y0204D01*
D02*
G37*
G36*
X06435D02*
X064328D01*
X064188Y020363D01*
X064062Y02029D01*
X06396Y020188D01*
X063887Y020062D01*
X06385Y019922D01*
Y0199D01*
X06435D01*
Y0204D01*
D02*
G37*
G36*
X055575Y01985D02*
X055075D01*
Y01935D01*
X055098D01*
X055237Y019387D01*
X055363Y01946D01*
X055465Y019562D01*
X055538Y019688D01*
X055575Y019828D01*
Y01985D01*
D02*
G37*
G36*
X054975D02*
X054475D01*
Y019828D01*
X054513Y019688D01*
X054585Y019562D01*
X054687Y01946D01*
X054813Y019387D01*
X054953Y01935D01*
X054975D01*
Y01985D01*
D02*
G37*
G36*
X050575D02*
X050075D01*
Y01935D01*
X050098D01*
X050237Y019387D01*
X050363Y01946D01*
X050465Y019562D01*
X050538Y019688D01*
X050575Y019828D01*
Y01985D01*
D02*
G37*
G36*
X049975D02*
X049475D01*
Y019828D01*
X049513Y019688D01*
X049585Y019562D01*
X049687Y01946D01*
X049813Y019387D01*
X049953Y01935D01*
X049975D01*
Y01985D01*
D02*
G37*
G36*
X06495Y0198D02*
X06445D01*
Y0193D01*
X064472D01*
X064612Y019337D01*
X064738Y01941D01*
X06484Y019512D01*
X064913Y019638D01*
X06495Y019778D01*
Y0198D01*
D02*
G37*
G36*
X06435D02*
X06385D01*
Y019778D01*
X063887Y019638D01*
X06396Y019512D01*
X064062Y01941D01*
X064188Y019337D01*
X064328Y0193D01*
X06435D01*
Y0198D01*
D02*
G37*
G36*
X05995D02*
X05945D01*
Y0193D01*
X059472D01*
X059612Y019337D01*
X059738Y01941D01*
X05984Y019512D01*
X059913Y019638D01*
X05995Y019778D01*
Y0198D01*
D02*
G37*
G36*
X05935D02*
X05885D01*
Y019778D01*
X058887Y019638D01*
X05896Y019512D01*
X059062Y01941D01*
X059188Y019337D01*
X059328Y0193D01*
X05935D01*
Y0198D01*
D02*
G37*
G36*
X0462D02*
X0457D01*
Y0193D01*
X045722D01*
X045862Y019337D01*
X045988Y01941D01*
X04609Y019512D01*
X046163Y019638D01*
X0462Y019778D01*
Y0198D01*
D02*
G37*
G36*
X0456D02*
X0451D01*
Y019778D01*
X045137Y019638D01*
X04521Y019512D01*
X045312Y01941D01*
X045438Y019337D01*
X045578Y0193D01*
X0456D01*
Y0198D01*
D02*
G37*
G36*
X0412D02*
X0407D01*
Y0193D01*
X040722D01*
X040862Y019337D01*
X040988Y01941D01*
X04109Y019512D01*
X041163Y019638D01*
X0412Y019778D01*
Y0198D01*
D02*
G37*
G36*
X0406D02*
X0401D01*
Y019778D01*
X040137Y019638D01*
X04021Y019512D01*
X040312Y01941D01*
X040438Y019337D01*
X040578Y0193D01*
X0406D01*
Y0198D01*
D02*
G37*
G36*
X067472Y01893D02*
X067328D01*
X067187Y018902D01*
X067054Y018847D01*
X066935Y018767D01*
X066833Y018665D01*
X066753Y018546D01*
X066698Y018413D01*
X06667Y018272D01*
Y018128D01*
X066698Y017987D01*
X066753Y017854D01*
X066833Y017735D01*
X066935Y017633D01*
X067054Y017553D01*
X067187Y017498D01*
X067328Y01747D01*
X067472D01*
X067613Y017498D01*
X067746Y017553D01*
X067865Y017633D01*
X067967Y017735D01*
X068047Y017854D01*
X068102Y017987D01*
X06813Y018128D01*
Y018272D01*
X068102Y018413D01*
X068047Y018546D01*
X067967Y018665D01*
X067865Y018767D01*
X067746Y018847D01*
X067613Y018902D01*
X067472Y01893D01*
D02*
G37*
G36*
X037872D02*
X037728D01*
X037587Y018902D01*
X037454Y018847D01*
X037335Y018767D01*
X037233Y018665D01*
X037153Y018546D01*
X037098Y018413D01*
X03707Y018272D01*
Y018128D01*
X037098Y017987D01*
X037153Y017854D01*
X037233Y017735D01*
X037335Y017633D01*
X037454Y017553D01*
X037587Y017498D01*
X037728Y01747D01*
X037872D01*
X038013Y017498D01*
X038146Y017553D01*
X038265Y017633D01*
X038367Y017735D01*
X038447Y017854D01*
X038502Y017987D01*
X03853Y018128D01*
Y018272D01*
X038502Y018413D01*
X038447Y018546D01*
X038367Y018665D01*
X038265Y018767D01*
X038146Y018847D01*
X038013Y018902D01*
X037872Y01893D01*
D02*
G37*
%LPD*%
G36*
X043536Y03512D02*
X043615Y034989D01*
X04361Y034964D01*
Y033798D01*
X043603D01*
X043523Y033782D01*
X043456Y033737D01*
X043411Y03367D01*
X043404Y033636D01*
X043244D01*
X043237Y03367D01*
X043192Y033737D01*
X043125Y033782D01*
X043045Y033798D01*
X043022D01*
X043012Y033814D01*
X042974Y033956D01*
X043007Y033989D01*
X043039Y034066D01*
X042593D01*
X042625Y033989D01*
X042658Y033956D01*
X042628Y033823D01*
X042612Y033796D01*
X042543Y033782D01*
X042476Y033737D01*
X042431Y03367D01*
X042415Y033591D01*
Y033537D01*
X042834D01*
Y033437D01*
X042415D01*
Y033384D01*
X042431Y033305D01*
X042476Y033238D01*
X042543Y033193D01*
X042587Y033184D01*
Y033023D01*
X042543Y033015D01*
X042476Y03297D01*
X042431Y032902D01*
X042415Y032823D01*
Y032616D01*
X042431Y032537D01*
X042476Y03247D01*
X042543Y032425D01*
X042622Y032409D01*
X042677D01*
Y032148D01*
X042614D01*
X042535Y032132D01*
X042468Y032087D01*
X042436Y03204D01*
X042351Y032029D01*
X042266Y03204D01*
X042234Y032087D01*
X042167Y032132D01*
X042088Y032148D01*
X041926D01*
Y031837D01*
X041876D01*
Y031787D01*
X041457D01*
Y031734D01*
X041473Y031655D01*
X041518Y031588D01*
X041585Y031543D01*
X041629Y031534D01*
Y031373D01*
X041585Y031365D01*
X041518Y03132D01*
X041487Y031274D01*
X041165D01*
X040904Y031534D01*
Y034716D01*
X041334Y035146D01*
X043506D01*
X043536Y03512D01*
D02*
G37*
%LPC*%
G36*
X042866Y034339D02*
Y034166D01*
X043039D01*
X043007Y034244D01*
X042944Y034307D01*
X042866Y034339D01*
D02*
G37*
G36*
X042766D02*
X042689Y034307D01*
X042625Y034244D01*
X042593Y034166D01*
X042766D01*
Y034339D01*
D02*
G37*
G36*
X041826Y032148D02*
X041664D01*
X041585Y032132D01*
X041518Y032087D01*
X041473Y03202D01*
X041457Y031941D01*
Y031887D01*
X041826D01*
Y032148D01*
D02*
G37*
%LPD*%
D11*
X042816Y034116D02*
X042834Y034098D01*
Y033487D02*
Y034098D01*
X041876Y031837D02*
Y033276D01*
X042087Y033487D01*
X042834D01*
X04492Y03405D02*
X047D01*
X04492Y03305D02*
X04695D01*
X04645Y03595D02*
Y037754D01*
X0499Y0425D02*
X05035Y04205D01*
X048104Y0387D02*
X051443D01*
X048Y03895D02*
X051339D01*
X05265Y039554D02*
Y0423D01*
X04695Y03305D02*
X04765Y03375D01*
X0529Y03945D02*
Y04305D01*
X0469Y034694D02*
Y03785D01*
X04765Y03375D02*
Y037539D01*
X046841Y034635D02*
X0469Y034694D01*
X052145Y0423D02*
X05235Y042095D01*
X0474Y03395D02*
Y037643D01*
X051546Y03845D02*
X05265Y039554D01*
X04492Y03455D02*
X04675D01*
X05235Y039607D02*
Y042095D01*
X0521Y039711D02*
Y041991D01*
X0499Y0425D02*
Y04305D01*
X048311Y0382D02*
X05165D01*
X046835Y034635D02*
X046841D01*
X04765Y037539D02*
X048311Y0382D01*
X0509Y0425D02*
Y04305D01*
X051443Y0387D02*
X05235Y039607D01*
X0469Y03785D02*
X048Y03895D01*
X05035Y04205D02*
X052041D01*
X04675Y03455D02*
X046835Y034635D01*
X051339Y03895D02*
X0521Y039711D01*
X0511Y0423D02*
X052145D01*
X0474Y037643D02*
X048207Y03845D01*
X052041Y04205D02*
X0521Y041991D01*
X047Y03405D02*
X04715Y0342D01*
Y037746D01*
X047Y03355D02*
X0474Y03395D01*
X04492Y03355D02*
X047D01*
X0519Y04305D02*
X05265Y0423D01*
X048207Y03845D02*
X051546D01*
X04715Y037746D02*
X048104Y0387D01*
X0509Y0425D02*
X0511Y0423D01*
X05165Y0382D02*
X0529Y03945D01*
X043894Y03272D02*
X044079Y032534D01*
Y032531D02*
Y032534D01*
X044865Y032105D02*
X04492Y03205D01*
X044079Y032531D02*
X044505Y032105D01*
X044865D01*
X043814Y03272D02*
X043894D01*
X04492Y03205D02*
X04595D01*
X04492Y03155D02*
X04595D01*
X04283Y031841D02*
Y032716D01*
X042834Y03272D01*
X042826Y031837D02*
X04283Y031841D01*
X044226Y03155D02*
X04492D01*
X043814Y031854D02*
X043922D01*
X044226Y03155D01*
X049517Y03105D02*
X050018D01*
X05585Y031D02*
X055875Y031025D01*
X0583D01*
X057964Y032D02*
X058189Y031775D01*
X05585Y032D02*
X057964D01*
X058189Y031775D02*
X0583D01*
X04395Y027D02*
X049633D01*
X0405D02*
X04395D01*
X048Y0393D02*
Y0398D01*
X0479Y0392D02*
X048Y0393D01*
X047896Y0392D02*
X0479D01*
X04645Y037754D02*
X047896Y0392D01*
X040454Y026304D02*
X051D01*
X0402Y02475D02*
Y02605D01*
X040454Y026304D01*
X051D02*
X051254Y02605D01*
X064571Y02705D02*
X06515D01*
X050495Y025605D02*
X050876Y025224D01*
X0429Y01885D02*
X05645D01*
X04995Y025605D02*
X050495D01*
X041Y02075D02*
X0429Y01885D01*
X05645D02*
X05705Y01945D01*
X050876Y024856D02*
Y025224D01*
X05405Y0239D02*
X05535D01*
X0546Y02335D02*
X05575D01*
X05385Y0226D02*
X0546Y02335D01*
X0549Y0346D02*
X054916Y034584D01*
X054908Y035242D02*
X054916Y03525D01*
X0549Y0346D02*
X054908Y034608D01*
X054916Y033266D02*
Y034584D01*
X054908Y034608D02*
Y035242D01*
X054585Y027784D02*
X065366D01*
X053618D02*
X054585D01*
X0531Y02135D02*
Y02295D01*
X05405Y0239D01*
X0531Y02135D02*
X0536Y02085D01*
Y0208D02*
Y02085D01*
X05385Y0216D02*
Y0226D01*
Y0216D02*
X0546Y02085D01*
Y0208D02*
Y02085D01*
X04905Y02235D02*
X04995Y02325D01*
X04905Y0214D02*
Y02235D01*
X05705Y02645D02*
X057666Y027066D01*
X05705Y01945D02*
Y02645D01*
X057666Y027066D02*
X0646D01*
X041Y02075D02*
Y0208D01*
X04995Y02325D02*
Y024838D01*
X049633Y027D02*
X049848Y027215D01*
X040222Y027278D02*
X0405Y027D01*
X06565Y02655D02*
X0669D01*
X06515Y02705D02*
X06565Y02655D01*
X065366Y027784D02*
X0656Y02755D01*
X0496Y0208D02*
Y02085D01*
X04905Y0214D02*
X0496Y02085D01*
X048723Y03255D02*
X04935D01*
X050034Y032472D02*
X05017Y032609D01*
X048723Y03205D02*
X04945D01*
X049872Y032472D01*
X050034D01*
X0496Y03155D02*
X049781Y031731D01*
X05017D01*
X048723Y03155D02*
X0496D01*
X05285Y033D02*
X05465D01*
X054916Y033266D01*
X053834Y034184D02*
Y03525D01*
X05365Y034D02*
X053834Y034184D01*
X05285Y034D02*
X05365D01*
X04345Y02755D02*
Y02819D01*
X040222Y027278D02*
Y027728D01*
X049848Y027215D02*
X049856D01*
Y027606D02*
X050041Y027791D01*
X049856Y027215D02*
Y027606D01*
X050041Y027791D02*
X052643D01*
X05265Y027784D01*
X0402Y02775D02*
X040222Y027728D01*
X05265Y027784D02*
X053618D01*
X0656Y02755D02*
X0669D01*
X05315Y039346D02*
Y0423D01*
X0539Y04305D02*
Y04305D01*
X05315Y0423D02*
X0539Y04305D01*
X048723Y03305D02*
X04935D01*
X048723Y03355D02*
X04935D01*
X051754Y03795D02*
X05315Y039346D01*
X0508Y03795D02*
X051754D01*
X050544Y037694D02*
X0508Y03795D01*
X050544Y035128D02*
Y037694D01*
X05017Y033487D02*
Y034341D01*
X05017Y033487D02*
X05017Y033487D01*
X049791Y034341D02*
X05017D01*
X0495Y03405D02*
X049791Y034341D01*
X048723Y03405D02*
X0495D01*
X051254Y02605D02*
Y027196D01*
Y025648D02*
Y02605D01*
Y027196D02*
X051259Y0272D01*
X05125Y025644D02*
X051254Y025648D01*
X05755Y033D02*
X0579Y03335D01*
X05585Y033D02*
X05755D01*
X0579Y03335D02*
Y03735D01*
X050018Y03105D02*
X05017Y030897D01*
Y030852D02*
Y030897D01*
X048723Y03105D02*
X049517D01*
X054585Y026308D02*
Y027016D01*
Y0256D02*
Y026308D01*
X053618Y0256D02*
Y026308D01*
Y027016D01*
X05265Y0256D02*
Y026308D01*
Y027016D01*
X0697Y0424D02*
G03*
X0677Y0444I-002J0D01*
G01*
Y01605D02*
G03*
X0697Y01805I0J002D01*
G01*
X037545Y0444D02*
G03*
X035545Y0424I0J-002D01*
G01*
Y01805D02*
G03*
X037545Y01605I002J0D01*
G01*
X0677D01*
X037545Y0444D02*
X0677D01*
X0697Y01805D02*
Y0424D01*
X035545Y01805D02*
Y0424D01*
D20*
X04492Y03105D02*
D03*
Y03155D02*
D03*
Y03205D02*
D03*
Y03255D02*
D03*
Y03305D02*
D03*
Y03355D02*
D03*
Y03405D02*
D03*
Y03455D02*
D03*
X04868D02*
D03*
Y03405D02*
D03*
Y03355D02*
D03*
Y03305D02*
D03*
Y03255D02*
D03*
Y03205D02*
D03*
Y03155D02*
D03*
Y03105D02*
D03*
D21*
X0646Y027834D02*
D03*
Y027066D02*
D03*
X05265Y024832D02*
D03*
Y0256D02*
D03*
X053618Y024832D02*
D03*
Y0256D02*
D03*
X054585Y024832D02*
D03*
Y0256D02*
D03*
X043814Y03272D02*
D03*
Y033487D02*
D03*
Y031854D02*
D03*
Y031086D02*
D03*
X042826Y031837D02*
D03*
Y03107D02*
D03*
X04995Y025605D02*
D03*
Y024838D02*
D03*
X054585Y027784D02*
D03*
Y027016D02*
D03*
X053618Y027784D02*
D03*
Y027016D02*
D03*
X05265Y027784D02*
D03*
Y027016D02*
D03*
X042834Y03272D02*
D03*
Y033487D02*
D03*
X041876Y031837D02*
D03*
Y03107D02*
D03*
D22*
X050544Y035128D02*
D03*
X050918Y034341D02*
D03*
X05017D02*
D03*
X050876Y024856D02*
D03*
X051624D02*
D03*
X05125Y025644D02*
D03*
D23*
X053834Y03525D02*
D03*
X053066D02*
D03*
X054916D02*
D03*
X055684D02*
D03*
X05017Y033487D02*
D03*
X050938D02*
D03*
X05017Y030852D02*
D03*
X050938D02*
D03*
X05017Y031731D02*
D03*
X050938D02*
D03*
X05017Y032609D02*
D03*
X050938D02*
D03*
D24*
X043086Y029499D02*
D03*
X043814D02*
D03*
D25*
X04345Y02819D02*
D03*
D26*
X049841Y0272D02*
D03*
X051259D02*
D03*
D51*
X0412Y04205D02*
X0465D01*
X047Y04155D01*
Y0398D02*
Y04155D01*
X0409Y04235D02*
X0412Y04205D01*
X0409Y04235D02*
Y04305D01*
X0519Y033605D02*
Y035D01*
X05215Y03525D02*
X053066D01*
X0519Y035D02*
X05215Y03525D01*
X050938Y033487D02*
X051783D01*
X0519Y033605D01*
X050938Y030894D02*
Y031731D01*
X051045Y031D02*
X05285D01*
X050938Y030852D02*
Y030894D01*
X051045Y031D01*
X050938Y032609D02*
Y033487D01*
Y031731D02*
Y032609D01*
X050599Y029499D02*
X050938Y029838D01*
Y030852D01*
X043814Y029499D02*
X050599D01*
X043814Y031055D02*
X044915D01*
X041891D02*
X043814D01*
Y031086D01*
Y029499D02*
Y031055D01*
X0407Y0348D02*
X04125Y03535D01*
X0442D01*
X0407Y03145D02*
Y0348D01*
X0442Y03535D02*
X04515D01*
X043814Y034964D02*
X0442Y03535D01*
X043814Y033487D02*
Y034964D01*
X0457Y0359D02*
Y03795D01*
X04515Y03535D02*
X0457Y0359D01*
X0407Y03145D02*
X04108Y03107D01*
X041876D01*
X0457Y03795D02*
X047Y03925D01*
Y0398D01*
X041876Y03107D02*
X041891Y031055D01*
X044915D02*
X04492Y03105D01*
D52*
X043449Y028875D02*
D03*
D53*
X037735Y030845D02*
D03*
X067262D02*
D03*
Y04305D02*
D03*
X037735D02*
D03*
D54*
X0549D02*
D03*
X0539D02*
D03*
X0529D02*
D03*
X0519D02*
D03*
X0509D02*
D03*
X0499D02*
D03*
X0489D02*
D03*
X0479D02*
D03*
X0469D02*
D03*
X0459D02*
D03*
X0449D02*
D03*
X0439D02*
D03*
X0429D02*
D03*
X0419D02*
D03*
X0409D02*
D03*
D55*
X0399D02*
D03*
D56*
X0546Y0208D02*
D03*
X0536D02*
D03*
X051Y0398D02*
D03*
X05D02*
D03*
X048D02*
D03*
X047D02*
D03*
X046D02*
D03*
X045D02*
D03*
X044D02*
D03*
X041D02*
D03*
X04D02*
D03*
X039D02*
D03*
X038D02*
D03*
X037D02*
D03*
X038Y0208D02*
D03*
X039D02*
D03*
X04D02*
D03*
X041D02*
D03*
X042D02*
D03*
X043D02*
D03*
X044D02*
D03*
X0466D02*
D03*
X0476D02*
D03*
X0486D02*
D03*
X0496D02*
D03*
X0506D02*
D03*
X0516D02*
D03*
X0526D02*
D03*
D57*
X049Y0398D02*
D03*
X042D02*
D03*
X037Y0208D02*
D03*
X0456D02*
D03*
D58*
X0583Y031025D02*
D03*
Y031775D02*
D03*
D59*
X0674Y0182D02*
D03*
X0378D02*
D03*
D60*
X04065Y01985D02*
D03*
Y02185D02*
D03*
X04565Y01985D02*
D03*
Y02185D02*
D03*
X0594Y01985D02*
D03*
Y02185D02*
D03*
X0644Y01985D02*
D03*
Y02185D02*
D03*
X050025Y0199D02*
D03*
Y0219D02*
D03*
X055025Y0199D02*
D03*
Y0219D02*
D03*
D61*
X0402Y02775D02*
D03*
D62*
Y02475D02*
D03*
D63*
X05585Y031D02*
D03*
D64*
Y032D02*
D03*
Y033D02*
D03*
Y034D02*
D03*
X05285D02*
D03*
Y033D02*
D03*
Y032D02*
D03*
Y031D02*
D03*
D65*
X0669Y02555D02*
D03*
Y02655D02*
D03*
D66*
Y02755D02*
D03*
D67*
X0659Y03735D02*
D03*
D68*
X0579D02*
D03*
D69*
X042816Y034116D02*
D03*
X04645Y03595D02*
D03*
X04395Y027D02*
D03*
X05535Y0239D02*
D03*
X05575Y02335D02*
D03*
X0549Y0346D02*
D03*
X04935Y03255D02*
D03*
X04595Y03205D02*
D03*
Y03155D02*
D03*
X04345Y02755D02*
D03*
X04935Y03305D02*
D03*
Y03355D02*
D03*
X054585Y026308D02*
D03*
X05265D02*
D03*
X053618D02*
D03*
M02*
