G04*
G04 #@! TF.GenerationSoftware,Altium Limited,Altium Designer,21.3.2 (30)*
G04*
G04 Layer_Physical_Order=2*
G04 Layer_Color=16711680*
%FSTAX24Y24*%
%MOIN*%
G70*
G04*
G04 #@! TF.SameCoordinates,A58ECD2F-0E49-4CC9-AAE6-1995A15C2F52*
G04*
G04*
G04 #@! TF.FilePolarity,Positive*
G04*
G01*
G75*
%ADD11C,0.0100*%
%ADD53C,0.0984*%
%ADD54O,0.0600X0.0800*%
%ADD55R,0.0600X0.0800*%
%ADD56O,0.0600X0.0700*%
%ADD57R,0.0600X0.0700*%
%ADD58C,0.0512*%
%ADD59C,0.1260*%
%ADD60C,0.0900*%
G04:AMPARAMS|DCode=61|XSize=70.9mil|YSize=70.9mil|CornerRadius=17.7mil|HoleSize=0mil|Usage=FLASHONLY|Rotation=270.000|XOffset=0mil|YOffset=0mil|HoleType=Round|Shape=RoundedRectangle|*
%AMROUNDEDRECTD61*
21,1,0.0709,0.0354,0,0,270.0*
21,1,0.0354,0.0709,0,0,270.0*
1,1,0.0354,-0.0177,-0.0177*
1,1,0.0354,-0.0177,0.0177*
1,1,0.0354,0.0177,0.0177*
1,1,0.0354,0.0177,-0.0177*
%
%ADD61ROUNDEDRECTD61*%
%ADD62C,0.0709*%
%ADD65C,0.0591*%
G04:AMPARAMS|DCode=66|XSize=59.1mil|YSize=59.1mil|CornerRadius=14.8mil|HoleSize=0mil|Usage=FLASHONLY|Rotation=270.000|XOffset=0mil|YOffset=0mil|HoleType=Round|Shape=RoundedRectangle|*
%AMROUNDEDRECTD66*
21,1,0.0591,0.0295,0,0,270.0*
21,1,0.0295,0.0591,0,0,270.0*
1,1,0.0295,-0.0148,-0.0148*
1,1,0.0295,-0.0148,0.0148*
1,1,0.0295,0.0148,0.0148*
1,1,0.0295,0.0148,-0.0148*
%
%ADD66ROUNDEDRECTD66*%
%ADD67C,0.0800*%
%ADD68R,0.0800X0.0800*%
%ADD69C,0.0250*%
%ADD70R,0.0800X0.0600*%
%ADD71O,0.0800X0.0600*%
G36*
X067941Y044233D02*
X068179Y044186D01*
X068408Y044108D01*
X068624Y044001D01*
X068826Y043867D01*
X069007Y043707D01*
X069167Y043526D01*
X069301Y043324D01*
X069408Y043108D01*
X069486Y042879D01*
X069533Y042641D01*
X069548Y042407D01*
X069547Y0424D01*
Y01805D01*
X069548Y018043D01*
X069533Y017809D01*
X069486Y017571D01*
X069408Y017342D01*
X069301Y017126D01*
X069167Y016924D01*
X069007Y016743D01*
X068826Y016583D01*
X068624Y016449D01*
X068408Y016342D01*
X068179Y016264D01*
X067941Y016217D01*
X067707Y016202D01*
X0677Y016203D01*
X037545D01*
X037538Y016202D01*
X037304Y016217D01*
X037066Y016264D01*
X036837Y016342D01*
X036621Y016449D01*
X036419Y016583D01*
X036238Y016743D01*
X036078Y016924D01*
X035944Y017126D01*
X035837Y017342D01*
X035759Y017571D01*
X035712Y017809D01*
X035697Y018043D01*
X035698Y01805D01*
Y0424D01*
X035697Y042407D01*
X035712Y042641D01*
X035759Y042879D01*
X035837Y043108D01*
X035944Y043324D01*
X036078Y043526D01*
X036238Y043707D01*
X036419Y043867D01*
X036621Y044001D01*
X036837Y044108D01*
X037066Y044186D01*
X037304Y044233D01*
X037538Y044248D01*
X037545Y044247D01*
X0677D01*
X067707Y044248D01*
X067941Y044233D01*
D02*
G37*
%LPC*%
G36*
X05495Y043547D02*
Y0431D01*
X055303D01*
Y04315D01*
X05529Y043254D01*
X055249Y043352D01*
X055185Y043435D01*
X055102Y043499D01*
X055004Y04354D01*
X05495Y043547D01*
D02*
G37*
G36*
X05485D02*
X054796Y04354D01*
X054698Y043499D01*
X054615Y043435D01*
X054551Y043352D01*
X05451Y043254D01*
X054497Y04315D01*
Y0431D01*
X05485D01*
Y043547D01*
D02*
G37*
G36*
X0403Y04355D02*
X03995D01*
Y0431D01*
X0403D01*
Y04355D01*
D02*
G37*
G36*
X03985D02*
X0395D01*
Y0431D01*
X03985D01*
Y04355D01*
D02*
G37*
G36*
X055303Y043D02*
X05495D01*
Y042553D01*
X055004Y04256D01*
X055102Y042601D01*
X055185Y042665D01*
X055249Y042748D01*
X05529Y042846D01*
X055303Y04295D01*
Y043D01*
D02*
G37*
G36*
X05485D02*
X054497D01*
Y04295D01*
X05451Y042846D01*
X054551Y042748D01*
X054615Y042665D01*
X054698Y042601D01*
X054796Y04256D01*
X05485Y042553D01*
Y043D01*
D02*
G37*
G36*
X0403D02*
X03995D01*
Y04255D01*
X0403D01*
Y043D01*
D02*
G37*
G36*
X03985D02*
X0395D01*
Y04255D01*
X03985D01*
Y043D01*
D02*
G37*
G36*
X0539Y043553D02*
X053796Y04354D01*
X053698Y043499D01*
X053615Y043435D01*
X053551Y043352D01*
X05351Y043254D01*
X053497Y04315D01*
Y04295D01*
X05351Y042846D01*
X053551Y042748D01*
X053615Y042665D01*
X053698Y042601D01*
X053796Y04256D01*
X0539Y042547D01*
X054004Y04256D01*
X054102Y042601D01*
X054185Y042665D01*
X054249Y042748D01*
X05429Y042846D01*
X054303Y04295D01*
Y04315D01*
X05429Y043254D01*
X054249Y043352D01*
X054185Y043435D01*
X054102Y043499D01*
X054004Y04354D01*
X0539Y043553D01*
D02*
G37*
G36*
X0529D02*
X052796Y04354D01*
X052698Y043499D01*
X052615Y043435D01*
X052551Y043352D01*
X05251Y043254D01*
X052497Y04315D01*
Y04295D01*
X05251Y042846D01*
X052551Y042748D01*
X052615Y042665D01*
X052698Y042601D01*
X052796Y04256D01*
X0529Y042547D01*
X053004Y04256D01*
X053102Y042601D01*
X053185Y042665D01*
X053249Y042748D01*
X05329Y042846D01*
X053303Y04295D01*
Y04315D01*
X05329Y043254D01*
X053249Y043352D01*
X053185Y043435D01*
X053102Y043499D01*
X053004Y04354D01*
X0529Y043553D01*
D02*
G37*
G36*
X0519D02*
X051796Y04354D01*
X051698Y043499D01*
X051615Y043435D01*
X051551Y043352D01*
X05151Y043254D01*
X051497Y04315D01*
Y04295D01*
X05151Y042846D01*
X051551Y042748D01*
X051615Y042665D01*
X051698Y042601D01*
X051796Y04256D01*
X0519Y042547D01*
X052004Y04256D01*
X052102Y042601D01*
X052185Y042665D01*
X052249Y042748D01*
X05229Y042846D01*
X052303Y04295D01*
Y04315D01*
X05229Y043254D01*
X052249Y043352D01*
X052185Y043435D01*
X052102Y043499D01*
X052004Y04354D01*
X0519Y043553D01*
D02*
G37*
G36*
X0509D02*
X050796Y04354D01*
X050698Y043499D01*
X050615Y043435D01*
X050551Y043352D01*
X05051Y043254D01*
X050497Y04315D01*
Y04295D01*
X05051Y042846D01*
X050551Y042748D01*
X050615Y042665D01*
X050698Y042601D01*
X050796Y04256D01*
X0509Y042547D01*
X051004Y04256D01*
X051102Y042601D01*
X051185Y042665D01*
X051249Y042748D01*
X05129Y042846D01*
X051303Y04295D01*
Y04315D01*
X05129Y043254D01*
X051249Y043352D01*
X051185Y043435D01*
X051102Y043499D01*
X051004Y04354D01*
X0509Y043553D01*
D02*
G37*
G36*
X0499D02*
X049796Y04354D01*
X049698Y043499D01*
X049615Y043435D01*
X049551Y043352D01*
X04951Y043254D01*
X049497Y04315D01*
Y04295D01*
X04951Y042846D01*
X049551Y042748D01*
X049615Y042665D01*
X049698Y042601D01*
X049796Y04256D01*
X0499Y042547D01*
X050004Y04256D01*
X050102Y042601D01*
X050185Y042665D01*
X050249Y042748D01*
X05029Y042846D01*
X050303Y04295D01*
Y04315D01*
X05029Y043254D01*
X050249Y043352D01*
X050185Y043435D01*
X050102Y043499D01*
X050004Y04354D01*
X0499Y043553D01*
D02*
G37*
G36*
X0489D02*
X048796Y04354D01*
X048698Y043499D01*
X048615Y043435D01*
X048551Y043352D01*
X04851Y043254D01*
X048497Y04315D01*
Y04295D01*
X04851Y042846D01*
X048551Y042748D01*
X048615Y042665D01*
X048698Y042601D01*
X048796Y04256D01*
X0489Y042547D01*
X049004Y04256D01*
X049102Y042601D01*
X049185Y042665D01*
X049249Y042748D01*
X04929Y042846D01*
X049303Y04295D01*
Y04315D01*
X04929Y043254D01*
X049249Y043352D01*
X049185Y043435D01*
X049102Y043499D01*
X049004Y04354D01*
X0489Y043553D01*
D02*
G37*
G36*
X0479D02*
X047796Y04354D01*
X047698Y043499D01*
X047615Y043435D01*
X047551Y043352D01*
X04751Y043254D01*
X047497Y04315D01*
Y04295D01*
X04751Y042846D01*
X047551Y042748D01*
X047615Y042665D01*
X047698Y042601D01*
X047796Y04256D01*
X0479Y042547D01*
X048004Y04256D01*
X048102Y042601D01*
X048185Y042665D01*
X048249Y042748D01*
X04829Y042846D01*
X048303Y04295D01*
Y04315D01*
X04829Y043254D01*
X048249Y043352D01*
X048185Y043435D01*
X048102Y043499D01*
X048004Y04354D01*
X0479Y043553D01*
D02*
G37*
G36*
X0469D02*
X046796Y04354D01*
X046698Y043499D01*
X046615Y043435D01*
X046551Y043352D01*
X04651Y043254D01*
X046497Y04315D01*
Y04295D01*
X04651Y042846D01*
X046551Y042748D01*
X046615Y042665D01*
X046698Y042601D01*
X046796Y04256D01*
X0469Y042547D01*
X047004Y04256D01*
X047102Y042601D01*
X047185Y042665D01*
X047249Y042748D01*
X04729Y042846D01*
X047303Y04295D01*
Y04315D01*
X04729Y043254D01*
X047249Y043352D01*
X047185Y043435D01*
X047102Y043499D01*
X047004Y04354D01*
X0469Y043553D01*
D02*
G37*
G36*
X0459D02*
X045796Y04354D01*
X045698Y043499D01*
X045615Y043435D01*
X045551Y043352D01*
X04551Y043254D01*
X045497Y04315D01*
Y04295D01*
X04551Y042846D01*
X045551Y042748D01*
X045615Y042665D01*
X045698Y042601D01*
X045796Y04256D01*
X0459Y042547D01*
X046004Y04256D01*
X046102Y042601D01*
X046185Y042665D01*
X046249Y042748D01*
X04629Y042846D01*
X046303Y04295D01*
Y04315D01*
X04629Y043254D01*
X046249Y043352D01*
X046185Y043435D01*
X046102Y043499D01*
X046004Y04354D01*
X0459Y043553D01*
D02*
G37*
G36*
X0449D02*
X044796Y04354D01*
X044698Y043499D01*
X044615Y043435D01*
X044551Y043352D01*
X04451Y043254D01*
X044497Y04315D01*
Y04295D01*
X04451Y042846D01*
X044551Y042748D01*
X044615Y042665D01*
X044698Y042601D01*
X044709Y042596D01*
X044721Y042537D01*
X044637Y042453D01*
X04365D01*
X043591Y042441D01*
X043552Y042415D01*
X04352Y042454D01*
X043681Y042614D01*
X043698Y042601D01*
X043796Y04256D01*
X0439Y042547D01*
X044004Y04256D01*
X044102Y042601D01*
X044185Y042665D01*
X044249Y042748D01*
X04429Y042846D01*
X044303Y04295D01*
Y04315D01*
X04429Y043254D01*
X044249Y043352D01*
X044185Y043435D01*
X044102Y043499D01*
X044004Y04354D01*
X0439Y043553D01*
X043796Y04354D01*
X043698Y043499D01*
X043615Y043435D01*
X043551Y043352D01*
X04351Y043254D01*
X043497Y04315D01*
Y04295D01*
X043507Y042873D01*
X043099Y042465D01*
X043053Y042485D01*
Y04258D01*
X043102Y042601D01*
X043185Y042665D01*
X043249Y042748D01*
X04329Y042846D01*
X043303Y04295D01*
Y04315D01*
X04329Y043254D01*
X043249Y043352D01*
X043185Y043435D01*
X043102Y043499D01*
X043004Y04354D01*
X0429Y043553D01*
X042796Y04354D01*
X042698Y043499D01*
X042615Y043435D01*
X042551Y043352D01*
X04251Y043254D01*
X042497Y04315D01*
Y04295D01*
X04251Y042846D01*
X042551Y042748D01*
X042615Y042665D01*
X042698Y042601D01*
X042747Y04258D01*
Y042485D01*
X042701Y042465D01*
X042293Y042873D01*
X042303Y04295D01*
Y04315D01*
X04229Y043254D01*
X042249Y043352D01*
X042185Y043435D01*
X042102Y043499D01*
X042004Y04354D01*
X0419Y043553D01*
X041796Y04354D01*
X041698Y043499D01*
X041615Y043435D01*
X041551Y043352D01*
X04151Y043254D01*
X041497Y04315D01*
Y04295D01*
X04151Y042846D01*
X041551Y042748D01*
X041615Y042665D01*
X041698Y042601D01*
X041796Y04256D01*
X0419Y042547D01*
X042004Y04256D01*
X042102Y042601D01*
X042119Y042614D01*
X042497Y042237D01*
Y039D01*
X042509Y038941D01*
X042542Y038892D01*
X043297Y038137D01*
Y027715D01*
X043259Y027677D01*
X043225Y027595D01*
Y027505D01*
X043259Y027423D01*
X043323Y027359D01*
X043405Y027325D01*
X043495D01*
X043577Y027359D01*
X043641Y027423D01*
X043675Y027505D01*
Y027595D01*
X043641Y027677D01*
X043603Y027715D01*
Y0382D01*
X043593Y038249D01*
X043594Y038251D01*
X043612Y038282D01*
X043626Y038297D01*
X047987D01*
X048422Y037862D01*
Y033025D01*
X048434Y032966D01*
X048467Y032917D01*
X048942Y032442D01*
X048991Y032409D01*
X04905Y032397D01*
X049185D01*
X049223Y032359D01*
X049305Y032325D01*
X049395D01*
X049477Y032359D01*
X049541Y032423D01*
X049575Y032505D01*
Y032595D01*
X049541Y032677D01*
X049477Y032741D01*
X049395Y032775D01*
X049305D01*
X049223Y032741D01*
X049185Y032703D01*
X049113D01*
X048728Y033088D01*
Y03319D01*
X048774Y03321D01*
X049042Y032942D01*
X049091Y032909D01*
X04915Y032897D01*
X049185D01*
X049223Y032859D01*
X049305Y032825D01*
X049395D01*
X049477Y032859D01*
X049541Y032923D01*
X049575Y033005D01*
Y033095D01*
X049541Y033177D01*
X049477Y033241D01*
X049395Y033275D01*
X049305D01*
X049223Y033241D01*
X049199Y033217D01*
X048978Y033438D01*
Y03364D01*
X049024Y03366D01*
X049125Y033559D01*
Y033505D01*
X049159Y033423D01*
X049223Y033359D01*
X049305Y033325D01*
X049395D01*
X049477Y033359D01*
X049541Y033423D01*
X049575Y033505D01*
Y033595D01*
X049541Y033677D01*
X049477Y033741D01*
X049395Y033775D01*
X049341D01*
X049228Y033888D01*
Y038132D01*
X049216Y038191D01*
X049183Y03824D01*
X048365Y039058D01*
X048316Y039091D01*
X048257Y039103D01*
X04387D01*
X043553Y03942D01*
Y039698D01*
X043603Y039701D01*
X04361Y039646D01*
X043651Y039548D01*
X043715Y039465D01*
X043798Y039401D01*
X043896Y03936D01*
X044Y039347D01*
X044104Y03936D01*
X044202Y039401D01*
X044285Y039465D01*
X044349Y039548D01*
X04439Y039646D01*
X044403Y03975D01*
Y03985D01*
X04439Y039954D01*
X044349Y040052D01*
X044285Y040135D01*
X044202Y040199D01*
X044104Y04024D01*
X044Y040253D01*
X043896Y04024D01*
X043798Y040199D01*
X043715Y040135D01*
X043651Y040052D01*
X04361Y039954D01*
X043603Y039899D01*
X043553Y039902D01*
Y041987D01*
X043713Y042147D01*
X0447D01*
X044759Y042159D01*
X044808Y042192D01*
X045008Y042392D01*
X045041Y042441D01*
X045053Y0425D01*
Y04258D01*
X045102Y042601D01*
X045185Y042665D01*
X045249Y042748D01*
X04529Y042846D01*
X045303Y04295D01*
Y04315D01*
X04529Y043254D01*
X045249Y043352D01*
X045185Y043435D01*
X045102Y043499D01*
X045004Y04354D01*
X0449Y043553D01*
D02*
G37*
G36*
X0409D02*
X040796Y04354D01*
X040698Y043499D01*
X040615Y043435D01*
X040551Y043352D01*
X04051Y043254D01*
X040497Y04315D01*
Y04295D01*
X04051Y042846D01*
X040551Y042748D01*
X040615Y042665D01*
X040698Y042601D01*
X040796Y04256D01*
X0409Y042547D01*
X041004Y04256D01*
X041102Y042601D01*
X041185Y042665D01*
X041249Y042748D01*
X04129Y042846D01*
X041303Y04295D01*
Y04315D01*
X04129Y043254D01*
X041249Y043352D01*
X041185Y043435D01*
X041102Y043499D01*
X041004Y04354D01*
X0409Y043553D01*
D02*
G37*
G36*
X067321Y043642D02*
X067204D01*
X067089Y043619D01*
X066982Y043575D01*
X066885Y04351D01*
X066802Y043427D01*
X066737Y04333D01*
X066693Y043223D01*
X06667Y043108D01*
Y042992D01*
X066693Y042877D01*
X066737Y04277D01*
X066802Y042673D01*
X066885Y04259D01*
X066982Y042525D01*
X067089Y042481D01*
X067204Y042458D01*
X067321D01*
X067435Y042481D01*
X067543Y042525D01*
X06764Y04259D01*
X067722Y042673D01*
X067787Y04277D01*
X067832Y042877D01*
X067854Y042992D01*
Y043108D01*
X067832Y043223D01*
X067787Y04333D01*
X067722Y043427D01*
X06764Y04351D01*
X067543Y043575D01*
X067435Y043619D01*
X067321Y043642D01*
D02*
G37*
G36*
X037793D02*
X037676D01*
X037562Y043619D01*
X037454Y043575D01*
X037357Y04351D01*
X037275Y043427D01*
X03721Y04333D01*
X037165Y043223D01*
X037143Y043108D01*
Y042992D01*
X037165Y042877D01*
X03721Y04277D01*
X037275Y042673D01*
X037357Y04259D01*
X037454Y042525D01*
X037562Y042481D01*
X037676Y042458D01*
X037793D01*
X037907Y042481D01*
X038015Y042525D01*
X038112Y04259D01*
X038195Y042673D01*
X038259Y04277D01*
X038304Y042877D01*
X038327Y042992D01*
Y043108D01*
X038304Y043223D01*
X038259Y04333D01*
X038195Y043427D01*
X038112Y04351D01*
X038015Y043575D01*
X037907Y043619D01*
X037793Y043642D01*
D02*
G37*
G36*
X04605Y040247D02*
Y03985D01*
X046403D01*
X04639Y039954D01*
X046349Y040052D01*
X046285Y040135D01*
X046202Y040199D01*
X046104Y04024D01*
X04605Y040247D01*
D02*
G37*
G36*
X04505D02*
Y03985D01*
X045403D01*
X04539Y039954D01*
X045349Y040052D01*
X045285Y040135D01*
X045202Y040199D01*
X045104Y04024D01*
X04505Y040247D01*
D02*
G37*
G36*
X04595D02*
X045896Y04024D01*
X045798Y040199D01*
X045715Y040135D01*
X045651Y040052D01*
X04561Y039954D01*
X045597Y03985D01*
D01*
X04595D01*
Y040247D01*
D02*
G37*
G36*
X04495D02*
X044896Y04024D01*
X044798Y040199D01*
X044715Y040135D01*
X044651Y040052D01*
X04461Y039954D01*
X044597Y03985D01*
D01*
X04495D01*
Y040247D01*
D02*
G37*
G36*
X046403Y03975D02*
X04605D01*
Y039353D01*
X046104Y03936D01*
X046202Y039401D01*
X046285Y039465D01*
X046349Y039548D01*
X04639Y039646D01*
X046403Y03975D01*
D01*
D02*
G37*
G36*
X045403D02*
X04505D01*
Y039353D01*
X045104Y03936D01*
X045202Y039401D01*
X045285Y039465D01*
X045349Y039548D01*
X04539Y039646D01*
X045403Y03975D01*
D01*
D02*
G37*
G36*
X04595D02*
X045597D01*
X04561Y039646D01*
X045651Y039548D01*
X045715Y039465D01*
X045798Y039401D01*
X045896Y03936D01*
X04595Y039353D01*
Y03975D01*
D02*
G37*
G36*
X04495D02*
X044597D01*
X04461Y039646D01*
X044651Y039548D01*
X044715Y039465D01*
X044798Y039401D01*
X044896Y03936D01*
X04495Y039353D01*
Y03975D01*
D02*
G37*
G36*
X0494Y04025D02*
X0486D01*
Y03935D01*
X0494D01*
Y04025D01*
D02*
G37*
G36*
X0424D02*
X0416D01*
Y03935D01*
X0424D01*
Y04025D01*
D02*
G37*
G36*
X051Y040253D02*
X050896Y04024D01*
X050798Y040199D01*
X050715Y040135D01*
X050651Y040052D01*
X05061Y039954D01*
X050597Y03985D01*
Y03975D01*
X05061Y039646D01*
X050651Y039548D01*
X050715Y039465D01*
X050798Y039401D01*
X050896Y03936D01*
X051Y039347D01*
X051104Y03936D01*
X051202Y039401D01*
X051285Y039465D01*
X051349Y039548D01*
X05139Y039646D01*
X051403Y03975D01*
Y03985D01*
X05139Y039954D01*
X051349Y040052D01*
X051285Y040135D01*
X051202Y040199D01*
X051104Y04024D01*
X051Y040253D01*
D02*
G37*
G36*
X05D02*
X049896Y04024D01*
X049798Y040199D01*
X049715Y040135D01*
X049651Y040052D01*
X04961Y039954D01*
X049597Y03985D01*
Y03975D01*
X04961Y039646D01*
X049651Y039548D01*
X049715Y039465D01*
X049798Y039401D01*
X049896Y03936D01*
X05Y039347D01*
X050104Y03936D01*
X050202Y039401D01*
X050285Y039465D01*
X050349Y039548D01*
X05039Y039646D01*
X050403Y03975D01*
Y03985D01*
X05039Y039954D01*
X050349Y040052D01*
X050285Y040135D01*
X050202Y040199D01*
X050104Y04024D01*
X05Y040253D01*
D02*
G37*
G36*
X048D02*
X047896Y04024D01*
X047798Y040199D01*
X047715Y040135D01*
X047651Y040052D01*
X04761Y039954D01*
X047597Y03985D01*
Y03975D01*
X04761Y039646D01*
X047651Y039548D01*
X047715Y039465D01*
X047798Y039401D01*
X047896Y03936D01*
X048Y039347D01*
X048104Y03936D01*
X048202Y039401D01*
X048285Y039465D01*
X048349Y039548D01*
X04839Y039646D01*
X048403Y03975D01*
Y03985D01*
X04839Y039954D01*
X048349Y040052D01*
X048285Y040135D01*
X048202Y040199D01*
X048104Y04024D01*
X048Y040253D01*
D02*
G37*
G36*
X047D02*
X046896Y04024D01*
X046798Y040199D01*
X046715Y040135D01*
X046651Y040052D01*
X04661Y039954D01*
X046597Y03985D01*
Y03975D01*
X04661Y039646D01*
X046651Y039548D01*
X046715Y039465D01*
X046798Y039401D01*
X046896Y03936D01*
X047Y039347D01*
X047104Y03936D01*
X047202Y039401D01*
X047285Y039465D01*
X047349Y039548D01*
X04739Y039646D01*
X047403Y03975D01*
Y03985D01*
X04739Y039954D01*
X047349Y040052D01*
X047285Y040135D01*
X047202Y040199D01*
X047104Y04024D01*
X047Y040253D01*
D02*
G37*
G36*
X041D02*
X040896Y04024D01*
X040798Y040199D01*
X040715Y040135D01*
X040651Y040052D01*
X04061Y039954D01*
X040597Y03985D01*
Y03975D01*
X04061Y039646D01*
X040651Y039548D01*
X040715Y039465D01*
X040798Y039401D01*
X040896Y03936D01*
X041Y039347D01*
X041104Y03936D01*
X041202Y039401D01*
X041285Y039465D01*
X041349Y039548D01*
X04139Y039646D01*
X041403Y03975D01*
Y03985D01*
X04139Y039954D01*
X041349Y040052D01*
X041285Y040135D01*
X041202Y040199D01*
X041104Y04024D01*
X041Y040253D01*
D02*
G37*
G36*
X04D02*
X039896Y04024D01*
X039798Y040199D01*
X039715Y040135D01*
X039651Y040052D01*
X03961Y039954D01*
X039597Y03985D01*
Y03975D01*
X03961Y039646D01*
X039651Y039548D01*
X039715Y039465D01*
X039798Y039401D01*
X039896Y03936D01*
X04Y039347D01*
X040104Y03936D01*
X040202Y039401D01*
X040285Y039465D01*
X040349Y039548D01*
X04039Y039646D01*
X040403Y03975D01*
Y03985D01*
X04039Y039954D01*
X040349Y040052D01*
X040285Y040135D01*
X040202Y040199D01*
X040104Y04024D01*
X04Y040253D01*
D02*
G37*
G36*
X039D02*
X038896Y04024D01*
X038798Y040199D01*
X038715Y040135D01*
X038651Y040052D01*
X03861Y039954D01*
X038597Y03985D01*
Y03975D01*
X03861Y039646D01*
X038651Y039548D01*
X038715Y039465D01*
X038798Y039401D01*
X038896Y03936D01*
X039Y039347D01*
X039104Y03936D01*
X039202Y039401D01*
X039285Y039465D01*
X039349Y039548D01*
X03939Y039646D01*
X039403Y03975D01*
Y03985D01*
X03939Y039954D01*
X039349Y040052D01*
X039285Y040135D01*
X039202Y040199D01*
X039104Y04024D01*
X039Y040253D01*
D02*
G37*
G36*
X038D02*
X037896Y04024D01*
X037798Y040199D01*
X037715Y040135D01*
X037651Y040052D01*
X03761Y039954D01*
X037597Y03985D01*
Y03975D01*
X03761Y039646D01*
X037651Y039548D01*
X037715Y039465D01*
X037798Y039401D01*
X037896Y03936D01*
X038Y039347D01*
X038104Y03936D01*
X038202Y039401D01*
X038285Y039465D01*
X038349Y039548D01*
X03839Y039646D01*
X038403Y03975D01*
Y03985D01*
X03839Y039954D01*
X038349Y040052D01*
X038285Y040135D01*
X038202Y040199D01*
X038104Y04024D01*
X038Y040253D01*
D02*
G37*
G36*
X037D02*
X036896Y04024D01*
X036798Y040199D01*
X036715Y040135D01*
X036651Y040052D01*
X03661Y039954D01*
X036597Y03985D01*
Y03975D01*
X03661Y039646D01*
X036651Y039548D01*
X036715Y039465D01*
X036798Y039401D01*
X036896Y03936D01*
X037Y039347D01*
X037104Y03936D01*
X037202Y039401D01*
X037285Y039465D01*
X037349Y039548D01*
X03739Y039646D01*
X037403Y03975D01*
Y03985D01*
X03739Y039954D01*
X037349Y040052D01*
X037285Y040135D01*
X037202Y040199D01*
X037104Y04024D01*
X037Y040253D01*
D02*
G37*
G36*
X065966Y03785D02*
X06595D01*
Y0374D01*
X0664D01*
Y037416D01*
X066366Y037543D01*
X0663Y037657D01*
X066207Y03775D01*
X066093Y037816D01*
X065966Y03785D01*
D02*
G37*
G36*
X06585D02*
X065834D01*
X065707Y037816D01*
X065593Y03775D01*
X0655Y037657D01*
X065434Y037543D01*
X0654Y037416D01*
Y0374D01*
X06585D01*
Y03785D01*
D02*
G37*
G36*
X0664Y0373D02*
X06595D01*
Y03685D01*
X065966D01*
X066093Y036884D01*
X066207Y03695D01*
X0663Y037043D01*
X066366Y037157D01*
X0664Y037284D01*
Y0373D01*
D02*
G37*
G36*
X06585D02*
X0654D01*
Y037284D01*
X065434Y037157D01*
X0655Y037043D01*
X065593Y03695D01*
X065707Y036884D01*
X065834Y03685D01*
X06585D01*
Y0373D01*
D02*
G37*
G36*
X0584Y03785D02*
X0574D01*
Y03685D01*
X0584D01*
Y03785D01*
D02*
G37*
G36*
X046495Y036175D02*
X046405D01*
X046323Y036141D01*
X046285Y036103D01*
X04435D01*
X044291Y036091D01*
X044242Y036058D01*
X043842Y035658D01*
X043809Y035609D01*
X043797Y03555D01*
Y027165D01*
X043759Y027127D01*
X043725Y027045D01*
Y026955D01*
X043759Y026873D01*
X043823Y026809D01*
X043905Y026775D01*
X043995D01*
X044077Y026809D01*
X044141Y026873D01*
X044175Y026955D01*
Y027045D01*
X044141Y027127D01*
X044103Y027165D01*
Y035487D01*
X044413Y035797D01*
X046285D01*
X046323Y035759D01*
X046405Y035725D01*
X046495D01*
X046577Y035759D01*
X046641Y035823D01*
X046675Y035905D01*
Y035995D01*
X046641Y036077D01*
X046577Y036141D01*
X046495Y036175D01*
D02*
G37*
G36*
X042866Y034339D02*
Y034166D01*
X043039D01*
X043007Y034244D01*
X042944Y034307D01*
X042866Y034339D01*
D02*
G37*
G36*
X042766D02*
X042689Y034307D01*
X042625Y034244D01*
X042593Y034166D01*
X042766D01*
Y034339D01*
D02*
G37*
G36*
X05595Y034403D02*
X0559D01*
Y03405D01*
X056347D01*
X05634Y034104D01*
X056299Y034202D01*
X056235Y034285D01*
X056152Y034349D01*
X056054Y03439D01*
X05595Y034403D01*
D02*
G37*
G36*
X0558D02*
X05575D01*
X055646Y03439D01*
X055548Y034349D01*
X055465Y034285D01*
X055401Y034202D01*
X05536Y034104D01*
X055353Y03405D01*
X0558D01*
Y034403D01*
D02*
G37*
G36*
X043039Y034066D02*
X042866D01*
Y033893D01*
X042944Y033925D01*
X043007Y033989D01*
X043039Y034066D01*
D02*
G37*
G36*
X042766D02*
X042593D01*
X042625Y033989D01*
X042689Y033925D01*
X042766Y033893D01*
Y034066D01*
D02*
G37*
G36*
X056347Y03395D02*
X0559D01*
Y033597D01*
X05595D01*
X056054Y03361D01*
X056152Y033651D01*
X056235Y033715D01*
X056299Y033798D01*
X05634Y033896D01*
X056347Y03395D01*
D02*
G37*
G36*
X0558D02*
X055353D01*
X05536Y033896D01*
X055401Y033798D01*
X055465Y033715D01*
X055548Y033651D01*
X055646Y03361D01*
X05575Y033597D01*
X0558D01*
Y03395D01*
D02*
G37*
G36*
X05595Y033403D02*
X05575D01*
X055646Y03339D01*
X055548Y033349D01*
X055465Y033285D01*
X055401Y033202D01*
X05536Y033104D01*
X055347Y033D01*
X05536Y032896D01*
X055401Y032798D01*
X055465Y032715D01*
X055548Y032651D01*
X055646Y03261D01*
X05575Y032597D01*
X05595D01*
X056054Y03261D01*
X056152Y032651D01*
X056235Y032715D01*
X056299Y032798D01*
X05634Y032896D01*
X056353Y033D01*
X05634Y033104D01*
X056299Y033202D01*
X056235Y033285D01*
X056152Y033349D01*
X056054Y03339D01*
X05595Y033403D01*
D02*
G37*
G36*
Y032403D02*
X05575D01*
X055646Y03239D01*
X055548Y032349D01*
X055465Y032285D01*
X055401Y032202D01*
X05536Y032104D01*
X055347Y032D01*
X05536Y031896D01*
X055401Y031798D01*
X055465Y031715D01*
X055548Y031651D01*
X055646Y03161D01*
X05575Y031597D01*
X05595D01*
X056054Y03161D01*
X056152Y031651D01*
X056235Y031715D01*
X056299Y031798D01*
X05634Y031896D01*
X056353Y032D01*
X05634Y032104D01*
X056299Y032202D01*
X056235Y032285D01*
X056152Y032349D01*
X056054Y03239D01*
X05595Y032403D01*
D02*
G37*
G36*
X058347Y032131D02*
X058253D01*
X058163Y032107D01*
X058081Y03206D01*
X058015Y031994D01*
X057968Y031912D01*
X057944Y031822D01*
Y031728D01*
X057968Y031638D01*
X058015Y031556D01*
X058081Y03149D01*
X058163Y031443D01*
X058228Y031426D01*
Y031374D01*
X058163Y031357D01*
X058081Y03131D01*
X058015Y031244D01*
X057968Y031162D01*
X057944Y031072D01*
Y030978D01*
X057968Y030888D01*
X058015Y030806D01*
X058081Y03074D01*
X058163Y030693D01*
X058253Y030669D01*
X058347D01*
X058437Y030693D01*
X058519Y03074D01*
X058585Y030806D01*
X058632Y030888D01*
X058656Y030978D01*
Y031072D01*
X058632Y031162D01*
X058585Y031244D01*
X058519Y03131D01*
X058437Y031357D01*
X058372Y031374D01*
Y031426D01*
X058437Y031443D01*
X058519Y03149D01*
X058585Y031556D01*
X058632Y031638D01*
X058656Y031728D01*
Y031822D01*
X058632Y031912D01*
X058585Y031994D01*
X058519Y03206D01*
X058437Y032107D01*
X058347Y032131D01*
D02*
G37*
G36*
X05635Y0314D02*
X05535D01*
Y0306D01*
X05635D01*
Y0314D01*
D02*
G37*
G36*
X05295Y031403D02*
X05275D01*
X052646Y03139D01*
X052548Y031349D01*
X052465Y031285D01*
X052401Y031202D01*
X05236Y031104D01*
X052347Y031D01*
X05236Y030896D01*
X052401Y030798D01*
X052465Y030715D01*
X052548Y030651D01*
X052646Y03061D01*
X05275Y030597D01*
X05295D01*
X053054Y03061D01*
X053152Y030651D01*
X053235Y030715D01*
X053299Y030798D01*
X05334Y030896D01*
X053353Y031D01*
X05334Y031104D01*
X053299Y031202D01*
X053235Y031285D01*
X053152Y031349D01*
X053054Y03139D01*
X05295Y031403D01*
D02*
G37*
G36*
X067321Y031437D02*
X067204D01*
X067089Y031415D01*
X066982Y03137D01*
X066885Y031305D01*
X066802Y031223D01*
X066737Y031126D01*
X066693Y031018D01*
X06667Y030904D01*
Y030787D01*
X066693Y030673D01*
X066737Y030565D01*
X066802Y030468D01*
X066885Y030385D01*
X066982Y030321D01*
X067089Y030276D01*
X067204Y030253D01*
X067321D01*
X067435Y030276D01*
X067543Y030321D01*
X06764Y030385D01*
X067722Y030468D01*
X067787Y030565D01*
X067832Y030673D01*
X067854Y030787D01*
Y030904D01*
X067832Y031018D01*
X067787Y031126D01*
X067722Y031223D01*
X06764Y031305D01*
X067543Y03137D01*
X067435Y031415D01*
X067321Y031437D01*
D02*
G37*
G36*
X037793D02*
X037676D01*
X037562Y031415D01*
X037454Y03137D01*
X037357Y031305D01*
X037275Y031223D01*
X03721Y031126D01*
X037165Y031018D01*
X037143Y030904D01*
Y030787D01*
X037165Y030673D01*
X03721Y030565D01*
X037275Y030468D01*
X037357Y030385D01*
X037454Y030321D01*
X037562Y030276D01*
X037676Y030253D01*
X037793D01*
X037907Y030276D01*
X038015Y030321D01*
X038112Y030385D01*
X038195Y030468D01*
X038259Y030565D01*
X038304Y030673D01*
X038327Y030787D01*
Y030904D01*
X038304Y031018D01*
X038259Y031126D01*
X038195Y031223D01*
X038112Y031305D01*
X038015Y03137D01*
X037907Y031415D01*
X037793Y031437D01*
D02*
G37*
G36*
X040377Y028207D02*
X040023D01*
X03995Y028197D01*
X039883Y028169D01*
X039825Y028125D01*
X039781Y028067D01*
X039753Y028D01*
X039743Y027927D01*
Y027573D01*
X039753Y0275D01*
X039781Y027433D01*
X039825Y027375D01*
X039883Y027331D01*
X03995Y027303D01*
X040023Y027293D01*
X040377D01*
X04045Y027303D01*
X040517Y027331D01*
X040575Y027375D01*
X040619Y027433D01*
X040647Y0275D01*
X040657Y027573D01*
Y027927D01*
X040647Y028D01*
X040619Y028067D01*
X040575Y028125D01*
X040517Y028169D01*
X04045Y028197D01*
X040377Y028207D01*
D02*
G37*
G36*
X067048Y02795D02*
X066752D01*
X066656Y027931D01*
X066574Y027876D01*
X066519Y027794D01*
X0665Y027698D01*
Y027402D01*
X066519Y027306D01*
X066574Y027224D01*
X066656Y027169D01*
X066752Y02715D01*
X067048D01*
X067144Y027169D01*
X067226Y027224D01*
X067281Y027306D01*
X0673Y027402D01*
Y027698D01*
X067281Y027794D01*
X067226Y027876D01*
X067144Y027931D01*
X067048Y02795D01*
D02*
G37*
G36*
X066952Y026945D02*
X066848D01*
X066747Y026918D01*
X066657Y026866D01*
X066584Y026793D01*
X066532Y026703D01*
X066505Y026602D01*
Y026498D01*
X066532Y026397D01*
X066584Y026307D01*
X066657Y026234D01*
X066747Y026182D01*
X066848Y026155D01*
X066952D01*
X067053Y026182D01*
X067143Y026234D01*
X067216Y026307D01*
X067268Y026397D01*
X067295Y026498D01*
Y026602D01*
X067268Y026703D01*
X067216Y026793D01*
X067143Y026866D01*
X067053Y026918D01*
X066952Y026945D01*
D02*
G37*
G36*
Y025945D02*
X06695D01*
Y0256D01*
X067295D01*
Y025602D01*
X067268Y025703D01*
X067216Y025793D01*
X067143Y025866D01*
X067053Y025918D01*
X066952Y025945D01*
D02*
G37*
G36*
X06685D02*
X066848D01*
X066747Y025918D01*
X066657Y025866D01*
X066584Y025793D01*
X066532Y025703D01*
X066505Y025602D01*
Y0256D01*
X06685D01*
Y025945D01*
D02*
G37*
G36*
X067295Y0255D02*
X06695D01*
Y025155D01*
X066952D01*
X067053Y025182D01*
X067143Y025234D01*
X067216Y025307D01*
X067268Y025397D01*
X067295Y025498D01*
Y0255D01*
D02*
G37*
G36*
X06685D02*
X066505D01*
Y025498D01*
X066532Y025397D01*
X066584Y025307D01*
X066657Y025234D01*
X066747Y025182D01*
X066848Y025155D01*
X06685D01*
Y0255D01*
D02*
G37*
G36*
X04026Y025204D02*
X04014D01*
X040025Y025173D01*
X039921Y025114D01*
X039836Y025029D01*
X039777Y024925D01*
X039746Y02481D01*
Y02469D01*
X039777Y024575D01*
X039836Y024471D01*
X039921Y024386D01*
X040025Y024327D01*
X04014Y024296D01*
X04026D01*
X040375Y024327D01*
X040479Y024386D01*
X040564Y024471D01*
X040623Y024575D01*
X040654Y02469D01*
Y02481D01*
X040623Y024925D01*
X040564Y025029D01*
X040479Y025114D01*
X040375Y025173D01*
X04026Y025204D01*
D02*
G37*
G36*
X054945Y034825D02*
X054855D01*
X054773Y034791D01*
X054709Y034727D01*
X054675Y034645D01*
Y034555D01*
X054709Y034473D01*
X054747Y034435D01*
Y030209D01*
X054759Y03015D01*
X054792Y0301D01*
X05485Y030042D01*
X0549Y030009D01*
X054959Y029997D01*
X055287D01*
X055597Y029687D01*
Y024022D01*
X055547Y024012D01*
X055541Y024027D01*
X055503Y024065D01*
Y0294D01*
X055491Y029459D01*
X055458Y029508D01*
X055208Y029758D01*
X055159Y029791D01*
X0551Y029803D01*
X054263D01*
X054053Y030013D01*
Y03275D01*
Y03375D01*
X054041Y033809D01*
X054008Y033858D01*
X053758Y034108D01*
X053709Y034141D01*
X05365Y034153D01*
X05332D01*
X053299Y034202D01*
X053235Y034285D01*
X053152Y034349D01*
X053054Y03439D01*
X05295Y034403D01*
X05275D01*
X052646Y03439D01*
X052548Y034349D01*
X052465Y034285D01*
X052401Y034202D01*
X05236Y034104D01*
X052347Y034D01*
X05236Y033896D01*
X052401Y033798D01*
X052465Y033715D01*
X052548Y033651D01*
X052646Y03361D01*
X05275Y033597D01*
X05295D01*
X053054Y03361D01*
X053152Y033651D01*
X053235Y033715D01*
X053299Y033798D01*
X05332Y033847D01*
X053587D01*
X053747Y033687D01*
Y032813D01*
X053587Y032653D01*
X053233D01*
X053216Y0327D01*
X053235Y032715D01*
X053299Y032798D01*
X05334Y032896D01*
X053353Y033D01*
X05334Y033104D01*
X053299Y033202D01*
X053235Y033285D01*
X053152Y033349D01*
X053054Y03339D01*
X05295Y033403D01*
X05275D01*
X052646Y03339D01*
X052548Y033349D01*
X052465Y033285D01*
X052401Y033202D01*
X05238Y033153D01*
X0503D01*
X050241Y033141D01*
X050192Y033108D01*
X049742Y032658D01*
X049709Y032609D01*
X049697Y03255D01*
Y032263D01*
X049637Y032203D01*
X046115D01*
X046077Y032241D01*
X045995Y032275D01*
X045905D01*
X045823Y032241D01*
X045759Y032177D01*
X045725Y032095D01*
Y032005D01*
X045759Y031923D01*
X045823Y031859D01*
X045905Y031825D01*
X045995D01*
X046077Y031859D01*
X046115Y031897D01*
X0497D01*
X049759Y031909D01*
X049808Y031942D01*
X049958Y032092D01*
X049991Y032141D01*
X050003Y0322D01*
Y032487D01*
X050363Y032847D01*
X05238D01*
X052401Y032798D01*
X052465Y032715D01*
X052484Y0327D01*
X052467Y032653D01*
X05035D01*
X050291Y032641D01*
X050242Y032608D01*
X050142Y032508D01*
X050109Y032459D01*
X050097Y0324D01*
Y032063D01*
X049737Y031703D01*
X046115D01*
X046077Y031741D01*
X045995Y031775D01*
X045905D01*
X045823Y031741D01*
X045759Y031677D01*
X045725Y031595D01*
Y031505D01*
X045759Y031423D01*
X045823Y031359D01*
X045905Y031325D01*
X045995D01*
X046077Y031359D01*
X046115Y031397D01*
X0498D01*
X049859Y031409D01*
X049908Y031442D01*
X050358Y031892D01*
X050391Y031941D01*
X050403Y032D01*
Y032337D01*
X050413Y032347D01*
X052467D01*
X052484Y0323D01*
X052465Y032285D01*
X052401Y032202D01*
X05236Y032104D01*
X052347Y032D01*
X05236Y031896D01*
X052401Y031798D01*
X052465Y031715D01*
X052548Y031651D01*
X052646Y03161D01*
X05275Y031597D01*
X05295D01*
X053054Y03161D01*
X053152Y031651D01*
X053235Y031715D01*
X053299Y031798D01*
X05334Y031896D01*
X053353Y032D01*
X05334Y032104D01*
X053299Y032202D01*
X053235Y032285D01*
X053216Y0323D01*
X053233Y032347D01*
X05365D01*
X053697Y032356D01*
X053747Y032329D01*
Y02995D01*
X053759Y029891D01*
X053792Y029842D01*
X054092Y029542D01*
X054141Y029509D01*
X0542Y029497D01*
X055037D01*
X055197Y029337D01*
Y024065D01*
X055159Y024027D01*
X055125Y023945D01*
Y023855D01*
X055159Y023773D01*
X055223Y023709D01*
X055305Y023675D01*
X055395D01*
X055477Y023709D01*
X055541Y023773D01*
X055547Y023788D01*
X055597Y023778D01*
Y023515D01*
X055559Y023477D01*
X055525Y023395D01*
Y023305D01*
X055559Y023223D01*
X055623Y023159D01*
X055705Y023125D01*
X055795D01*
X055877Y023159D01*
X055941Y023223D01*
X055975Y023305D01*
Y023395D01*
X055941Y023477D01*
X055903Y023515D01*
Y02975D01*
X055891Y029809D01*
X055858Y029858D01*
X055458Y030258D01*
X055409Y030291D01*
X05535Y030303D01*
X055053D01*
Y034435D01*
X055091Y034473D01*
X055125Y034555D01*
Y034645D01*
X055091Y034727D01*
X055027Y034791D01*
X054945Y034825D01*
D02*
G37*
G36*
X053662Y026533D02*
X053573D01*
X05349Y026499D01*
X053427Y026436D01*
X053393Y026353D01*
Y026263D01*
X053427Y026181D01*
X053465Y026143D01*
Y022496D01*
X053022Y022053D01*
X050554D01*
X050538Y022112D01*
X050465Y022238D01*
X050363Y02234D01*
X050237Y022413D01*
X050098Y02245D01*
X049953D01*
X049813Y022413D01*
X049687Y02234D01*
X049585Y022238D01*
X049513Y022112D01*
X049497Y022053D01*
X04755D01*
X047491Y022041D01*
X047442Y022008D01*
X046992Y021558D01*
X046959Y021509D01*
X046947Y02145D01*
Y021133D01*
X0469Y021116D01*
X046885Y021135D01*
X046802Y021199D01*
X046704Y02124D01*
X0466Y021253D01*
X046496Y02124D01*
X046398Y021199D01*
X046315Y021135D01*
X046251Y021052D01*
X04621Y020954D01*
X046197Y02085D01*
Y02075D01*
X04621Y020646D01*
X046251Y020548D01*
X046315Y020465D01*
X046398Y020401D01*
X046496Y02036D01*
X0466Y020347D01*
X046704Y02036D01*
X046802Y020401D01*
X046885Y020465D01*
X0469Y020484D01*
X046947Y020467D01*
Y019213D01*
X046637Y018903D01*
X039413Y018903D01*
X039153Y019163D01*
Y02038D01*
X039202Y020401D01*
X039285Y020465D01*
X039349Y020548D01*
X03939Y020646D01*
X039403Y02075D01*
Y02085D01*
X03939Y020954D01*
X039349Y021052D01*
X039285Y021135D01*
X039202Y021199D01*
X039104Y02124D01*
X039Y021253D01*
X038896Y02124D01*
X038798Y021199D01*
X038715Y021135D01*
X038651Y021052D01*
X03861Y020954D01*
X038597Y02085D01*
Y02075D01*
X03861Y020646D01*
X038651Y020548D01*
X038715Y020465D01*
X038798Y020401D01*
X038847Y02038D01*
Y0191D01*
X038859Y019041D01*
X038892Y018992D01*
X039242Y018642D01*
X039291Y018609D01*
X03935Y018597D01*
X0467Y018597D01*
X046759Y018609D01*
X046808Y018642D01*
X047208Y019042D01*
X047241Y019091D01*
X047253Y01915D01*
Y020467D01*
X0473Y020484D01*
X047315Y020465D01*
X047398Y020401D01*
X047496Y02036D01*
X0476Y020347D01*
X047704Y02036D01*
X047802Y020401D01*
X047885Y020465D01*
X047949Y020548D01*
X04799Y020646D01*
X048003Y02075D01*
Y02085D01*
X04799Y020954D01*
X047949Y021052D01*
X047885Y021135D01*
X047802Y021199D01*
X047704Y02124D01*
X0476Y021253D01*
X047496Y02124D01*
X047398Y021199D01*
X047315Y021135D01*
X0473Y021116D01*
X047253Y021133D01*
Y021387D01*
X047613Y021747D01*
X049497D01*
X049513Y021688D01*
X049585Y021562D01*
X049687Y02146D01*
X049813Y021387D01*
X049953Y02135D01*
X050098D01*
X050237Y021387D01*
X050363Y02146D01*
X050465Y021562D01*
X050538Y021688D01*
X050554Y021747D01*
X054497D01*
X054513Y021688D01*
X054585Y021562D01*
X054687Y02146D01*
X054813Y021387D01*
X054953Y02135D01*
X055098D01*
X055237Y021387D01*
X055363Y02146D01*
X055465Y021562D01*
X055538Y021688D01*
X055575Y021828D01*
Y021972D01*
X055538Y022112D01*
X055465Y022238D01*
X055363Y02234D01*
X055237Y022413D01*
X055098Y02245D01*
X054953D01*
X054813Y022413D01*
X054687Y02234D01*
X054585Y022238D01*
X054513Y022112D01*
X054497Y022053D01*
X05352D01*
X053501Y022099D01*
X053726Y022324D01*
X053759Y022374D01*
X053771Y022432D01*
Y026143D01*
X053808Y026181D01*
X053843Y026263D01*
Y026353D01*
X053808Y026436D01*
X053745Y026499D01*
X053662Y026533D01*
D02*
G37*
G36*
X052695D02*
X052605D01*
X052523Y026499D01*
X052459Y026436D01*
X052425Y026353D01*
Y026263D01*
X052459Y026181D01*
X052497Y026143D01*
Y023113D01*
X052287Y022903D01*
X04595D01*
X045891Y022891D01*
X045842Y022858D01*
X045542Y022558D01*
X045509Y022509D01*
X045497Y02245D01*
Y022378D01*
X045438Y022363D01*
X045312Y02229D01*
X04521Y022188D01*
X045137Y022062D01*
X045122Y022003D01*
X041178D01*
X041163Y022062D01*
X04109Y022188D01*
X040988Y02229D01*
X040862Y022363D01*
X040722Y0224D01*
X040578D01*
X040438Y022363D01*
X040312Y02229D01*
X04021Y022188D01*
X040137Y022062D01*
X040122Y022003D01*
X0373D01*
X037241Y021991D01*
X037192Y021958D01*
X036892Y021658D01*
X036859Y021609D01*
X036847Y02155D01*
Y02125D01*
X0366D01*
Y02035D01*
X0374D01*
Y02125D01*
X037153D01*
Y021487D01*
X037363Y021697D01*
X040122D01*
X040137Y021638D01*
X04021Y021512D01*
X040312Y02141D01*
X040438Y021337D01*
X040578Y0213D01*
X040722D01*
X040862Y021337D01*
X040988Y02141D01*
X04109Y021512D01*
X041163Y021638D01*
X041178Y021697D01*
X045122D01*
X045137Y021638D01*
X04521Y021512D01*
X045312Y02141D01*
X045438Y021337D01*
X045578Y0213D01*
X045722D01*
X045862Y021337D01*
X045988Y02141D01*
X04609Y021512D01*
X046163Y021638D01*
X0462Y021778D01*
Y021922D01*
X046163Y022062D01*
X04609Y022188D01*
X045988Y02229D01*
X045862Y022363D01*
X045852Y022365D01*
X045837Y022421D01*
X046013Y022597D01*
X05235D01*
X052409Y022609D01*
X052458Y022642D01*
X052758Y022942D01*
X052791Y022991D01*
X052803Y02305D01*
Y026143D01*
X052841Y026181D01*
X052875Y026263D01*
Y026353D01*
X052841Y026436D01*
X052777Y026499D01*
X052695Y026533D01*
D02*
G37*
G36*
X05463D02*
X054541D01*
X054458Y026499D01*
X054395Y026436D01*
X05436Y026353D01*
Y026263D01*
X054395Y026181D01*
X054432Y026143D01*
Y023065D01*
X054444Y023006D01*
X054477Y022956D01*
X054842Y022592D01*
X054891Y022559D01*
X05495Y022547D01*
X056637D01*
X057047Y022137D01*
Y0214D01*
Y018963D01*
X056587Y018503D01*
X038863D01*
X038153Y019213D01*
Y02038D01*
X038202Y020401D01*
X038285Y020465D01*
X038349Y020548D01*
X03839Y020646D01*
X038403Y02075D01*
Y02085D01*
X03839Y020954D01*
X038349Y021052D01*
X038285Y021135D01*
X038202Y021199D01*
X038104Y02124D01*
X038Y021253D01*
X037896Y02124D01*
X037798Y021199D01*
X037715Y021135D01*
X037651Y021052D01*
X03761Y020954D01*
X037597Y02085D01*
Y02075D01*
X03761Y020646D01*
X037651Y020548D01*
X037715Y020465D01*
X037798Y020401D01*
X037847Y02038D01*
Y01915D01*
X037859Y019091D01*
X037892Y019042D01*
X037973Y018961D01*
X037948Y018915D01*
X037872Y01893D01*
X037728D01*
X037587Y018902D01*
X037454Y018847D01*
X037335Y018767D01*
X037233Y018665D01*
X037153Y018546D01*
X037098Y018413D01*
X03707Y018272D01*
Y018128D01*
X037098Y017987D01*
X037153Y017854D01*
X037233Y017735D01*
X037335Y017633D01*
X037454Y017553D01*
X037587Y017498D01*
X037728Y01747D01*
X037872D01*
X038013Y017498D01*
X038146Y017553D01*
X038265Y017633D01*
X038367Y017735D01*
X038447Y017854D01*
X038502Y017987D01*
X03853Y018128D01*
Y018272D01*
X038515Y018348D01*
X038561Y018373D01*
X038692Y018242D01*
X038741Y018209D01*
X0388Y018197D01*
X05665D01*
X056709Y018209D01*
X056758Y018242D01*
X057308Y018792D01*
X057341Y018841D01*
X057353Y0189D01*
Y021337D01*
X057713Y021697D01*
X058872D01*
X058887Y021638D01*
X05896Y021512D01*
X059062Y02141D01*
X059188Y021337D01*
X059328Y0213D01*
X059472D01*
X059612Y021337D01*
X059738Y02141D01*
X05984Y021512D01*
X059913Y021638D01*
X059928Y021697D01*
X063872D01*
X063887Y021638D01*
X06396Y021512D01*
X064062Y02141D01*
X064188Y021337D01*
X064328Y0213D01*
X064472D01*
X064612Y021337D01*
X064738Y02141D01*
X06484Y021512D01*
X064913Y021638D01*
X06495Y021778D01*
Y021922D01*
X064913Y022062D01*
X06484Y022188D01*
X064738Y02229D01*
X064612Y022363D01*
X064472Y0224D01*
X064328D01*
X064188Y022363D01*
X064062Y02229D01*
X06396Y022188D01*
X063887Y022062D01*
X063872Y022003D01*
X059928D01*
X059913Y022062D01*
X05984Y022188D01*
X059738Y02229D01*
X059612Y022363D01*
X059472Y0224D01*
X059328D01*
X059188Y022363D01*
X059062Y02229D01*
X05896Y022188D01*
X058887Y022062D01*
X058872Y022003D01*
X05765D01*
X057591Y021991D01*
X057542Y021958D01*
X057399Y021815D01*
X057353Y021835D01*
Y0222D01*
X057341Y022259D01*
X057308Y022308D01*
X056808Y022808D01*
X056759Y022841D01*
X0567Y022853D01*
X055013D01*
X054738Y023128D01*
Y026143D01*
X054776Y026181D01*
X05481Y026263D01*
Y026353D01*
X054776Y026436D01*
X054713Y026499D01*
X05463Y026533D01*
D02*
G37*
G36*
X05165Y021247D02*
Y02085D01*
X052003D01*
X05199Y020954D01*
X051949Y021052D01*
X051885Y021135D01*
X051802Y021199D01*
X051704Y02124D01*
X05165Y021247D01*
D02*
G37*
G36*
X05155D02*
X051496Y02124D01*
X051398Y021199D01*
X051315Y021135D01*
X051251Y021052D01*
X05121Y020954D01*
X051197Y02085D01*
D01*
X05155D01*
Y021247D01*
D02*
G37*
G36*
X052003Y02075D02*
X05165D01*
Y020353D01*
X051704Y02036D01*
X051802Y020401D01*
X051885Y020465D01*
X051949Y020548D01*
X05199Y020646D01*
X052003Y02075D01*
D01*
D02*
G37*
G36*
X05155D02*
X051197D01*
X05121Y020646D01*
X051251Y020548D01*
X051315Y020465D01*
X051398Y020401D01*
X051496Y02036D01*
X05155Y020353D01*
Y02075D01*
D02*
G37*
G36*
X0536Y021253D02*
X053496Y02124D01*
X053398Y021199D01*
X053315Y021135D01*
X053251Y021052D01*
X05321Y020954D01*
X053197Y02085D01*
Y02075D01*
X05321Y020646D01*
X053251Y020548D01*
X053315Y020465D01*
X053398Y020401D01*
X053496Y02036D01*
X0536Y020347D01*
X053704Y02036D01*
X053802Y020401D01*
X053885Y020465D01*
X053949Y020548D01*
X05399Y020646D01*
X054003Y02075D01*
Y02085D01*
X05399Y020954D01*
X053949Y021052D01*
X053885Y021135D01*
X053802Y021199D01*
X053704Y02124D01*
X0536Y021253D01*
D02*
G37*
G36*
X0526D02*
X052496Y02124D01*
X052398Y021199D01*
X052315Y021135D01*
X052251Y021052D01*
X05221Y020954D01*
X052197Y02085D01*
Y02075D01*
X05221Y020646D01*
X052251Y020548D01*
X052315Y020465D01*
X052398Y020401D01*
X052496Y02036D01*
X0526Y020347D01*
X052704Y02036D01*
X052802Y020401D01*
X052885Y020465D01*
X052949Y020548D01*
X05299Y020646D01*
X053003Y02075D01*
Y02085D01*
X05299Y020954D01*
X052949Y021052D01*
X052885Y021135D01*
X052802Y021199D01*
X052704Y02124D01*
X0526Y021253D01*
D02*
G37*
G36*
X0506D02*
X050496Y02124D01*
X050398Y021199D01*
X050315Y021135D01*
X050251Y021052D01*
X05021Y020954D01*
X050197Y02085D01*
Y02075D01*
X05021Y020646D01*
X050251Y020548D01*
X050315Y020465D01*
X050398Y020401D01*
X050496Y02036D01*
X0506Y020347D01*
X050704Y02036D01*
X050802Y020401D01*
X050885Y020465D01*
X050949Y020548D01*
X05099Y020646D01*
X051003Y02075D01*
Y02085D01*
X05099Y020954D01*
X050949Y021052D01*
X050885Y021135D01*
X050802Y021199D01*
X050704Y02124D01*
X0506Y021253D01*
D02*
G37*
G36*
X0486D02*
X048496Y02124D01*
X048398Y021199D01*
X048315Y021135D01*
X048251Y021052D01*
X04821Y020954D01*
X048197Y02085D01*
Y02075D01*
X04821Y020646D01*
X048251Y020548D01*
X048315Y020465D01*
X048398Y020401D01*
X048496Y02036D01*
X0486Y020347D01*
X048704Y02036D01*
X048802Y020401D01*
X048885Y020465D01*
X048949Y020548D01*
X04899Y020646D01*
X049003Y02075D01*
Y02085D01*
X04899Y020954D01*
X048949Y021052D01*
X048885Y021135D01*
X048802Y021199D01*
X048704Y02124D01*
X0486Y021253D01*
D02*
G37*
G36*
X044D02*
X043896Y02124D01*
X043798Y021199D01*
X043715Y021135D01*
X043651Y021052D01*
X04361Y020954D01*
X043597Y02085D01*
Y02075D01*
X04361Y020646D01*
X043651Y020548D01*
X043715Y020465D01*
X043798Y020401D01*
X043896Y02036D01*
X044Y020347D01*
X044104Y02036D01*
X044202Y020401D01*
X044285Y020465D01*
X044349Y020548D01*
X04439Y020646D01*
X044403Y02075D01*
Y02085D01*
X04439Y020954D01*
X044349Y021052D01*
X044285Y021135D01*
X044202Y021199D01*
X044104Y02124D01*
X044Y021253D01*
D02*
G37*
G36*
X043D02*
X042896Y02124D01*
X042798Y021199D01*
X042715Y021135D01*
X042651Y021052D01*
X04261Y020954D01*
X042597Y02085D01*
Y02075D01*
X04261Y020646D01*
X042651Y020548D01*
X042715Y020465D01*
X042798Y020401D01*
X042896Y02036D01*
X043Y020347D01*
X043104Y02036D01*
X043202Y020401D01*
X043285Y020465D01*
X043349Y020548D01*
X04339Y020646D01*
X043403Y02075D01*
Y02085D01*
X04339Y020954D01*
X043349Y021052D01*
X043285Y021135D01*
X043202Y021199D01*
X043104Y02124D01*
X043Y021253D01*
D02*
G37*
G36*
X042D02*
X041896Y02124D01*
X041798Y021199D01*
X041715Y021135D01*
X041651Y021052D01*
X04161Y020954D01*
X041597Y02085D01*
Y02075D01*
X04161Y020646D01*
X041651Y020548D01*
X041715Y020465D01*
X041798Y020401D01*
X041896Y02036D01*
X042Y020347D01*
X042104Y02036D01*
X042202Y020401D01*
X042285Y020465D01*
X042349Y020548D01*
X04239Y020646D01*
X042403Y02075D01*
Y02085D01*
X04239Y020954D01*
X042349Y021052D01*
X042285Y021135D01*
X042202Y021199D01*
X042104Y02124D01*
X042Y021253D01*
D02*
G37*
G36*
X041D02*
X040896Y02124D01*
X040798Y021199D01*
X040715Y021135D01*
X040651Y021052D01*
X04061Y020954D01*
X040597Y02085D01*
Y02075D01*
X04061Y020646D01*
X040651Y020548D01*
X040715Y020465D01*
X040719Y020461D01*
X04072Y020449D01*
X0407Y020429D01*
Y0199D01*
X0412D01*
Y019922D01*
X041163Y020062D01*
X04109Y020188D01*
X040988Y02029D01*
X040971Y0203D01*
X040987Y020348D01*
X041Y020347D01*
X041104Y02036D01*
X041202Y020401D01*
X041285Y020465D01*
X041349Y020548D01*
X04139Y020646D01*
X041403Y02075D01*
Y02085D01*
X04139Y020954D01*
X041349Y021052D01*
X041285Y021135D01*
X041202Y021199D01*
X041104Y02124D01*
X041Y021253D01*
D02*
G37*
G36*
X04D02*
X039896Y02124D01*
X039798Y021199D01*
X039715Y021135D01*
X039651Y021052D01*
X03961Y020954D01*
X039597Y02085D01*
Y02075D01*
X03961Y020646D01*
X039651Y020548D01*
X039715Y020465D01*
X039798Y020401D01*
X039896Y02036D01*
X04Y020347D01*
X040104Y02036D01*
X040202Y020401D01*
X040285Y020465D01*
X040349Y020548D01*
X04039Y020646D01*
X040403Y02075D01*
Y02085D01*
X04039Y020954D01*
X040349Y021052D01*
X040285Y021135D01*
X040202Y021199D01*
X040104Y02124D01*
X04Y021253D01*
D02*
G37*
G36*
X050098Y02045D02*
X050075D01*
Y01995D01*
X050575D01*
Y019972D01*
X050538Y020112D01*
X050465Y020238D01*
X050363Y02034D01*
X050237Y020413D01*
X050098Y02045D01*
D02*
G37*
G36*
X055098D02*
X055075D01*
Y01995D01*
X055575D01*
Y019972D01*
X055538Y020112D01*
X055465Y020238D01*
X055363Y02034D01*
X055237Y020413D01*
X055098Y02045D01*
D02*
G37*
G36*
X0496Y021253D02*
X049496Y02124D01*
X049398Y021199D01*
X049315Y021135D01*
X049251Y021052D01*
X04921Y020954D01*
X049197Y02085D01*
Y02075D01*
X04921Y020646D01*
X049251Y020548D01*
X049315Y020465D01*
X049398Y020401D01*
X049496Y02036D01*
X0496Y020347D01*
X049627Y02035D01*
X04965Y020303D01*
X049585Y020238D01*
X049513Y020112D01*
X049475Y019972D01*
Y01995D01*
X049975D01*
Y02045D01*
X049953D01*
X049933Y020445D01*
X049904Y020489D01*
X049949Y020548D01*
X04999Y020646D01*
X050003Y02075D01*
Y02085D01*
X04999Y020954D01*
X049949Y021052D01*
X049885Y021135D01*
X049802Y021199D01*
X049704Y02124D01*
X0496Y021253D01*
D02*
G37*
G36*
X0546D02*
X054496Y02124D01*
X054398Y021199D01*
X054315Y021135D01*
X054251Y021052D01*
X05421Y020954D01*
X054197Y02085D01*
Y02075D01*
X05421Y020646D01*
X054251Y020548D01*
X054315Y020465D01*
X054398Y020401D01*
X054496Y02036D01*
X0546Y020347D01*
X054627Y02035D01*
X05465Y020303D01*
X054585Y020238D01*
X054513Y020112D01*
X054475Y019972D01*
Y01995D01*
X054975D01*
Y02045D01*
X054953D01*
X054933Y020445D01*
X054904Y020489D01*
X054949Y020548D01*
X05499Y020646D01*
X055003Y02075D01*
Y02085D01*
X05499Y020954D01*
X054949Y021052D01*
X054885Y021135D01*
X054802Y021199D01*
X054704Y02124D01*
X0546Y021253D01*
D02*
G37*
G36*
X064472Y0204D02*
X06445D01*
Y0199D01*
X06495D01*
Y019922D01*
X064913Y020062D01*
X06484Y020188D01*
X064738Y02029D01*
X064612Y020363D01*
X064472Y0204D01*
D02*
G37*
G36*
X059472D02*
X05945D01*
Y0199D01*
X05995D01*
Y019922D01*
X059913Y020062D01*
X05984Y020188D01*
X059738Y02029D01*
X059612Y020363D01*
X059472Y0204D01*
D02*
G37*
G36*
X05935D02*
X059328D01*
X059188Y020363D01*
X059062Y02029D01*
X05896Y020188D01*
X058887Y020062D01*
X05885Y019922D01*
Y0199D01*
X05935D01*
Y0204D01*
D02*
G37*
G36*
X06435D02*
X064328D01*
X064188Y020363D01*
X064062Y02029D01*
X06396Y020188D01*
X063887Y020062D01*
X06385Y019922D01*
Y0199D01*
X06435D01*
Y0204D01*
D02*
G37*
G36*
X0406D02*
X040578D01*
X040438Y020363D01*
X040312Y02029D01*
X04021Y020188D01*
X040137Y020062D01*
X0401Y019922D01*
Y0199D01*
X0406D01*
Y0204D01*
D02*
G37*
G36*
X046Y02125D02*
X0452D01*
Y02035D01*
X045319D01*
X045332Y020302D01*
X045312Y02029D01*
X04521Y020188D01*
X045137Y020062D01*
X0451Y019922D01*
Y0199D01*
X04565D01*
X0462D01*
Y019922D01*
X046163Y020062D01*
X04609Y020188D01*
X045988Y02029D01*
X045968Y020302D01*
X045981Y02035D01*
X046D01*
Y02125D01*
D02*
G37*
G36*
X055575Y01985D02*
X055075D01*
Y01935D01*
X055098D01*
X055237Y019387D01*
X055363Y01946D01*
X055465Y019562D01*
X055538Y019688D01*
X055575Y019828D01*
Y01985D01*
D02*
G37*
G36*
X054975D02*
X054475D01*
Y019828D01*
X054513Y019688D01*
X054585Y019562D01*
X054687Y01946D01*
X054813Y019387D01*
X054953Y01935D01*
X054975D01*
Y01985D01*
D02*
G37*
G36*
X050575D02*
X050075D01*
Y01935D01*
X050098D01*
X050237Y019387D01*
X050363Y01946D01*
X050465Y019562D01*
X050538Y019688D01*
X050575Y019828D01*
Y01985D01*
D02*
G37*
G36*
X049975D02*
X049475D01*
Y019828D01*
X049513Y019688D01*
X049585Y019562D01*
X049687Y01946D01*
X049813Y019387D01*
X049953Y01935D01*
X049975D01*
Y01985D01*
D02*
G37*
G36*
X06495Y0198D02*
X06445D01*
Y0193D01*
X064472D01*
X064612Y019337D01*
X064738Y01941D01*
X06484Y019512D01*
X064913Y019638D01*
X06495Y019778D01*
Y0198D01*
D02*
G37*
G36*
X06435D02*
X06385D01*
Y019778D01*
X063887Y019638D01*
X06396Y019512D01*
X064062Y01941D01*
X064188Y019337D01*
X064328Y0193D01*
X06435D01*
Y0198D01*
D02*
G37*
G36*
X05995D02*
X05945D01*
Y0193D01*
X059472D01*
X059612Y019337D01*
X059738Y01941D01*
X05984Y019512D01*
X059913Y019638D01*
X05995Y019778D01*
Y0198D01*
D02*
G37*
G36*
X05935D02*
X05885D01*
Y019778D01*
X058887Y019638D01*
X05896Y019512D01*
X059062Y01941D01*
X059188Y019337D01*
X059328Y0193D01*
X05935D01*
Y0198D01*
D02*
G37*
G36*
X0462D02*
X0457D01*
Y0193D01*
X045722D01*
X045862Y019337D01*
X045988Y01941D01*
X04609Y019512D01*
X046163Y019638D01*
X0462Y019778D01*
Y0198D01*
D02*
G37*
G36*
X0456D02*
X0451D01*
Y019778D01*
X045137Y019638D01*
X04521Y019512D01*
X045312Y01941D01*
X045438Y019337D01*
X045578Y0193D01*
X0456D01*
Y0198D01*
D02*
G37*
G36*
X0412D02*
X0407D01*
Y0193D01*
X040722D01*
X040862Y019337D01*
X040988Y01941D01*
X04109Y019512D01*
X041163Y019638D01*
X0412Y019778D01*
Y0198D01*
D02*
G37*
G36*
X0406D02*
X0401D01*
Y019778D01*
X040137Y019638D01*
X04021Y019512D01*
X040312Y01941D01*
X040438Y019337D01*
X040578Y0193D01*
X0406D01*
Y0198D01*
D02*
G37*
G36*
X067472Y01893D02*
X067328D01*
X067187Y018902D01*
X067054Y018847D01*
X066935Y018767D01*
X066833Y018665D01*
X066753Y018546D01*
X066698Y018413D01*
X06667Y018272D01*
Y018128D01*
X066698Y017987D01*
X066753Y017854D01*
X066833Y017735D01*
X066935Y017633D01*
X067054Y017553D01*
X067187Y017498D01*
X067328Y01747D01*
X067472D01*
X067613Y017498D01*
X067746Y017553D01*
X067865Y017633D01*
X067967Y017735D01*
X068047Y017854D01*
X068102Y017987D01*
X06813Y018128D01*
Y018272D01*
X068102Y018413D01*
X068047Y018546D01*
X067967Y018665D01*
X067865Y018767D01*
X067746Y018847D01*
X067613Y018902D01*
X067472Y01893D01*
D02*
G37*
%LPD*%
D11*
X0594Y02185D02*
X0644D01*
X05765D02*
X0594D01*
X0572Y0214D02*
X05765Y02185D01*
X0572Y0214D02*
Y0222D01*
Y0189D02*
Y0214D01*
X04435Y03595D02*
X04645D01*
X04395Y027D02*
Y03555D01*
X04435Y03595D01*
X037Y0208D02*
Y02155D01*
X0373Y02185D02*
X04065D01*
X037Y02155D02*
X0373Y02185D01*
X054959Y03015D02*
X05535D01*
X05575Y02975D01*
X0549Y030209D02*
Y0346D01*
Y030209D02*
X054959Y03015D01*
X0551Y02965D02*
X05535Y0294D01*
X0542Y02965D02*
X0551D01*
X05535Y0239D02*
Y0294D01*
X0539Y02995D02*
Y03275D01*
Y02995D02*
X0542Y02965D01*
X05575Y02335D02*
Y02975D01*
X04565Y02185D02*
Y02245D01*
X04595Y02275D01*
X05235D01*
X0567Y0227D02*
X0572Y0222D01*
X05495Y0227D02*
X0567D01*
X0388Y01835D02*
X05665D01*
X0572Y0189D01*
X038Y01915D02*
Y0208D01*
Y01915D02*
X0388Y01835D01*
X039Y0191D02*
X03935Y01875D01*
X039Y0191D02*
Y0208D01*
X053085Y0219D02*
X055025D01*
X053085D02*
X053618Y022432D01*
X050025Y0219D02*
X053085D01*
X03935Y01875D02*
X0467Y01875D01*
X0471Y01915D02*
Y02145D01*
X0467Y01875D02*
X0471Y01915D01*
X048575Y033025D02*
X04905Y03255D01*
X048825Y033375D02*
X04915Y03305D01*
X049075Y033825D02*
Y038132D01*
Y033825D02*
X04935Y03355D01*
X048575Y033025D02*
Y037925D01*
X048257Y03895D02*
X049075Y038132D01*
X048825Y033375D02*
Y038029D01*
X048154Y0387D02*
X048825Y038029D01*
X04805Y03845D02*
X048575Y037925D01*
X043807Y03895D02*
X048257D01*
X043704Y0387D02*
X048154D01*
X0436Y03845D02*
X04805D01*
X04755Y0219D02*
X050025D01*
X0471Y02145D02*
X04755Y0219D01*
X04065Y02185D02*
X04565D01*
X04985Y0322D02*
Y03255D01*
X04595Y03205D02*
X0497D01*
X04985Y0322D01*
Y03255D02*
X0503Y033D01*
X0498Y03155D02*
X05025Y032D01*
X0503Y033D02*
X05285D01*
X05365Y0325D02*
X0539Y03275D01*
Y03375D01*
X05365Y034D02*
X0539Y03375D01*
X05035Y0325D02*
X05365D01*
X05025Y0324D02*
X05035Y0325D01*
X05025Y032D02*
Y0324D01*
X04595Y03155D02*
X0498D01*
X05285Y034D02*
X05365D01*
X04905Y03255D02*
X04935D01*
X0419Y04305D02*
X04265Y0423D01*
Y039D02*
Y0423D01*
Y039D02*
X04345Y0382D01*
Y02755D02*
Y0382D01*
X0447Y0423D02*
X0449Y0425D01*
X0434Y039357D02*
Y04205D01*
Y039357D02*
X043807Y03895D01*
X04315Y039254D02*
X043704Y0387D01*
X0449Y0425D02*
Y04305D01*
X04365Y0423D02*
X0447D01*
X0434Y04205D02*
X04365Y0423D01*
X04315Y039254D02*
Y0423D01*
X0439Y04305D01*
Y04305D01*
X0429Y03915D02*
Y04305D01*
Y03915D02*
X0436Y03845D01*
X04915Y03305D02*
X04935D01*
X05235Y02275D02*
X05265Y02305D01*
X054585Y023065D02*
X05495Y0227D01*
X054585Y023065D02*
Y026308D01*
X05265Y02305D02*
Y026308D01*
X053618Y022432D02*
Y026308D01*
X0697Y0424D02*
G03*
X0677Y0444I-002J0D01*
G01*
Y01605D02*
G03*
X0697Y01805I0J002D01*
G01*
X037545Y0444D02*
G03*
X035545Y0424I0J-002D01*
G01*
Y01805D02*
G03*
X037545Y01605I002J0D01*
G01*
X0677D01*
X037545Y0444D02*
X0677D01*
X0697Y01805D02*
Y0424D01*
X035545Y01805D02*
Y0424D01*
D53*
X037735Y030845D02*
D03*
X067262D02*
D03*
Y04305D02*
D03*
X037735D02*
D03*
D54*
X0549D02*
D03*
X0539D02*
D03*
X0529D02*
D03*
X0519D02*
D03*
X0509D02*
D03*
X0499D02*
D03*
X0489D02*
D03*
X0479D02*
D03*
X0469D02*
D03*
X0459D02*
D03*
X0449D02*
D03*
X0439D02*
D03*
X0429D02*
D03*
X0419D02*
D03*
X0409D02*
D03*
D55*
X0399D02*
D03*
D56*
X0546Y0208D02*
D03*
X0536D02*
D03*
X051Y0398D02*
D03*
X05D02*
D03*
X048D02*
D03*
X047D02*
D03*
X046D02*
D03*
X045D02*
D03*
X044D02*
D03*
X041D02*
D03*
X04D02*
D03*
X039D02*
D03*
X038D02*
D03*
X037D02*
D03*
X038Y0208D02*
D03*
X039D02*
D03*
X04D02*
D03*
X041D02*
D03*
X042D02*
D03*
X043D02*
D03*
X044D02*
D03*
X0466D02*
D03*
X0476D02*
D03*
X0486D02*
D03*
X0496D02*
D03*
X0506D02*
D03*
X0516D02*
D03*
X0526D02*
D03*
D57*
X049Y0398D02*
D03*
X042D02*
D03*
X037Y0208D02*
D03*
X0456D02*
D03*
D58*
X0583Y031025D02*
D03*
Y031775D02*
D03*
D59*
X0674Y0182D02*
D03*
X0378D02*
D03*
D60*
X04065Y01985D02*
D03*
Y02185D02*
D03*
X04565Y01985D02*
D03*
Y02185D02*
D03*
X0594Y01985D02*
D03*
Y02185D02*
D03*
X0644Y01985D02*
D03*
Y02185D02*
D03*
X050025Y0199D02*
D03*
Y0219D02*
D03*
X055025Y0199D02*
D03*
Y0219D02*
D03*
D61*
X0402Y02775D02*
D03*
D62*
Y02475D02*
D03*
D65*
X0669Y02555D02*
D03*
Y02655D02*
D03*
D66*
Y02755D02*
D03*
D67*
X0659Y03735D02*
D03*
D68*
X0579D02*
D03*
D69*
X042816Y034116D02*
D03*
X04645Y03595D02*
D03*
X04395Y027D02*
D03*
X05535Y0239D02*
D03*
X05575Y02335D02*
D03*
X0549Y0346D02*
D03*
X04935Y03255D02*
D03*
X04595Y03205D02*
D03*
Y03155D02*
D03*
X04345Y02755D02*
D03*
X04935Y03305D02*
D03*
Y03355D02*
D03*
X054585Y026308D02*
D03*
X05265D02*
D03*
X053618D02*
D03*
D70*
X05585Y031D02*
D03*
D71*
Y032D02*
D03*
Y033D02*
D03*
Y034D02*
D03*
X05285D02*
D03*
Y033D02*
D03*
Y032D02*
D03*
Y031D02*
D03*
M02*
