G04*
G04 #@! TF.GenerationSoftware,Altium Limited,Altium Designer,21.3.2 (30)*
G04*
G04 Layer_Color=16711935*
%FSTAX24Y24*%
%MOIN*%
G70*
G04*
G04 #@! TF.SameCoordinates,A58ECD2F-0E49-4CC9-AAE6-1995A15C2F52*
G04*
G04*
G04 #@! TF.FilePolarity,Positive*
G04*
G01*
G75*
%ADD15C,0.0039*%
%ADD74C,0.0000*%
%ADD75R,0.0492X0.0106*%
D15*
X064334Y027863D02*
X064866D01*
X064334Y027037D02*
X064866D01*
Y027863D01*
X064334Y027037D02*
Y027863D01*
X051135Y034459D02*
Y03501D01*
X049954Y034459D02*
Y03501D01*
X051135D01*
X049954Y034459D02*
X051135D01*
X053863Y034984D02*
Y035516D01*
X053037Y034984D02*
Y035516D01*
Y034984D02*
X053863D01*
X053037Y035516D02*
X053863D01*
X052365Y024783D02*
Y025649D01*
Y024783D02*
X052935D01*
X052365Y025649D02*
X052935D01*
Y024783D02*
Y025649D01*
X053332Y024783D02*
Y025649D01*
Y024783D02*
X053903D01*
X053332Y025649D02*
X053903D01*
Y024783D02*
Y025649D01*
X0543Y024783D02*
Y025649D01*
Y024783D02*
X054871D01*
X0543Y025649D02*
X054871D01*
Y024783D02*
Y025649D01*
X050659Y024974D02*
X051841D01*
X050659Y025526D02*
X051841D01*
X050659Y024974D02*
Y025526D01*
X051841Y024974D02*
Y025526D01*
X054887Y034984D02*
Y035516D01*
X055713Y034984D02*
Y035516D01*
X054887D02*
X055713D01*
X054887Y034984D02*
X055713D01*
X043548Y03269D02*
X04408D01*
X043548Y033517D02*
X04408D01*
X043548Y03269D02*
Y033517D01*
X04408Y03269D02*
Y033517D01*
X043548Y031883D02*
X04408D01*
X043548Y031056D02*
X04408D01*
Y031883D01*
X043548Y031056D02*
Y031883D01*
X050141Y033222D02*
Y033753D01*
X050968Y033222D02*
Y033753D01*
X050141D02*
X050968D01*
X050141Y033222D02*
X050968D01*
X050141Y030586D02*
Y031118D01*
X050968Y030586D02*
Y031118D01*
X050141D02*
X050968D01*
X050141Y030586D02*
X050968D01*
X050141Y031465D02*
Y031996D01*
X050968Y031465D02*
Y031996D01*
X050141D02*
X050968D01*
X050141Y031465D02*
X050968D01*
X050141Y032343D02*
Y032875D01*
X050968Y032343D02*
Y032875D01*
X050141D02*
X050968D01*
X050141Y032343D02*
X050968D01*
X04256Y031867D02*
X043092D01*
X04256Y03104D02*
X043092D01*
Y031867D01*
X04256Y03104D02*
Y031867D01*
X050216Y024808D02*
Y025635D01*
X049684Y024808D02*
Y025635D01*
X050216D01*
X049684Y024808D02*
X050216D01*
X054851Y026987D02*
Y027813D01*
X05432Y026987D02*
Y027813D01*
X054851D01*
X05432Y026987D02*
X054851D01*
X053883D02*
Y027813D01*
X053352Y026987D02*
Y027813D01*
X053883D01*
X053352Y026987D02*
X053883D01*
X052916D02*
Y027813D01*
X052384Y026987D02*
Y027813D01*
X052916D01*
X052384Y026987D02*
X052916D01*
X042588Y03271D02*
Y033497D01*
X04308Y03271D02*
Y033497D01*
X042588Y03271D02*
X04308D01*
X042588Y033497D02*
X04308D01*
X042161Y031021D02*
Y031887D01*
X041591D02*
X042161D01*
X041591Y031021D02*
X042161D01*
X041591D02*
Y031887D01*
D74*
X04692Y03073D02*
G03*
X04668Y03073I-00012J0D01*
G01*
X0483D02*
Y03487D01*
X04692Y03073D02*
X0483D01*
X04668D02*
X04692D01*
X0453D02*
X04668D01*
X0453D02*
Y03487D01*
X0483D01*
X0447Y03095D02*
X0453D01*
X0447D02*
Y03115D01*
X0453D01*
Y03095D02*
Y03115D01*
X0447Y03145D02*
X0453D01*
X0447D02*
Y03165D01*
X0453D01*
Y03145D02*
Y03165D01*
X0447Y03195D02*
X0453D01*
X0447D02*
Y03215D01*
X0453D01*
Y03195D02*
Y03215D01*
X0447Y03245D02*
X0453D01*
X0447D02*
Y03265D01*
X0453D01*
Y03245D02*
Y03265D01*
X0447Y03295D02*
X0453D01*
X0447D02*
Y03315D01*
X0453D01*
Y03295D02*
Y03315D01*
X0447Y03345D02*
X0453D01*
X0447D02*
Y03365D01*
X0453D01*
Y03345D02*
Y03365D01*
X0447Y03395D02*
X0453D01*
X0447D02*
Y03415D01*
X0453D01*
Y03395D02*
Y03415D01*
X0447Y03445D02*
X0453D01*
X0447D02*
Y03465D01*
X0453D01*
Y03445D02*
Y03465D01*
X0483D02*
X0489D01*
Y03445D02*
Y03465D01*
X0483Y03445D02*
X0489D01*
X0483D02*
Y03465D01*
Y03415D02*
X0489D01*
Y03395D02*
Y03415D01*
X0483Y03395D02*
X0489D01*
X0483D02*
Y03415D01*
Y03365D02*
X0489D01*
Y03345D02*
Y03365D01*
X0483Y03345D02*
X0489D01*
X0483D02*
Y03365D01*
Y03315D02*
X0489D01*
Y03295D02*
Y03315D01*
X0483Y03295D02*
X0489D01*
X0483D02*
Y03315D01*
Y03265D02*
X0489D01*
Y03245D02*
Y03265D01*
X0483Y03245D02*
X0489D01*
X0483D02*
Y03265D01*
Y03215D02*
X0489D01*
Y03195D02*
Y03215D01*
X0483Y03195D02*
X0489D01*
X0483D02*
Y03215D01*
Y03165D02*
X0489D01*
Y03145D02*
Y03165D01*
X0483Y03145D02*
X0489D01*
X0483D02*
Y03165D01*
Y03115D02*
X0489D01*
Y03095D02*
Y03115D01*
X0483Y03095D02*
X0489D01*
X0483D02*
Y03115D01*
D75*
X042834Y033444D02*
D03*
M02*
