G04*
G04 #@! TF.GenerationSoftware,Altium Limited,Altium Designer,21.3.2 (30)*
G04*
G04 Layer_Color=128*
%FSTAX24Y24*%
%MOIN*%
G70*
G04*
G04 #@! TF.SameCoordinates,A58ECD2F-0E49-4CC9-AAE6-1995A15C2F52*
G04*
G04*
G04 #@! TF.FilePolarity,Positive*
G04*
G01*
G75*
%ADD78C,0.0020*%
D78*
X037243Y030845D02*
X038227D01*
X037735Y030353D02*
Y031337D01*
X06677Y030845D02*
X067754D01*
X067262Y030353D02*
Y031337D01*
X06677Y04305D02*
X067754D01*
X067262Y042558D02*
Y043542D01*
X037243Y04305D02*
X038227D01*
X037735Y042558D02*
Y043542D01*
X05471Y04305D02*
X05509D01*
X0549Y04286D02*
Y04324D01*
X05371Y04305D02*
X05409D01*
X0539Y04286D02*
Y04324D01*
X05271Y04305D02*
X05309D01*
X0529Y04286D02*
Y04324D01*
X05171Y04305D02*
X05209D01*
X0519Y04286D02*
Y04324D01*
X05071Y04305D02*
X05109D01*
X0509Y04286D02*
Y04324D01*
X04971Y04305D02*
X05009D01*
X0499Y04286D02*
Y04324D01*
X04871Y04305D02*
X04909D01*
X0489Y04286D02*
Y04324D01*
X04771Y04305D02*
X04809D01*
X0479Y04286D02*
Y04324D01*
X04671Y04305D02*
X04709D01*
X0469Y04286D02*
Y04324D01*
X04571Y04305D02*
X04609D01*
X0459Y04286D02*
Y04324D01*
X04471Y04305D02*
X04509D01*
X0449Y04286D02*
Y04324D01*
X04371Y04305D02*
X04409D01*
X0439Y04286D02*
Y04324D01*
X04271Y04305D02*
X04309D01*
X0429Y04286D02*
Y04324D01*
X04171Y04305D02*
X04209D01*
X0419Y04286D02*
Y04324D01*
X04071Y04305D02*
X04109D01*
X0409Y04286D02*
Y04324D01*
X03971Y04305D02*
X04009D01*
X0399Y04286D02*
Y04324D01*
X054405Y0208D02*
X054795D01*
X0546Y020605D02*
Y020995D01*
X053405Y0208D02*
X053795D01*
X0536Y020605D02*
Y020995D01*
X050805Y0398D02*
X051195D01*
X051Y039605D02*
Y039995D01*
X049805Y0398D02*
X050195D01*
X05Y039605D02*
Y039995D01*
X048805Y0398D02*
X049195D01*
X049Y039605D02*
Y039995D01*
X047805Y0398D02*
X048195D01*
X048Y039605D02*
Y039995D01*
X046805Y0398D02*
X047195D01*
X047Y039605D02*
Y039995D01*
X045805Y0398D02*
X046195D01*
X046Y039605D02*
Y039995D01*
X044805Y0398D02*
X045195D01*
X045Y039605D02*
Y039995D01*
X043805Y0398D02*
X044195D01*
X044Y039605D02*
Y039995D01*
X041805Y0398D02*
X042195D01*
X042Y039605D02*
Y039995D01*
X040805Y0398D02*
X041195D01*
X041Y039605D02*
Y039995D01*
X039805Y0398D02*
X040195D01*
X04Y039605D02*
Y039995D01*
X038805Y0398D02*
X039195D01*
X039Y039605D02*
Y039995D01*
X037805Y0398D02*
X038195D01*
X038Y039605D02*
Y039995D01*
X036805Y0398D02*
X037195D01*
X037Y039605D02*
Y039995D01*
X036805Y0208D02*
X037195D01*
X037Y020605D02*
Y020995D01*
X037805Y0208D02*
X038195D01*
X038Y020605D02*
Y020995D01*
X038805Y0208D02*
X039195D01*
X039Y020605D02*
Y020995D01*
X039805Y0208D02*
X040195D01*
X04Y020605D02*
Y020995D01*
X040805Y0208D02*
X041195D01*
X041Y020605D02*
Y020995D01*
X041805Y0208D02*
X042195D01*
X042Y020605D02*
Y020995D01*
X042805Y0208D02*
X043195D01*
X043Y020605D02*
Y020995D01*
X043805Y0208D02*
X044195D01*
X044Y020605D02*
Y020995D01*
X045405Y0208D02*
X045795D01*
X0456Y020605D02*
Y020995D01*
X046405Y0208D02*
X046795D01*
X0466Y020605D02*
Y020995D01*
X047405Y0208D02*
X047795D01*
X0476Y020605D02*
Y020995D01*
X048405Y0208D02*
X048795D01*
X0486Y020605D02*
Y020995D01*
X049405Y0208D02*
X049795D01*
X0496Y020605D02*
Y020995D01*
X050405Y0208D02*
X050795D01*
X0506Y020605D02*
Y020995D01*
X051405Y0208D02*
X051795D01*
X0516Y020605D02*
Y020995D01*
X052405Y0208D02*
X052795D01*
X0526Y020605D02*
Y020995D01*
X058143Y031025D02*
X058457D01*
X0583Y030868D02*
Y031182D01*
X058143Y031775D02*
X058457D01*
X0583Y031618D02*
Y031932D01*
X06677Y0182D02*
X06803D01*
X0674Y01757D02*
Y01883D01*
X03717Y0182D02*
X03843D01*
X0378Y01757D02*
Y01883D01*
X040375Y01985D02*
X040925D01*
X04065Y019575D02*
Y020125D01*
X040375Y02185D02*
X040925D01*
X04065Y021575D02*
Y022125D01*
X045375Y01985D02*
X045925D01*
X04565Y019575D02*
Y020125D01*
X045375Y02185D02*
X045925D01*
X04565Y021575D02*
Y022125D01*
X059125Y01985D02*
X059675D01*
X0594Y019575D02*
Y020125D01*
X059125Y02185D02*
X059675D01*
X0594Y021575D02*
Y022125D01*
X064125Y01985D02*
X064675D01*
X0644Y019575D02*
Y020125D01*
X064125Y02185D02*
X064675D01*
X0644Y021575D02*
Y022125D01*
X040003Y02775D02*
X040397D01*
X0402Y027553D02*
Y027947D01*
X040003Y02475D02*
X040397D01*
X0402Y024553D02*
Y024947D01*
X04975Y0199D02*
X0503D01*
X050025Y019625D02*
Y020175D01*
X04975Y0219D02*
X0503D01*
X050025Y021625D02*
Y022175D01*
X05475Y0199D02*
X0553D01*
X055025Y019625D02*
Y020175D01*
X05475Y0219D02*
X0553D01*
X055025Y021625D02*
Y022175D01*
X055695Y031D02*
X056005D01*
X05585Y030845D02*
Y031155D01*
X055695Y032D02*
X056005D01*
X05585Y031845D02*
Y032155D01*
X055695Y033D02*
X056005D01*
X05585Y032845D02*
Y033155D01*
X055695Y034D02*
X056005D01*
X05585Y033845D02*
Y034155D01*
X052695Y034D02*
X053005D01*
X05285Y033845D02*
Y034155D01*
X052695Y033D02*
X053005D01*
X05285Y032845D02*
Y033155D01*
X052695Y032D02*
X053005D01*
X05285Y031845D02*
Y032155D01*
X052695Y031D02*
X053005D01*
X05285Y030845D02*
Y031155D01*
X066723Y02555D02*
X067077D01*
X0669Y025373D02*
Y025727D01*
X066723Y02655D02*
X067077D01*
X0669Y026373D02*
Y026727D01*
X066723Y02755D02*
X067077D01*
X0669Y027373D02*
Y027727D01*
X065705Y03735D02*
X066095D01*
X0659Y037155D02*
Y037545D01*
X057705Y03735D02*
X058095D01*
X0579Y037155D02*
Y037545D01*
X042716Y034116D02*
X042916D01*
X042816Y034016D02*
Y034216D01*
X04635Y03595D02*
X04655D01*
X04645Y03585D02*
Y03605D01*
X04385Y027D02*
X04405D01*
X04395Y0269D02*
Y0271D01*
X05525Y0239D02*
X05545D01*
X05535Y0238D02*
Y024D01*
X05565Y02335D02*
X05585D01*
X05575Y02325D02*
Y02345D01*
X0548Y0346D02*
X055D01*
X0549Y0345D02*
Y0347D01*
X04925Y03255D02*
X04945D01*
X04935Y03245D02*
Y03265D01*
X04585Y03205D02*
X04605D01*
X04595Y03195D02*
Y03215D01*
X04585Y03155D02*
X04605D01*
X04595Y03145D02*
Y03165D01*
X04335Y02755D02*
X04355D01*
X04345Y02745D02*
Y02765D01*
X04925Y03305D02*
X04945D01*
X04935Y03295D02*
Y03315D01*
X04925Y03355D02*
X04945D01*
X04935Y03345D02*
Y03365D01*
X054485Y026308D02*
X054685D01*
X054585Y026208D02*
Y026408D01*
X05255Y026308D02*
X05275D01*
X05265Y026208D02*
Y026408D01*
X053518Y026308D02*
X053718D01*
X053618Y026208D02*
Y026408D01*
M02*
