G04*
G04 #@! TF.GenerationSoftware,Altium Limited,Altium Designer,21.3.2 (30)*
G04*
G04 Layer_Color=2752767*
%FSTAX24Y24*%
%MOIN*%
G70*
G04*
G04 #@! TF.SameCoordinates,A58ECD2F-0E49-4CC9-AAE6-1995A15C2F52*
G04*
G04*
G04 #@! TF.FilePolarity,Positive*
G04*
G01*
G75*
%ADD78C,0.0020*%
%ADD79C,0.0027*%
%ADD80C,0.0013*%
D78*
X037655Y030765D02*
Y030925D01*
X037815D01*
Y030765D01*
X037655D01*
X067182D02*
Y030925D01*
X067342D01*
Y030765D01*
X067182D01*
Y04297D02*
Y04313D01*
X067342D01*
Y04297D01*
X067182D01*
X037655D02*
Y04313D01*
X037815D01*
Y04297D01*
X037655D01*
X0546Y02072D02*
X05452Y02088D01*
X05468D01*
X0546Y02072D01*
X0536D02*
X05352Y02088D01*
X05368D01*
X0536Y02072D01*
X051Y03972D02*
X05092Y03988D01*
X05108D01*
X051Y03972D01*
X05D02*
X04992Y03988D01*
X05008D01*
X05Y03972D01*
X049D02*
X04892Y03988D01*
X04908D01*
X049Y03972D01*
X048D02*
X04792Y03988D01*
X04808D01*
X048Y03972D01*
X047D02*
X04692Y03988D01*
X04708D01*
X047Y03972D01*
X046D02*
X04592Y03988D01*
X04608D01*
X046Y03972D01*
X045D02*
X04492Y03988D01*
X04508D01*
X045Y03972D01*
X044D02*
X04392Y03988D01*
X04408D01*
X044Y03972D01*
X042D02*
X04192Y03988D01*
X04208D01*
X042Y03972D01*
X041D02*
X04092Y03988D01*
X04108D01*
X041Y03972D01*
X04D02*
X03992Y03988D01*
X04008D01*
X04Y03972D01*
X039D02*
X03892Y03988D01*
X03908D01*
X039Y03972D01*
X038D02*
X03792Y03988D01*
X03808D01*
X038Y03972D01*
X037D02*
X03692Y03988D01*
X03708D01*
X037Y03972D01*
Y02072D02*
X03692Y02088D01*
X03708D01*
X037Y02072D01*
X038D02*
X03792Y02088D01*
X03808D01*
X038Y02072D01*
X039D02*
X03892Y02088D01*
X03908D01*
X039Y02072D01*
X04D02*
X03992Y02088D01*
X04008D01*
X04Y02072D01*
X041D02*
X04092Y02088D01*
X04108D01*
X041Y02072D01*
X042D02*
X04192Y02088D01*
X04208D01*
X042Y02072D01*
X043D02*
X04292Y02088D01*
X04308D01*
X043Y02072D01*
X044D02*
X04392Y02088D01*
X04408D01*
X044Y02072D01*
X0456D02*
X04552Y02088D01*
X04568D01*
X0456Y02072D01*
X0466D02*
X04652Y02088D01*
X04668D01*
X0466Y02072D01*
X0476D02*
X04752Y02088D01*
X04768D01*
X0476Y02072D01*
X0486D02*
X04852Y02088D01*
X04868D01*
X0486Y02072D01*
X0496D02*
X04952Y02088D01*
X04968D01*
X0496Y02072D01*
X0506D02*
X05052Y02088D01*
X05068D01*
X0506Y02072D01*
X0516D02*
X05152Y02088D01*
X05168D01*
X0516Y02072D01*
X0526D02*
X05252Y02088D01*
X05268D01*
X0526Y02072D01*
X0583Y030945D02*
X05834Y030985D01*
X05838D01*
X05834Y031025D01*
X05838Y031065D01*
X05834D01*
X0583Y031105D01*
X05826Y031065D01*
X05822D01*
X05826Y031025D01*
X05822Y030985D01*
X05826D01*
X0583Y030945D01*
Y031695D02*
X05834Y031735D01*
X05838D01*
X05834Y031775D01*
X05838Y031815D01*
X05834D01*
X0583Y031855D01*
X05826Y031815D01*
X05822D01*
X05826Y031775D01*
X05822Y031735D01*
X05826D01*
X0583Y031695D01*
X06732Y01812D02*
X06736Y0182D01*
X06732Y01828D01*
X0674Y01824D01*
X06748Y01828D01*
X06744Y0182D01*
X06748Y01812D01*
X0674Y01816D01*
X06732Y01812D01*
X03772D02*
X03776Y0182D01*
X03772Y01828D01*
X0378Y01824D01*
X03788Y01828D01*
X03784Y0182D01*
X03788Y01812D01*
X0378Y01816D01*
X03772Y01812D01*
X04061Y01981D02*
Y01977D01*
X04069D01*
Y01981D01*
X04073D01*
Y01989D01*
X04069D01*
Y01993D01*
X04061D01*
Y01989D01*
X04057D01*
Y01981D01*
X04061D01*
Y02181D02*
Y02177D01*
X04069D01*
Y02181D01*
X04073D01*
Y02189D01*
X04069D01*
Y02193D01*
X04061D01*
Y02189D01*
X04057D01*
Y02181D01*
X04061D01*
X04561Y01981D02*
Y01977D01*
X04569D01*
Y01981D01*
X04573D01*
Y01989D01*
X04569D01*
Y01993D01*
X04561D01*
Y01989D01*
X04557D01*
Y01981D01*
X04561D01*
Y02181D02*
Y02177D01*
X04569D01*
Y02181D01*
X04573D01*
Y02189D01*
X04569D01*
Y02193D01*
X04561D01*
Y02189D01*
X04557D01*
Y02181D01*
X04561D01*
X05936Y01981D02*
Y01977D01*
X05944D01*
Y01981D01*
X05948D01*
Y01989D01*
X05944D01*
Y01993D01*
X05936D01*
Y01989D01*
X05932D01*
Y01981D01*
X05936D01*
Y02181D02*
Y02177D01*
X05944D01*
Y02181D01*
X05948D01*
Y02189D01*
X05944D01*
Y02193D01*
X05936D01*
Y02189D01*
X05932D01*
Y02181D01*
X05936D01*
X06436Y01981D02*
Y01977D01*
X06444D01*
Y01981D01*
X06448D01*
Y01989D01*
X06444D01*
Y01993D01*
X06436D01*
Y01989D01*
X06432D01*
Y01981D01*
X06436D01*
Y02181D02*
Y02177D01*
X06444D01*
Y02181D01*
X06448D01*
Y02189D01*
X06444D01*
Y02193D01*
X06436D01*
Y02189D01*
X06432D01*
Y02181D01*
X06436D01*
X04012Y02767D02*
X04016D01*
X0402Y02771D01*
X04024Y02767D01*
X04028D01*
Y02771D01*
X04024Y02775D01*
X04028Y02779D01*
Y02783D01*
X04024D01*
X0402Y02779D01*
X04016Y02783D01*
X04012D01*
Y02779D01*
X04016Y02775D01*
X04012Y02771D01*
Y02767D01*
Y02467D02*
X04016D01*
X0402Y02471D01*
X04024Y02467D01*
X04028D01*
Y02471D01*
X04024Y02475D01*
X04028Y02479D01*
Y02483D01*
X04024D01*
X0402Y02479D01*
X04016Y02483D01*
X04012D01*
Y02479D01*
X04016Y02475D01*
X04012Y02471D01*
Y02467D01*
X049985Y01986D02*
Y01982D01*
X050065D01*
Y01986D01*
X050105D01*
Y01994D01*
X050065D01*
Y01998D01*
X049985D01*
Y01994D01*
X049945D01*
Y01986D01*
X049985D01*
Y02186D02*
Y02182D01*
X050065D01*
Y02186D01*
X050105D01*
Y02194D01*
X050065D01*
Y02198D01*
X049985D01*
Y02194D01*
X049945D01*
Y02186D01*
X049985D01*
X054985Y01986D02*
Y01982D01*
X055065D01*
Y01986D01*
X055105D01*
Y01994D01*
X055065D01*
Y01998D01*
X054985D01*
Y01994D01*
X054945D01*
Y01986D01*
X054985D01*
Y02186D02*
Y02182D01*
X055065D01*
Y02186D01*
X055105D01*
Y02194D01*
X055065D01*
Y02198D01*
X054985D01*
Y02194D01*
X054945D01*
Y02186D01*
X054985D01*
X05577Y031D02*
X05585Y03108D01*
X05593Y031D01*
X05585Y03092D01*
X05577Y031D01*
Y032D02*
X05585Y03208D01*
X05593Y032D01*
X05585Y03192D01*
X05577Y032D01*
Y033D02*
X05585Y03308D01*
X05593Y033D01*
X05585Y03292D01*
X05577Y033D01*
Y034D02*
X05585Y03408D01*
X05593Y034D01*
X05585Y03392D01*
X05577Y034D01*
X05277D02*
X05285Y03408D01*
X05293Y034D01*
X05285Y03392D01*
X05277Y034D01*
Y033D02*
X05285Y03308D01*
X05293Y033D01*
X05285Y03292D01*
X05277Y033D01*
Y032D02*
X05285Y03208D01*
X05293Y032D01*
X05285Y03192D01*
X05277Y032D01*
Y031D02*
X05285Y03108D01*
X05293Y031D01*
X05285Y03092D01*
X05277Y031D01*
X06682Y02547D02*
Y02563D01*
X06698D01*
Y02547D01*
X06682D01*
X06686Y02551D02*
Y02559D01*
X06694D01*
Y02551D01*
X06686D01*
X06682Y02647D02*
Y02663D01*
X06698D01*
Y02647D01*
X06682D01*
X06686Y02651D02*
Y02659D01*
X06694D01*
Y02651D01*
X06686D01*
X06682Y02747D02*
Y02763D01*
X06698D01*
Y02747D01*
X06682D01*
X06686Y02751D02*
Y02759D01*
X06694D01*
Y02751D01*
X06686D01*
X0659Y03727D02*
X06582Y03743D01*
X06598D01*
X0659Y03727D01*
X0579D02*
X05782Y03743D01*
X05798D01*
X0579Y03727D01*
D79*
X05498Y04305D02*
G03*
X05498Y04305I-00008J0D01*
G01*
X05398D02*
G03*
X05398Y04305I-00008J0D01*
G01*
X05298D02*
G03*
X05298Y04305I-00008J0D01*
G01*
X05198D02*
G03*
X05198Y04305I-00008J0D01*
G01*
X05098D02*
G03*
X05098Y04305I-00008J0D01*
G01*
X04998D02*
G03*
X04998Y04305I-00008J0D01*
G01*
X04898D02*
G03*
X04898Y04305I-00008J0D01*
G01*
X04798D02*
G03*
X04798Y04305I-00008J0D01*
G01*
X04698D02*
G03*
X04698Y04305I-00008J0D01*
G01*
X04598D02*
G03*
X04598Y04305I-00008J0D01*
G01*
X04498D02*
G03*
X04498Y04305I-00008J0D01*
G01*
X04398D02*
G03*
X04398Y04305I-00008J0D01*
G01*
X04298D02*
G03*
X04298Y04305I-00008J0D01*
G01*
X04198D02*
G03*
X04198Y04305I-00008J0D01*
G01*
X04098D02*
G03*
X04098Y04305I-00008J0D01*
G01*
X03998D02*
G03*
X03998Y04305I-00008J0D01*
G01*
X042896Y034116D02*
G03*
X042896Y034116I-00008J0D01*
G01*
X04653Y03595D02*
G03*
X04653Y03595I-00008J0D01*
G01*
X04403Y027D02*
G03*
X04403Y027I-00008J0D01*
G01*
X05543Y0239D02*
G03*
X05543Y0239I-00008J0D01*
G01*
X05583Y02335D02*
G03*
X05583Y02335I-00008J0D01*
G01*
X05498Y0346D02*
G03*
X05498Y0346I-00008J0D01*
G01*
X04943Y03255D02*
G03*
X04943Y03255I-00008J0D01*
G01*
X04603Y03205D02*
G03*
X04603Y03205I-00008J0D01*
G01*
Y03155D02*
G03*
X04603Y03155I-00008J0D01*
G01*
X04353Y02755D02*
G03*
X04353Y02755I-00008J0D01*
G01*
X04943Y03305D02*
G03*
X04943Y03305I-00008J0D01*
G01*
Y03355D02*
G03*
X04943Y03355I-00008J0D01*
G01*
X054665Y026308D02*
G03*
X054665Y026308I-00008J0D01*
G01*
X05273D02*
G03*
X05273Y026308I-00008J0D01*
G01*
X053698D02*
G03*
X053698Y026308I-00008J0D01*
G01*
D80*
X042856Y034116D02*
G03*
X042856Y034116I-00004J0D01*
G01*
X04649Y03595D02*
G03*
X04649Y03595I-00004J0D01*
G01*
X04399Y027D02*
G03*
X04399Y027I-00004J0D01*
G01*
X05539Y0239D02*
G03*
X05539Y0239I-00004J0D01*
G01*
X05579Y02335D02*
G03*
X05579Y02335I-00004J0D01*
G01*
X05494Y0346D02*
G03*
X05494Y0346I-00004J0D01*
G01*
X04939Y03255D02*
G03*
X04939Y03255I-00004J0D01*
G01*
X04599Y03205D02*
G03*
X04599Y03205I-00004J0D01*
G01*
Y03155D02*
G03*
X04599Y03155I-00004J0D01*
G01*
X04349Y02755D02*
G03*
X04349Y02755I-00004J0D01*
G01*
X04939Y03305D02*
G03*
X04939Y03305I-00004J0D01*
G01*
Y03355D02*
G03*
X04939Y03355I-00004J0D01*
G01*
X054625Y026308D02*
G03*
X054625Y026308I-00004J0D01*
G01*
X05269D02*
G03*
X05269Y026308I-00004J0D01*
G01*
X053658D02*
G03*
X053658Y026308I-00004J0D01*
G01*
M02*
